<?xml version="1.0" standalone="no"?>
<!DOCTYPE svg PUBLIC "-//W3C//DTD SVG 20010904//EN"
 "http://www.w3.org/TR/2001/REC-SVG-20010904/DTD/svg10.dtd">
<svg version="1.0" xmlns="http://www.w3.org/2000/svg"
 width="192.000000pt" height="192.000000pt" viewBox="0 0 192.000000 192.000000"
 preserveAspectRatio="xMidYMid meet">

<g transform="translate(0.000000,192.000000) scale(0.100000,-0.100000)"
fill="#000000" stroke="none">
<path d="M786 1185 c-8 -9 -32 -36 -52 -61 -44 -53 -115 -98 -142 -90 -11 4
-31 20 -46 36 -31 35 -46 37 -71 10 -16 -18 -17 -23 -4 -46 15 -30 63 -68 95
-78 14 -4 25 -21 33 -49 35 -116 127 -234 224 -285 45 -23 64 -27 142 -27 78
0 97 4 146 28 64 31 149 111 188 177 14 25 35 74 47 109 18 57 24 65 57 76 50
17 107 62 107 84 0 45 -42 52 -96 16 -64 -43 -98 -33 -207 64 -32 28 -64 51
-70 51 -7 0 -34 -18 -62 -40 -43 -34 -57 -40 -98 -40 -54 0 -92 16 -124 54
-26 30 -45 33 -67 11z m73 -176 c63 -22 77 -107 24 -149 -76 -59 -178 27 -132
111 8 16 33 32 75 49 1 0 15 -5 33 -11z m352 -18 c39 -40 39 -82 0 -122 -61
-60 -156 -23 -156 61 0 84 95 121 156 61z"/>
<path d="M810 926 c0 -10 9 -16 21 -16 24 0 21 23 -4 28 -10 2 -17 -3 -17 -12z"/>
<path d="M1132 933 c5 -25 28 -28 28 -4 0 12 -6 21 -16 21 -9 0 -14 -7 -12
-17z"/>
</g>
</svg>
