<?xml version="1.0" encoding="UTF-8"?>
<!DOCTYPE svg PUBLIC "-//W3C//DTD SVG 1.1//EN" "http://www.w3.org/Graphics/SVG/1.1/DTD/svg11.dtd">
<svg xmlns="http://www.w3.org/2000/svg" version="1.1" width="96px" height="96px" style="shape-rendering:geometricPrecision; text-rendering:geometricPrecision; image-rendering:optimizeQuality; fill-rule:evenodd; clip-rule:evenodd" xmlns:xlink="http://www.w3.org/1999/xlink">
<g><path style="opacity:0.999" fill="#8246e4" d="M 37.5,-0.5 C 44.1667,-0.5 50.8333,-0.5 57.5,-0.5C 76.7283,5.0612 89.3949,17.3945 95.5,36.5C 95.5,43.8333 95.5,51.1667 95.5,58.5C 89.5,77.1667 77.1667,89.5 58.5,95.5C 51.1667,95.5 43.8333,95.5 36.5,95.5C 17.4211,89.4209 5.08775,76.7542 -0.5,57.5C -0.5,50.8333 -0.5,44.1667 -0.5,37.5C 5.16667,17.8333 17.8333,5.16667 37.5,-0.5 Z"/></g>
<g><path style="opacity:1" fill="#f6f3f9" d="M 31.5,21.5 C 38.3684,23.0173 44.5351,26.0173 50,30.5C 51.6805,35.3811 50.1805,38.7144 45.5,40.5C 44.1647,32.66 39.498,28.8267 31.5,29C 28.7513,30.1227 26.2513,31.6227 24,33.5C 21.1555,42.9618 24.3222,48.9618 33.5,51.5C 42.2909,46.9367 50.9575,42.1034 59.5,37C 60.8333,36.3333 62.1667,36.3333 63.5,37C 68.4188,40.0423 73.2522,43.209 78,46.5C 78.6667,52.5 78.6667,58.5 78,64.5C 72.9751,68.4281 67.4751,71.4281 61.5,73.5C 55.5249,71.4281 50.0249,68.4281 45,64.5C 43.3195,59.6189 44.8195,56.2856 49.5,54.5C 50.3142,56.7662 50.8142,59.0995 51,61.5C 58.2905,68.3136 65.2905,67.9802 72,60.5C 72.7599,56.7745 72.5932,53.1078 71.5,49.5C 68.405,47.0651 65.0717,45.0651 61.5,43.5C 52.1667,48.5 42.8333,53.5 33.5,58.5C 27.7885,55.5589 22.2885,52.2256 17,48.5C 16.3333,42.5 16.3333,36.5 17,30.5C 21.9813,27.6002 26.8146,24.6002 31.5,21.5 Z"/></g>
</svg>
