<?xml version="1.0" encoding="UTF-8"?>
<!DOCTYPE svg PUBLIC "-//W3C//DTD SVG 1.1//EN" "http://www.w3.org/Graphics/SVG/1.1/DTD/svg11.dtd">
<svg xmlns="http://www.w3.org/2000/svg" version="1.1" width="128px" height="128px" style="shape-rendering:geometricPrecision; text-rendering:geometricPrecision; image-rendering:optimizeQuality; fill-rule:evenodd; clip-rule:evenodd" xmlns:xlink="http://www.w3.org/1999/xlink">
<g><path style="opacity:1" fill="#dbf424" d="M 120.5,52.5 C 114.887,52.3664 109.554,51.3664 104.5,49.5C 102.637,42.3068 98.3033,37.3068 91.5,34.5C 93.5273,34.3379 95.5273,34.5045 97.5,35C 102.021,39.0223 106.688,42.8556 111.5,46.5C 111.581,41.2238 110.081,36.2238 107,31.5C 95.0704,15.1229 78.9037,7.78957 58.5,9.5C 60.631,8.68618 62.9644,8.18618 65.5,8C 58.7341,7.28611 52.0675,7.78611 45.5,9.5C 44.8933,9.37642 44.56,9.04309 44.5,8.5C 76.8955,-0.0986028 101.062,10.2347 117,39.5C 118.638,43.7215 119.805,48.0549 120.5,52.5 Z"/></g>
<g><path style="opacity:1" fill="#e0fb25" d="M 58.5,9.5 C 78.9037,7.78957 95.0704,15.1229 107,31.5C 110.081,36.2238 111.581,41.2238 111.5,46.5C 106.688,42.8556 102.021,39.0223 97.5,35C 95.5273,34.5045 93.5273,34.3379 91.5,34.5C 86.6879,33.3222 82.0213,33.3222 77.5,34.5C 76.8333,34.5 76.1667,34.5 75.5,34.5C 73.5891,34.4257 72.4224,33.4257 72,31.5C 69.3065,33.681 66.3065,35.3476 63,36.5C 55.4163,33.8755 48.4163,30.2088 42,25.5C 41.4993,22.6073 40.3326,20.1073 38.5,18C 44.0449,12.7327 50.7116,9.89933 58.5,9.5 Z"/></g>
<g><path style="opacity:1" fill="#d2ea22" d="M 58.5,9.5 C 50.7116,9.89933 44.0449,12.7327 38.5,18C 40.3326,20.1073 41.4993,22.6073 42,25.5C 48.4163,30.2088 55.4163,33.8755 63,36.5C 66.3065,35.3476 69.3065,33.681 72,31.5C 72.4224,33.4257 73.5891,34.4257 75.5,34.5C 71.0783,36.723 67.4116,39.8896 64.5,44C 63.0024,44.5847 62.0024,44.0847 61.5,42.5C 57.6373,37.7301 52.6373,34.7301 46.5,33.5C 46.1667,33.5 45.8333,33.5 45.5,33.5C 41.0078,32.162 36.3411,30.9953 31.5,30C 30.9389,28.324 29.9389,26.9906 28.5,26C 30.4144,22.4113 32.7477,19.078 35.5,16C 31.6654,16.9116 27.9988,18.4116 24.5,20.5C 29.8702,14.4881 36.5369,10.4881 44.5,8.5C 44.56,9.04309 44.8933,9.37642 45.5,9.5C 52.0675,7.78611 58.7341,7.28611 65.5,8C 62.9644,8.18618 60.631,8.68618 58.5,9.5 Z"/></g>
<g><path style="opacity:1" fill="#c5dc20" d="M 45.5,33.5 C 32.6752,33.3321 24.3418,39.3321 20.5,51.5C 15.8333,51.5 11.1667,51.5 6.5,51.5C 8.65819,38.8393 14.6582,28.506 24.5,20.5C 27.9988,18.4116 31.6654,16.9116 35.5,16C 32.7477,19.078 30.4144,22.4113 28.5,26C 29.9389,26.9906 30.9389,28.324 31.5,30C 36.3411,30.9953 41.0078,32.162 45.5,33.5 Z"/></g>
<g><path style="opacity:1" fill="#677311" d="M 46.5,33.5 C 52.6373,34.7301 57.6373,37.7301 61.5,42.5C 60.6618,42.8417 60.3284,43.5084 60.5,44.5C 57.3647,41.0994 53.698,38.4327 49.5,36.5C 47.8564,36.1898 46.8564,35.1898 46.5,33.5 Z"/></g>
<g><path style="opacity:1" fill="#353b0c" d="M 75.5,34.5 C 76.1667,34.5 76.8333,34.5 77.5,34.5C 78.2389,34.369 78.9056,34.5357 79.5,35C 77.6383,36.3657 75.9717,37.8657 74.5,39.5C 73.4937,40.3957 73.4937,41.0623 74.5,41.5C 72.8333,43.8333 70.8333,45.8333 68.5,47.5C 69.3657,45.856 69.8657,44.1893 70,42.5C 67.5785,45.4052 65.4119,48.4052 63.5,51.5C 63.1203,49.9793 62.9536,48.3126 63,46.5C 62.2917,45.6195 61.4584,44.9528 60.5,44.5C 60.3284,43.5084 60.6618,42.8417 61.5,42.5C 62.0024,44.0847 63.0024,44.5847 64.5,44C 67.4116,39.8896 71.0783,36.723 75.5,34.5 Z"/></g>
<g><path style="opacity:1" fill="#cdccc7" d="M 53.5,43.5 C 54.8333,44.5 56.1667,45.5 57.5,46.5C 57.2322,48.099 57.5655,49.4324 58.5,50.5C 59.7142,60.2426 55.7142,66.7426 46.5,70C 43.408,70.7358 40.408,70.5691 37.5,69.5C 36.3915,68.71 35.0581,68.21 33.5,68C 30.7895,65.3722 28.4562,62.5389 26.5,59.5C 26.3946,55.4517 26.7279,51.4517 27.5,47.5C 29.9635,45.5389 32.2968,43.3722 34.5,41C 39.0947,39.6071 43.7613,39.2738 48.5,40C 50.5844,40.6972 52.2511,41.8639 53.5,43.5 Z"/></g>
<g><path style="opacity:1" fill="#f4f3f2" d="M 53.5,43.5 C 53.8781,46.0221 54.7114,48.3554 56,50.5C 56.6667,53.1667 56.6667,55.8333 56,58.5C 54.6124,59.5536 53.1124,59.7203 51.5,59C 50.8906,57.0517 50.224,55.2184 49.5,53.5C 49.573,51.9731 48.9063,50.9731 47.5,50.5C 47.0269,49.0937 46.0269,48.427 44.5,48.5C 43.1225,47.7656 41.6225,47.0989 40,46.5C 36.996,52.1443 35.996,51.8109 37,45.5C 39.1815,42.9562 42.0148,41.6229 45.5,41.5C 48.022,42.762 50.6887,43.4287 53.5,43.5 Z"/></g>
<g><path style="opacity:1" fill="#0c0d03" d="M 6.5,51.5 C 11.1667,51.5 15.8333,51.5 20.5,51.5C 21.8198,54.8987 21.8198,58.3987 20.5,62C 15.5111,62.4993 10.5111,62.6659 5.5,62.5C 4.8269,60.0403 4.49357,57.5403 4.5,55C 4.9783,53.6974 5.64497,52.5307 6.5,51.5 Z"/></g>
<g><path style="opacity:1" fill="#131404" d="M 104.5,49.5 C 109.554,51.3664 114.887,52.3664 120.5,52.5C 121.695,52.8656 122.361,53.699 122.5,55C 122.506,57.5403 122.173,60.0403 121.5,62.5C 116.065,63.1235 110.732,63.7901 105.5,64.5C 102.316,64.6678 101.816,63.3345 104,60.5C 104.499,56.8484 104.665,53.1817 104.5,49.5 Z"/></g>
<g><path style="opacity:1" fill="#4b530e" d="M 77.5,34.5 C 82.0213,33.3222 86.6879,33.3222 91.5,34.5C 98.3033,37.3068 102.637,42.3068 104.5,49.5C 104.665,53.1817 104.499,56.8484 104,60.5C 101.816,63.3345 102.316,64.6678 105.5,64.5C 104.329,65.3446 102.995,66.0113 101.5,66.5C 97.6821,68.9106 93.6821,71.0772 89.5,73C 83.3267,73.7828 77.3267,73.1161 71.5,71C 68.6126,68.1126 65.7792,65.2792 63,62.5C 54.5688,73.254 44.0688,75.9206 31.5,70.5C 24.3736,65.2958 21.8736,58.2958 24,49.5C 25.3333,47.5 26.6667,45.5 28,43.5C 28.195,44.8193 28.0283,46.1526 27.5,47.5C 25.9827,49.4621 25.3161,51.7954 25.5,54.5C 25.5068,56.3693 25.8401,58.036 26.5,59.5C 28.4562,62.5389 30.7895,65.3722 33.5,68C 35.0581,68.21 36.3915,68.71 37.5,69.5C 34.9028,69.7208 34.9028,70.2208 37.5,71C 54.683,72.8206 61.8496,65.3206 59,48.5C 58.5357,49.0944 58.369,49.7611 58.5,50.5C 57.5655,49.4324 57.2322,48.099 57.5,46.5C 55.6065,42.1157 52.2731,39.2824 47.5,38C 48.4158,37.7216 49.0825,37.2216 49.5,36.5C 53.698,38.4327 57.3647,41.0994 60.5,44.5C 61.4584,44.9528 62.2917,45.6195 63,46.5C 62.9536,48.3126 63.1203,49.9793 63.5,51.5C 65.4119,48.4052 67.5785,45.4052 70,42.5C 69.8657,44.1893 69.3657,45.856 68.5,47.5C 65.7806,63.1231 72.4472,70.7897 88.5,70.5C 95.8551,69.3105 100.022,64.9771 101,57.5C 101.395,45.2222 95.3945,38.5555 83,37.5C 80.0788,37.8641 77.2455,38.5308 74.5,39.5C 75.9717,37.8657 77.6383,36.3657 79.5,35C 78.9056,34.5357 78.2389,34.369 77.5,34.5 Z"/></g>
<g><path style="opacity:1" fill="#262b0a" d="M 37.5,69.5 C 40.408,70.5691 43.408,70.7358 46.5,70C 55.7142,66.7426 59.7142,60.2426 58.5,50.5C 58.369,49.7611 58.5357,49.0944 59,48.5C 61.8496,65.3206 54.683,72.8206 37.5,71C 34.9028,70.2208 34.9028,69.7208 37.5,69.5 Z"/></g>
<g><path style="opacity:1" fill="#453f2e" d="M 37.5,51.5 C 36.8505,53.4352 36.5172,55.4352 36.5,57.5C 35.8614,56.9032 35.528,56.0698 35.5,55C 35.3866,53.3009 36.0532,52.1342 37.5,51.5 Z"/></g>
<g><path style="opacity:1" fill="#141502" d="M 27.5,47.5 C 26.7279,51.4517 26.3946,55.4517 26.5,59.5C 25.8401,58.036 25.5068,56.3693 25.5,54.5C 25.3161,51.7954 25.9827,49.4621 27.5,47.5 Z"/></g>
<g><path style="opacity:1" fill="#e2e1e0" d="M 98.5,59.5 C 98.5,59.8333 98.5,60.1667 98.5,60.5C 95.4179,62.0748 92.7512,64.2415 90.5,67C 78.3824,70.522 71.049,66.1887 68.5,54C 70.9196,43.9278 77.2529,39.9278 87.5,42C 92.4693,43.8945 95.636,47.3945 97,52.5C 97.3333,52.1667 97.6667,51.8333 98,51.5C 98.4974,54.146 98.6641,56.8127 98.5,59.5 Z"/></g>
<g><path style="opacity:1" fill="#52451d" d="M 39.5,49.5 C 40.9187,48.5489 42.5853,48.2155 44.5,48.5C 46.0269,48.427 47.0269,49.0937 47.5,50.5C 44.9039,49.7347 42.2372,49.4013 39.5,49.5 Z"/></g>
<g><path style="opacity:1" fill="#1e2007" d="M 88.5,70.5 C 92.802,68.198 96.1354,64.8647 98.5,60.5C 98.5,60.1667 98.5,59.8333 98.5,59.5C 100.851,47.2522 95.6839,40.5855 83,39.5C 79.9269,39.3636 77.0935,40.0302 74.5,41.5C 73.4937,41.0623 73.4937,40.3957 74.5,39.5C 77.2455,38.5308 80.0788,37.8641 83,37.5C 95.3945,38.5555 101.395,45.2222 101,57.5C 100.022,64.9771 95.8551,69.3105 88.5,70.5 Z"/></g>
<g><path style="opacity:1" fill="#c4c4ba" d="M 98.5,59.5 C 98.6641,56.8127 98.4974,54.146 98,51.5C 97.6667,51.8333 97.3333,52.1667 97,52.5C 95.636,47.3945 92.4693,43.8945 87.5,42C 77.2529,39.9278 70.9196,43.9278 68.5,54C 71.049,66.1887 78.3824,70.522 90.5,67C 92.7512,64.2415 95.4179,62.0748 98.5,60.5C 96.1354,64.8647 92.802,68.198 88.5,70.5C 72.4472,70.7897 65.7806,63.1231 68.5,47.5C 70.8333,45.8333 72.8333,43.8333 74.5,41.5C 77.0935,40.0302 79.9269,39.3636 83,39.5C 95.6839,40.5855 100.851,47.2522 98.5,59.5 Z"/></g>
<g><path style="opacity:1" fill="#514627" d="M 89.5,52.5 C 81.8447,47.113 77.8447,49.113 77.5,58.5C 75.5224,50.3136 78.8557,47.1469 87.5,49C 88.8228,49.8159 89.4894,50.9826 89.5,52.5 Z"/></g>
<g><path style="opacity:1" fill="#e9c105" d="M 89.5,52.5 C 89.5,54.5 89.5,56.5 89.5,58.5C 87.0034,60.8711 84.0034,61.8711 80.5,61.5C 79.8333,60.1667 78.8333,59.1667 77.5,58.5C 77.8447,49.113 81.8447,47.113 89.5,52.5 Z"/></g>
<g><path style="opacity:1" fill="#221f14" d="M 81.5,51.5 C 86.4857,51.3049 88.1524,53.4716 86.5,58C 79.5608,59.5741 77.8941,57.4074 81.5,51.5 Z"/></g>
<g><path style="opacity:1" fill="#e2e3e3" d="M 82.5,53.5 C 84.4646,53.9483 84.7979,54.9483 83.5,56.5C 82.6143,55.675 82.281,54.675 82.5,53.5 Z"/></g>
<g><path style="opacity:1" fill="#eac205" d="M 39.5,49.5 C 42.2372,49.4013 44.9039,49.7347 47.5,50.5C 49.3017,54.6969 48.635,58.3635 45.5,61.5C 43.0971,61.552 40.7638,61.2186 38.5,60.5C 38.0679,59.2905 37.4013,58.2905 36.5,57.5C 36.5172,55.4352 36.8505,53.4352 37.5,51.5C 38.5,51.1667 39.1667,50.5 39.5,49.5 Z"/></g>
<g><path style="opacity:1" fill="#1a1913" d="M 40.5,51.5 C 46.4877,51.664 47.821,54.164 44.5,59C 39.6325,58.7108 38.2991,56.2108 40.5,51.5 Z"/></g>
<g><path style="opacity:1" fill="#d6d6d6" d="M 41.5,53.5 C 44.9571,53.6672 45.2904,54.6672 42.5,56.5C 41.6143,55.675 41.281,54.675 41.5,53.5 Z"/></g>
<g><path style="opacity:1" fill="#594c27" d="M 47.5,50.5 C 48.9063,50.9731 49.573,51.9731 49.5,53.5C 49.6621,55.5273 49.4955,57.5273 49,59.5C 48.1841,60.8228 47.0174,61.4894 45.5,61.5C 48.635,58.3635 49.3017,54.6969 47.5,50.5 Z"/></g>
<g><path style="opacity:1" fill="#484841" d="M 77.5,58.5 C 78.8333,59.1667 79.8333,60.1667 80.5,61.5C 78.5,61.5 77.5,60.5 77.5,58.5 Z"/></g>
<g><path style="opacity:1" fill="#363224" d="M 38.5,60.5 C 40.7638,61.2186 43.0971,61.552 45.5,61.5C 44.7261,62.1471 43.7261,62.4805 42.5,62.5C 40.6455,62.6598 39.3121,61.9931 38.5,60.5 Z"/></g>
<g><path style="opacity:1" fill="#434035" d="M 89.5,58.5 C 89.4257,60.4109 88.4257,61.5776 86.5,62C 84.2884,62.7891 82.2884,62.6225 80.5,61.5C 84.0034,61.8711 87.0034,60.8711 89.5,58.5 Z"/></g>
<g><path style="opacity:1" fill="#b7cc1f" d="M 5.5,63.5 C 10.5111,63.3341 15.5111,63.5007 20.5,64C 24.5,67.3333 28.5,70.6667 32.5,74C 35.0037,74.6976 37.337,75.5309 39.5,76.5C 30.8527,77.1796 23.8527,74.013 18.5,67C 16.8541,65.5986 15.1875,65.432 13.5,66.5C 13.792,75.5534 16.4587,84.0534 21.5,92C 20.9494,94.3912 21.9494,96.2245 24.5,97.5C 26.9325,101.768 30.2658,105.268 34.5,108C 39.6027,109.717 44.6027,111.717 49.5,114C 55.7457,115.541 62.079,116.541 68.5,117C 64.8333,117.333 61.1667,117.667 57.5,118C 62.4782,119.499 67.4782,119.666 72.5,118.5C 74.9761,118.233 75.6428,118.899 74.5,120.5C 45.3085,124.82 23.8085,113.82 10,87.5C 7.02043,79.7693 5.52043,71.7693 5.5,63.5 Z"/></g>
<g><path style="opacity:1" fill="#d0e722" d="M 121.5,62.5 C 121.866,75.0562 118.533,86.3895 111.5,96.5C 111.5,95.1667 111.5,93.8333 111.5,92.5C 115.412,86.1343 117.245,79.1343 117,71.5C 114.629,76.9948 111.962,82.3281 109,87.5C 107.421,89.0412 105.587,90.2078 103.5,91C 104.167,91.6667 104.833,92.3333 105.5,93C 95.5069,100.831 84.1736,104.997 71.5,105.5C 71.5,104.167 71.5,102.833 71.5,101.5C 72.463,100.637 72.463,99.9698 71.5,99.5C 66.0971,103.423 60.7638,103.423 55.5,99.5C 55.1667,99.6667 54.8333,99.8333 54.5,100C 55.3805,100.708 56.0472,101.542 56.5,102.5C 56.5654,102.938 56.3988,103.272 56,103.5C 54.0247,101.165 51.5247,99.9979 48.5,100C 44.533,98.6081 43.1997,96.1081 44.5,92.5C 44.6102,90.626 43.9436,89.126 42.5,88C 46.5482,84.2838 50.8815,80.9504 55.5,78C 58.0301,76.5783 60.6967,76.245 63.5,77C 72.2683,82.9001 81.6016,83.9001 91.5,80C 94.1064,79.2082 96.1064,77.7082 97.5,75.5C 98.1667,74.1667 99.1667,73.1667 100.5,72.5C 97.0478,80.9376 90.7144,85.6042 81.5,86.5C 74.5953,86.6594 68.262,84.4928 62.5,80C 60.8333,79.3333 59.1667,79.3333 57.5,80C 53.9868,82.5123 51.6535,85.8456 50.5,90C 50.6448,90.772 50.9781,91.4387 51.5,92C 65.6315,93.949 79.2982,92.1156 92.5,86.5C 93.2978,88.0777 93.7978,89.7444 94,91.5C 98.3333,88.5 102.667,85.5 107,82.5C 108.807,76.6083 109.974,70.6083 110.5,64.5C 109.167,64.5 107.833,64.5 106.5,64.5C 105.684,67.1073 104.017,69.1073 101.5,70.5C 101.167,69.8333 100.833,69.1667 100.5,68.5C 100.833,67.8333 101.167,67.1667 101.5,66.5C 102.995,66.0113 104.329,65.3446 105.5,64.5C 110.732,63.7901 116.065,63.1235 121.5,62.5 Z"/></g>
<g><path style="opacity:1" fill="#b7cc1e" d="M 87.5,75.5 C 84.8571,76.6854 82.0237,77.6854 79,78.5C 72.5637,77.5175 66.397,75.8509 60.5,73.5C 56.8513,74.155 53.518,75.655 50.5,78C 48.5273,78.4955 46.5273,78.6621 44.5,78.5C 37.3869,78.8928 30.3869,78.2261 23.5,76.5C 21.561,77.9351 19.8943,77.6018 18.5,75.5C 17.9851,73.7749 17.3184,72.1083 16.5,70.5C 15.3861,71.723 15.2195,73.0563 16,74.5C 18.752,82.2622 21.5853,89.9289 24.5,97.5C 21.9494,96.2245 20.9494,94.3912 21.5,92C 16.4587,84.0534 13.792,75.5534 13.5,66.5C 15.1875,65.432 16.8541,65.5986 18.5,67C 23.8527,74.013 30.8527,77.1796 39.5,76.5C 49.625,76.8547 57.4583,72.8547 63,64.5C 68.7611,73.408 76.9278,77.0747 87.5,75.5 Z"/></g>
<g><path style="opacity:1" fill="#2d3209" d="M 45.5,33.5 C 45.8333,33.5 46.1667,33.5 46.5,33.5C 46.8564,35.1898 47.8564,36.1898 49.5,36.5C 49.0825,37.2216 48.4158,37.7216 47.5,38C 52.2731,39.2824 55.6065,42.1157 57.5,46.5C 56.1667,45.5 54.8333,44.5 53.5,43.5C 52.2511,41.8639 50.5844,40.6972 48.5,40C 43.7613,39.2738 39.0947,39.6071 34.5,41C 32.2968,43.3722 29.9635,45.5389 27.5,47.5C 28.0283,46.1526 28.195,44.8193 28,43.5C 26.6667,45.5 25.3333,47.5 24,49.5C 21.8736,58.2958 24.3736,65.2958 31.5,70.5C 44.0688,75.9206 54.5688,73.254 63,62.5C 65.7792,65.2792 68.6126,68.1126 71.5,71C 77.3267,73.1161 83.3267,73.7828 89.5,73C 93.6821,71.0772 97.6821,68.9106 101.5,66.5C 101.167,67.1667 100.833,67.8333 100.5,68.5C 96.9052,72.1319 92.5719,74.4652 87.5,75.5C 76.9278,77.0747 68.7611,73.408 63,64.5C 57.4583,72.8547 49.625,76.8547 39.5,76.5C 37.337,75.5309 35.0037,74.6976 32.5,74C 28.5,70.6667 24.5,67.3333 20.5,64C 15.5111,63.5007 10.5111,63.3341 5.5,63.5C 5.5,63.1667 5.5,62.8333 5.5,62.5C 10.5111,62.6659 15.5111,62.4993 20.5,62C 21.8198,58.3987 21.8198,54.8987 20.5,51.5C 24.3418,39.3321 32.6752,33.3321 45.5,33.5 Z"/></g>
<g><path style="opacity:1" fill="#cbe221" d="M 111.5,92.5 C 111.657,91.1266 111.49,89.7932 111,88.5C 105.375,97.0859 97.5421,102.919 87.5,106C 74.7562,110.328 62.0895,109.995 49.5,105C 45.0435,103.021 41.2102,100.187 38,96.5C 37.3333,93.1667 37.3333,89.8333 38,86.5C 44.7525,82.54 51.5858,78.7066 58.5,75C 65.5141,77.4927 72.8474,79.326 80.5,80.5C 83.567,80.3934 86.567,79.8934 89.5,79C 92.11,77.5186 94.7766,76.3519 97.5,75.5C 96.1064,77.7082 94.1064,79.2082 91.5,80C 81.6016,83.9001 72.2683,82.9001 63.5,77C 60.6967,76.245 58.0301,76.5783 55.5,78C 50.8815,80.9504 46.5482,84.2838 42.5,88C 43.9436,89.126 44.6102,90.626 44.5,92.5C 43.1997,96.1081 44.533,98.6081 48.5,100C 51.5247,99.9979 54.0247,101.165 56,103.5C 56.3988,103.272 56.5654,102.938 56.5,102.5C 61.7028,105.356 66.7028,105.023 71.5,101.5C 71.5,102.833 71.5,104.167 71.5,105.5C 84.1736,104.997 95.5069,100.831 105.5,93C 104.833,92.3333 104.167,91.6667 103.5,91C 105.587,90.2078 107.421,89.0412 109,87.5C 111.962,82.3281 114.629,76.9948 117,71.5C 117.245,79.1343 115.412,86.1343 111.5,92.5 Z"/></g>
<g><path style="opacity:1" fill="#bed31f" d="M 44.5,78.5 C 39.8157,80.6295 34.8157,82.1295 29.5,83C 27.1965,87.0178 27.0298,91.1845 29,95.5C 47.4625,114.885 68.9625,118.885 93.5,107.5C 94.293,108.355 93.9597,109.189 92.5,110C 94.797,111.16 94.4637,112.16 91.5,113C 92.056,113.383 92.3893,113.883 92.5,114.5C 86.973,117.898 80.973,119.898 74.5,120.5C 75.6428,118.899 74.9761,118.233 72.5,118.5C 67.4782,119.666 62.4782,119.499 57.5,118C 61.1667,117.667 64.8333,117.333 68.5,117C 62.079,116.541 55.7457,115.541 49.5,114C 44.6027,111.717 39.6027,109.717 34.5,108C 30.2658,105.268 26.9325,101.768 24.5,97.5C 21.5853,89.9289 18.752,82.2622 16,74.5C 15.2195,73.0563 15.3861,71.723 16.5,70.5C 17.3184,72.1083 17.9851,73.7749 18.5,75.5C 19.8943,77.6018 21.561,77.9351 23.5,76.5C 30.3869,78.2261 37.3869,78.8928 44.5,78.5 Z"/></g>
<g><path style="opacity:1" fill="#c5db20" d="M 100.5,68.5 C 100.833,69.1667 101.167,69.8333 101.5,70.5C 100.662,70.8417 100.328,71.5084 100.5,72.5C 99.1667,73.1667 98.1667,74.1667 97.5,75.5C 94.7766,76.3519 92.11,77.5186 89.5,79C 86.567,79.8934 83.567,80.3934 80.5,80.5C 72.8474,79.326 65.5141,77.4927 58.5,75C 51.5858,78.7066 44.7525,82.54 38,86.5C 37.3333,89.8333 37.3333,93.1667 38,96.5C 41.2102,100.187 45.0435,103.021 49.5,105C 62.0895,109.995 74.7562,110.328 87.5,106C 97.5421,102.919 105.375,97.0859 111,88.5C 111.49,89.7932 111.657,91.1266 111.5,92.5C 111.5,93.8333 111.5,95.1667 111.5,96.5C 106.455,103.879 100.122,109.879 92.5,114.5C 92.3893,113.883 92.056,113.383 91.5,113C 94.4637,112.16 94.797,111.16 92.5,110C 93.9597,109.189 94.293,108.355 93.5,107.5C 68.9625,118.885 47.4625,114.885 29,95.5C 27.0298,91.1845 27.1965,87.0178 29.5,83C 34.8157,82.1295 39.8157,80.6295 44.5,78.5C 46.5273,78.6621 48.5273,78.4955 50.5,78C 53.518,75.655 56.8513,74.155 60.5,73.5C 66.397,75.8509 72.5637,77.5175 79,78.5C 82.0237,77.6854 84.8571,76.6854 87.5,75.5C 92.5719,74.4652 96.9052,72.1319 100.5,68.5 Z"/></g>
<g><path style="opacity:1" fill="#d7f023" d="M 100.5,72.5 C 100.328,71.5084 100.662,70.8417 101.5,70.5C 104.017,69.1073 105.684,67.1073 106.5,64.5C 107.833,64.5 109.167,64.5 110.5,64.5C 109.974,70.6083 108.807,76.6083 107,82.5C 102.667,85.5 98.3333,88.5 94,91.5C 93.7978,89.7444 93.2978,88.0777 92.5,86.5C 79.2982,92.1156 65.6315,93.949 51.5,92C 50.9781,91.4387 50.6448,90.772 50.5,90C 51.6535,85.8456 53.9868,82.5123 57.5,80C 59.1667,79.3333 60.8333,79.3333 62.5,80C 68.262,84.4928 74.5953,86.6594 81.5,86.5C 90.7144,85.6042 97.0478,80.9376 100.5,72.5 Z"/></g>
<g><path style="opacity:1" fill="#1d1e0a" d="M 71.5,101.5 C 66.7028,105.023 61.7028,105.356 56.5,102.5C 56.0472,101.542 55.3805,100.708 54.5,100C 54.8333,99.8333 55.1667,99.6667 55.5,99.5C 60.7638,103.423 66.0971,103.423 71.5,99.5C 72.463,99.9698 72.463,100.637 71.5,101.5 Z"/></g>
</svg>
