<?xml version="1.0" encoding="UTF-8"?>
<!DOCTYPE svg PUBLIC "-//W3C//DTD SVG 1.1//EN" "http://www.w3.org/Graphics/SVG/1.1/DTD/svg11.dtd">
<svg xmlns="http://www.w3.org/2000/svg" version="1.1" width="128px" height="128px" style="shape-rendering:geometricPrecision; text-rendering:geometricPrecision; image-rendering:optimizeQuality; fill-rule:evenodd; clip-rule:evenodd" xmlns:xlink="http://www.w3.org/1999/xlink">
<g><path style="opacity:1" fill="#ba312c" d="M 54.5,1.5 C 92.5689,-0.0624953 116.069,17.6042 125,54.5C 127.676,85.3234 115.176,107.49 87.5,121C 50.9805,132.278 23.8138,121.111 6,87.5C -4.48994,55.3041 4.01006,29.4707 31.5,10C 38.8801,6.04395 46.5468,3.21062 54.5,1.5 Z"/></g>
<g><path style="opacity:1" fill="#fbdd0a" d="M 74.5,51.5 C 72.3276,55.3084 70.3276,59.3084 68.5,63.5C 71.1071,64.3184 73.7737,64.8184 76.5,65C 68.2221,73.7663 60.5554,82.9329 53.5,92.5C 50.1184,95.5675 46.9517,98.9008 44,102.5C 48.1704,88.8211 52.6704,75.1544 57.5,61.5C 58.404,60.791 58.7373,59.791 58.5,58.5C 54.8333,58.5 51.1667,58.5 47.5,58.5C 47.0618,58.5654 46.7284,58.3988 46.5,58C 60.0325,44.7992 73.8659,31.9659 88,19.5C 83.6313,30.0723 79.1313,40.739 74.5,51.5 Z"/></g>
<g><path style="opacity:1" fill="#301d18" d="M 47.5,58.5 C 51.1667,58.5 54.8333,58.5 58.5,58.5C 58.7373,59.791 58.404,60.791 57.5,61.5C 54.8127,61.6641 52.146,61.4974 49.5,61C 48.244,60.5831 47.5774,59.7498 47.5,58.5 Z"/></g>
<g><path style="opacity:1" fill="#201616" d="M 74.5,51.5 C 74.7609,55.342 74.0942,59.0087 72.5,62.5C 76.1667,63.1667 79.8333,63.8333 83.5,64.5C 73.1523,73.5162 63.1523,82.8495 53.5,92.5C 60.5554,82.9329 68.2221,73.7663 76.5,65C 73.7737,64.8184 71.1071,64.3184 68.5,63.5C 70.3276,59.3084 72.3276,55.3084 74.5,51.5 Z"/></g>
</svg>
