<?xml version="1.0" encoding="utf-8"?>
<!-- Generator: Adobe Illustrator 26.0.3, SVG Export Plug-In . SVG Version: 6.00 Build 0)  -->
<svg version="1.1" id="Layer_1" xmlns="http://www.w3.org/2000/svg" xmlns:xlink="http://www.w3.org/1999/xlink" x="0px" y="0px"
	 viewBox="0 0 96 96" style="enable-background:new 0 0 96 96;" xml:space="preserve">
<style type="text/css">
	.st0{fill-rule:evenodd;clip-rule:evenodd;fill:#D2225B;}
	.st1{fill-rule:evenodd;clip-rule:evenodd;fill:#FDFBFC;}
	.st2{opacity:0.745;fill-rule:evenodd;clip-rule:evenodd;fill:#561326;enable-background:new    ;}
	.st3{opacity:0.369;fill-rule:evenodd;clip-rule:evenodd;fill:#4F1023;enable-background:new    ;}
	.st4{opacity:0.392;fill-rule:evenodd;clip-rule:evenodd;fill:#531024;enable-background:new    ;}
	.st5{fill-rule:evenodd;clip-rule:evenodd;fill:#191A18;}
	.st6{fill-rule:evenodd;clip-rule:evenodd;fill:#E7E7E7;}
	.st7{fill-rule:evenodd;clip-rule:evenodd;fill:#E7E7E6;}
	.st8{fill-rule:evenodd;clip-rule:evenodd;fill:#1B1B1A;}
	.st9{fill-rule:evenodd;clip-rule:evenodd;fill:#191919;}
	.st10{opacity:0.737;fill-rule:evenodd;clip-rule:evenodd;fill:#4A1221;enable-background:new    ;}
</style>
<g>
	<path class="st0" d="M37.5-0.5c6.7,0,13.3,0,20,0c11.6,2.5,20.9,8.5,28,18c-0.1,1.5,0.6,2.5,2,3c-0.1,1.5,0.6,2.5,2,3
		c2.6,4.4,4.6,9.1,6,14c0,6.7,0,13.3,0,20c-5.7,19.7-18.3,32.3-38,38c-6.7,0-13.3,0-20,0c-3.2-1.2-6.5-2.4-10-3.5
		c-2.7-1-5.1-2.5-7-4.5c-0.5-1.4-1.5-2.1-3-2C8,78.4,2,69.1-0.5,57.5c0-6.7,0-13.3,0-20c1.4-4.9,3.4-9.6,6-14c1.4-0.5,2.1-1.5,2-3
		C14.8,9.5,24.8,2.5,37.5-0.5z"/>
</g>
<g>
	<path class="st1" d="M44.5,4.5c4.7-0.2,8.7,1.3,12,4.5c4.5,0.1,8.8,0.8,13,2c3.4,2.3,5.1,5.5,5,9.5c9.5,1.7,13.2,7.2,11,16.5
		c6.7,7,6.7,14,0,21c2.4,9.7-1.3,15.2-11,16.5c-1.3,9.8-6.8,13.4-16.5,11c-7,6.6-14,6.6-21,0c-8.9,2.4-14.6-1-17-10
		C10.7,73.1,7.2,67.3,9.5,58C3,51,3,44,9.5,37c-2.2-9.3,1.5-14.8,11-16.5c0-4.6,2-8.1,6-10.5C33.5,10.8,39.5,9,44.5,4.5z"/>
</g>
<g>
	<path class="st2" d="M85.5,17.5c1.4,0.5,2.1,1.5,2,3C86.1,20,85.4,19,85.5,17.5z"/>
</g>
<g>
	<path class="st3" d="M7.5,20.5c0.1,1.5-0.6,2.5-2,3C5.4,22,6.1,21,7.5,20.5z"/>
</g>
<g>
	<path class="st4" d="M87.5,20.5c1.4,0.5,2.1,1.5,2,3C88.1,23,87.4,22,87.5,20.5z"/>
</g>
<g>
	<path class="st5" d="M37.5,33.5c2.1,1.2,4.1,2.7,6,4.5c5.4,1.3,9.7-0.2,13-4.5c2.8,2.3,5.5,4.8,8,7.5c1.2,0.8,2.6,1.3,4,1.5
		c2.2-0.9,4.2-2.2,6-4c1,0.3,1.7,1,2,2c-1.9,3-4.6,5-8,6c-3.8,14-12.8,20.2-27,18.5c-7.7-3.9-12.7-10.1-15-18.5
		c-3.5-0.8-6.2-2.8-8-6c0.3-1,1-1.7,2-2c1.5,1,2.8,2.1,4,3.5c1.3,0.7,2.7,0.7,4,0C32,39.7,35,36.8,37.5,33.5z"/>
</g>
<g>
	<path class="st6" d="M37.5,42.5c6.7,0.6,8.4,3.7,5,9.5c-6,1.7-8.5-0.5-7.5-6.5C35.7,44.3,36.5,43.3,37.5,42.5z"/>
</g>
<g>
	<path class="st7" d="M53.5,42.5c6.8,0.5,8.5,3.7,5,9.5c-4.6,1.7-7.2,0.2-8-4.5C51.1,45.6,52.1,43.9,53.5,42.5z"/>
</g>
<g>
	<path class="st8" d="M37.5,46.5c1,0,2,0,3,0C39.8,50.3,38.8,50.3,37.5,46.5z"/>
</g>
<g>
	<path class="st9" d="M54.5,46.5c3.5,0.2,3.8,1.2,1,3C54.6,48.7,54.3,47.7,54.5,46.5z"/>
</g>
<g>
	<path class="st10" d="M17.5,85.5c1.5-0.1,2.5,0.6,3,2C19,87.6,18,86.9,17.5,85.5z"/>
</g>
</svg>
