<?xml version="1.0" encoding="UTF-8"?>
<!DOCTYPE svg PUBLIC "-//W3C//DTD SVG 1.1//EN" "http://www.w3.org/Graphics/SVG/1.1/DTD/svg11.dtd">
<svg xmlns="http://www.w3.org/2000/svg" version="1.1" width="96px" height="96px" style="shape-rendering:geometricPrecision; text-rendering:geometricPrecision; image-rendering:optimizeQuality; fill-rule:evenodd; clip-rule:evenodd" xmlns:xlink="http://www.w3.org/1999/xlink">
<g><path style="opacity:1" fill="#d2225b" d="M 37.5,-0.5 C 44.1667,-0.5 50.8333,-0.5 57.5,-0.5C 69.0667,1.95434 78.4,7.95434 85.5,17.5C 85.427,19.0269 86.0937,20.0269 87.5,20.5C 87.427,22.0269 88.0937,23.0269 89.5,23.5C 92.0871,27.9319 94.0871,32.5985 95.5,37.5C 95.5,44.1667 95.5,50.8333 95.5,57.5C 89.8333,77.1667 77.1667,89.8333 57.5,95.5C 50.8333,95.5 44.1667,95.5 37.5,95.5C 34.3133,94.2692 30.98,93.1026 27.5,92C 24.7613,90.9741 22.428,89.4741 20.5,87.5C 20.0269,86.0937 19.0269,85.427 17.5,85.5C 7.95434,78.4 1.95434,69.0667 -0.5,57.5C -0.5,50.8333 -0.5,44.1667 -0.5,37.5C 0.912943,32.5985 2.91294,27.9319 5.5,23.5C 6.90632,23.0269 7.57298,22.0269 7.5,20.5C 14.7809,9.54297 24.7809,2.54297 37.5,-0.5 Z"/></g>
<g><path style="opacity:1" fill="#fdfbfc" d="M 44.5,4.5 C 49.1542,4.32824 53.1542,5.82824 56.5,9C 60.9508,9.12976 65.2841,9.79642 69.5,11C 72.8922,13.2854 74.5589,16.452 74.5,20.5C 83.9882,22.1502 87.6548,27.6502 85.5,37C 92.1634,44.0116 92.1634,51.0116 85.5,58C 87.9028,67.7196 84.2362,73.2196 74.5,74.5C 73.1553,84.2623 67.6553,87.929 58,85.5C 50.9673,92.0794 43.9673,92.0794 37,85.5C 28.0674,87.8634 22.4007,84.5301 20,75.5C 10.74,73.1493 7.24001,67.316 9.5,58C 2.96285,50.9888 2.96285,43.9888 9.5,37C 7.34518,27.6502 11.0118,22.1502 20.5,20.5C 20.55,15.9359 22.55,12.4359 26.5,10C 33.5094,10.7883 39.5094,8.95495 44.5,4.5 Z"/></g>
<g><path style="opacity:0.745" fill="#561326" d="M 85.5,17.5 C 86.9063,17.9731 87.573,18.9731 87.5,20.5C 86.0937,20.0269 85.427,19.0269 85.5,17.5 Z"/></g>
<g><path style="opacity:0.369" fill="#4f1023" d="M 7.5,20.5 C 7.57298,22.0269 6.90632,23.0269 5.5,23.5C 5.42702,21.9731 6.09368,20.9731 7.5,20.5 Z"/></g>
<g><path style="opacity:0.392" fill="#531024" d="M 87.5,20.5 C 88.9063,20.9731 89.573,21.9731 89.5,23.5C 88.0937,23.0269 87.427,22.0269 87.5,20.5 Z"/></g>
<g><path style="opacity:1" fill="#191a18" d="M 37.5,33.5 C 39.5805,34.7273 41.5805,36.2273 43.5,38C 48.8512,39.3197 53.1845,37.8197 56.5,33.5C 59.3174,35.8167 61.9841,38.3167 64.5,41C 65.7287,41.7811 67.062,42.2811 68.5,42.5C 70.7475,41.5944 72.7475,40.2611 74.5,38.5C 75.5,38.8333 76.1667,39.5 76.5,40.5C 74.5777,43.4643 71.9111,45.4643 68.5,46.5C 64.6874,60.5086 55.6874,66.6753 41.5,65C 33.7519,61.083 28.7519,54.9164 26.5,46.5C 22.9867,45.6564 20.3201,43.6564 18.5,40.5C 18.8333,39.5 19.5,38.8333 20.5,38.5C 21.9814,39.4803 23.3147,40.647 24.5,42C 25.8333,42.6667 27.1667,42.6667 28.5,42C 32,39.6658 35,36.8325 37.5,33.5 Z"/></g>
<g><path style="opacity:1" fill="#e7e7e7" d="M 37.5,42.5 C 44.2383,43.0611 45.9049,46.2278 42.5,52C 36.5069,53.6683 34.0069,51.5017 35,45.5C 35.6979,44.3094 36.5313,43.3094 37.5,42.5 Z"/></g>
<g><path style="opacity:1" fill="#e7e7e6" d="M 53.5,42.5 C 60.3407,43.0158 62.0074,46.1825 58.5,52C 53.9322,53.6505 51.2656,52.1505 50.5,47.5C 51.0924,45.5775 52.0924,43.9108 53.5,42.5 Z"/></g>
<g><path style="opacity:1" fill="#1b1b1a" d="M 37.5,46.5 C 38.5,46.5 39.5,46.5 40.5,46.5C 39.7542,50.31 38.7542,50.31 37.5,46.5 Z"/></g>
<g><path style="opacity:1" fill="#191919" d="M 54.5,46.5 C 57.9571,46.6672 58.2904,47.6672 55.5,49.5C 54.6143,48.675 54.281,47.675 54.5,46.5 Z"/></g>
<g><path style="opacity:0.737" fill="#4a1221" d="M 17.5,85.5 C 19.0269,85.427 20.0269,86.0937 20.5,87.5C 18.9731,87.573 17.9731,86.9063 17.5,85.5 Z"/></g>
</svg>
