<?xml version="1.0" encoding="UTF-8"?>
<!DOCTYPE svg PUBLIC "-//W3C//DTD SVG 1.1//EN" "http://www.w3.org/Graphics/SVG/1.1/DTD/svg11.dtd">
<svg xmlns="http://www.w3.org/2000/svg" version="1.1" width="128px" height="128px" style="shape-rendering:geometricPrecision; text-rendering:geometricPrecision; image-rendering:optimizeQuality; fill-rule:evenodd; clip-rule:evenodd" xmlns:xlink="http://www.w3.org/1999/xlink">
<g><path style="opacity:1" fill="#f0de89" d="M 74.5,4.5 C 75.842,5.79305 77.5087,6.62638 79.5,7C 80.7383,7.68999 80.7383,8.18999 79.5,8.5C 76.4824,8.29619 73.4824,7.96286 70.5,7.5C 68.0221,6.83588 65.3555,6.50255 62.5,6.5C 58.5313,6.29416 54.8646,6.96082 51.5,8.5C 37.776,11.1966 26.776,18.1966 18.5,29.5C 13.0529,35.8286 9.71956,43.1619 8.5,51.5C 7.65859,53.3792 7.32526,55.3792 7.5,57.5C 6.88258,57.6107 6.38258,57.944 6,58.5C 5.50051,64.4908 5.33385,70.4908 5.5,76.5C 2.88387,67.8383 2.88387,59.1716 5.5,50.5C 8.45587,45.6457 10.4559,40.3124 11.5,34.5C 11.427,32.9731 12.0937,31.9731 13.5,31.5C 24.0696,18.6293 37.4029,9.62931 53.5,4.5C 60.4696,3.20035 67.4696,3.20035 74.5,4.5 Z"/></g>
<g><path style="opacity:1" fill="#8e5b19" d="M 70.5,7.5 C 64.1308,7.34698 57.7974,7.68031 51.5,8.5C 54.8646,6.96082 58.5313,6.29416 62.5,6.5C 65.3555,6.50255 68.0221,6.83588 70.5,7.5 Z"/></g>
<g><path style="opacity:1" fill="#f3da80" d="M 74.5,11.5 C 67.6457,11.176 60.979,11.5093 54.5,12.5C 53.1667,12.8333 51.8333,13.1667 50.5,13.5C 48.8828,14.038 47.2161,14.3713 45.5,14.5C 48.0791,12.9748 50.7458,11.6414 53.5,10.5C 56.3138,9.83533 59.3138,9.50199 62.5,9.5C 66.7968,9.27831 70.7968,9.94498 74.5,11.5 Z"/></g>
<g><path style="opacity:1" fill="#c39139" d="M 54.5,12.5 C 60.979,11.5093 67.6457,11.176 74.5,11.5C 75.8333,11.5 77.1667,11.5 78.5,11.5C 80.0188,12.4098 81.6854,13.2432 83.5,14C 82.9747,14.6924 82.3081,15.1924 81.5,15.5C 78.9302,14.3657 76.2635,13.5323 73.5,13C 67.1754,12.5005 60.8421,12.3338 54.5,12.5 Z"/></g>
<g><path style="opacity:1" fill="#e7daa5" d="M 53.5,10.5 C 50.7458,11.6414 48.0791,12.9748 45.5,14.5C 45.1583,15.3382 44.4916,15.6716 43.5,15.5C 40.5944,15.9565 37.9278,16.9565 35.5,18.5C 40.4648,13.7253 46.4648,11.0586 53.5,10.5 Z"/></g>
<g><path style="opacity:1" fill="#f6e181" d="M 52.5,14.5 C 58.8421,14.3338 65.1754,14.5005 71.5,15C 73.0581,15.21 74.3915,15.71 75.5,16.5C 68.3134,16.1755 61.3134,16.5088 54.5,17.5C 45.5467,19.1424 37.88,23.1424 31.5,29.5C 31.8588,27.629 32.8588,26.129 34.5,25C 40.1503,21.01 46.1503,17.8433 52.5,15.5C 52.5,15.1667 52.5,14.8333 52.5,14.5 Z"/></g>
<g><path style="opacity:1" fill="#251e1b" d="M 79.5,9.5 C 93.1062,13.6308 103.773,21.6308 111.5,33.5C 112.773,35.7128 113.773,38.0462 114.5,40.5C 113.662,40.8417 113.328,41.5084 113.5,42.5C 112.176,41.1501 111.176,41.3167 110.5,43C 110.836,44.0299 111.503,44.5299 112.5,44.5C 111.833,45.5 111.167,46.5 110.5,47.5C 104.155,31.1554 92.4888,20.822 75.5,16.5C 74.3915,15.71 73.0581,15.21 71.5,15C 65.1754,14.5005 58.8421,14.3338 52.5,14.5C 51.5084,14.6716 50.8417,14.3382 50.5,13.5C 51.8333,13.1667 53.1667,12.8333 54.5,12.5C 60.8421,12.3338 67.1754,12.5005 73.5,13C 76.2635,13.5323 78.9302,14.3657 81.5,15.5C 82.3081,15.1924 82.9747,14.6924 83.5,14C 81.6854,13.2432 80.0188,12.4098 78.5,11.5C 77.7375,10.7321 76.7375,10.2321 75.5,10C 76.7932,9.50999 78.1266,9.34332 79.5,9.5 Z"/></g>
<g><path style="opacity:1" fill="#b88339" d="M 84.5,14.5 C 86.9124,14.244 88.5791,15.244 89.5,17.5C 86.6878,18.7195 85.0211,17.7195 84.5,14.5 Z"/></g>
<g><path style="opacity:1" fill="#171315" d="M 54.5,17.5 C 69.2924,15.5112 82.2924,19.1779 93.5,28.5C 88.4908,27.4429 83.4908,26.2762 78.5,25C 74.8248,20.0256 69.8248,18.1923 63.5,19.5C 60.1667,19.6667 56.8333,19.8333 53.5,20C 47.0654,22.7499 40.7321,25.5832 34.5,28.5C 33.0856,33.1013 30.5856,37.1013 27,40.5C 26.187,42.4357 25.687,44.4357 25.5,46.5C 22.9642,52.906 21.9642,59.5727 22.5,66.5C 21.7513,62.9464 20.918,59.2797 20,55.5C 19.214,63.9236 19.714,72.2569 21.5,80.5C 17.9889,73.707 16.6556,66.3737 17.5,58.5C 18.0323,50.3582 20.699,43.0249 25.5,36.5C 25.5,36.1667 25.5,35.8333 25.5,35.5C 27.5,34.1667 29.1667,32.5 30.5,30.5C 31.1667,30.5 31.5,30.1667 31.5,29.5C 37.88,23.1424 45.5467,19.1424 54.5,17.5 Z"/></g>
<g><path style="opacity:1" fill="#e1d3a9" d="M 53.5,4.5 C 37.4029,9.62931 24.0696,18.6293 13.5,31.5C 22.6958,16.5551 36.0292,7.55507 53.5,4.5 Z"/></g>
<g><path style="opacity:1" fill="#c79644" d="M 92.5,19.5 C 93.5,19.5 94.5,19.5 95.5,19.5C 95.5,20.5 95.5,21.5 95.5,22.5C 94.5,22.5 93.5,22.5 92.5,22.5C 92.5,21.5 92.5,20.5 92.5,19.5 Z"/></g>
<g><path style="opacity:1" fill="#ddb65a" d="M 74.5,4.5 C 90.3055,7.23085 102.639,15.2309 111.5,28.5C 112.833,30.1667 112.833,31.8333 111.5,33.5C 103.773,21.6308 93.1062,13.6308 79.5,9.5C 79.5,9.16667 79.5,8.83333 79.5,8.5C 80.7383,8.18999 80.7383,7.68999 79.5,7C 77.5087,6.62638 75.842,5.79305 74.5,4.5 Z"/></g>
<g><path style="opacity:1" fill="#2d261f" d="M 93.5,28.5 C 94.1667,28.5 94.5,28.8333 94.5,29.5C 92.8958,30.287 92.2291,31.6203 92.5,33.5C 92.7947,35.7354 92.4614,37.7354 91.5,39.5C 91.5,36.8333 91.5,34.1667 91.5,31.5C 91.3893,30.8826 91.056,30.3826 90.5,30C 84.8431,29.5006 79.1764,29.3339 73.5,29.5C 73.8016,26.9407 73.4682,24.6074 72.5,22.5C 65.674,19.6477 63.0073,21.981 64.5,29.5C 63.5,29.5 62.5,29.5 61.5,29.5C 61.5,27.5 61.5,25.5 61.5,23.5C 61.5,23.1667 61.5,22.8333 61.5,22.5C 59.0521,21.5269 56.3854,21.1936 53.5,21.5C 53.5,24.1667 53.5,26.8333 53.5,29.5C 47.8236,29.3339 42.1569,29.5006 36.5,30C 35.1771,34.5999 35.1771,39.0999 36.5,43.5C 36.5,43.8333 36.5,44.1667 36.5,44.5C 34.4977,43.0049 32.4977,42.3382 30.5,42.5C 31.9687,40.8947 31.6354,40.3947 29.5,41C 28.0229,42.8121 26.6896,44.6455 25.5,46.5C 25.687,44.4357 26.187,42.4357 27,40.5C 30.5856,37.1013 33.0856,33.1013 34.5,28.5C 40.7321,25.5832 47.0654,22.7499 53.5,20C 56.8333,19.8333 60.1667,19.6667 63.5,19.5C 69.8248,18.1923 74.8248,20.0256 78.5,25C 83.4908,26.2762 88.4908,27.4429 93.5,28.5 Z"/></g>
<g><path style="opacity:1" fill="#dad6b9" d="M 72.5,22.5 C 66.0951,21.4062 63.7618,24.0729 65.5,30.5C 63.2326,30.8545 61.8993,30.5211 61.5,29.5C 62.5,29.5 63.5,29.5 64.5,29.5C 63.0073,21.981 65.674,19.6477 72.5,22.5 Z"/></g>
<g><path style="opacity:1" fill="#c3a053" d="M 97.5,23.5 C 98.5,23.5 99.5,23.5 100.5,23.5C 100.5,24.5 100.5,25.5 100.5,26.5C 99.5,26.5 98.5,26.5 97.5,26.5C 97.5,25.5 97.5,24.5 97.5,23.5 Z"/></g>
<g><path style="opacity:1" fill="#3d291b" d="M 70.5,7.5 C 73.4824,7.96286 76.4824,8.29619 79.5,8.5C 79.5,8.83333 79.5,9.16667 79.5,9.5C 78.1266,9.34332 76.7932,9.50999 75.5,10C 76.7375,10.2321 77.7375,10.7321 78.5,11.5C 77.1667,11.5 75.8333,11.5 74.5,11.5C 70.7968,9.94498 66.7968,9.27831 62.5,9.5C 59.3138,9.50199 56.3138,9.83533 53.5,10.5C 46.4648,11.0586 40.4648,13.7253 35.5,18.5C 36.2506,19.5735 37.2506,19.7401 38.5,19C 40.2331,17.8111 41.8998,16.6444 43.5,15.5C 44.4916,15.6716 45.1583,15.3382 45.5,14.5C 47.2161,14.3713 48.8828,14.038 50.5,13.5C 50.8417,14.3382 51.5084,14.6716 52.5,14.5C 52.5,14.8333 52.5,15.1667 52.5,15.5C 40.1049,18.5597 30.1049,25.2263 22.5,35.5C 21.3991,34.4017 20.0657,34.235 18.5,35C 19.056,35.3826 19.3893,35.8826 19.5,36.5C 18.5,36.5 17.5,36.5 16.5,36.5C 16.7376,34.5956 17.7376,33.2623 19.5,32.5C 19.7373,31.209 19.404,30.209 18.5,29.5C 26.776,18.1966 37.776,11.1966 51.5,8.5C 57.7974,7.68031 64.1308,7.34698 70.5,7.5 Z"/></g>
<g><path style="opacity:1" fill="#cca157" d="M 26.5,23.5 C 27.5,23.5 28.5,23.5 29.5,23.5C 29.5,24.5 29.5,25.5 29.5,26.5C 28.5,26.5 27.5,26.5 26.5,26.5C 26.5,25.5 26.5,24.5 26.5,23.5 Z"/></g>
<g><path style="opacity:1" fill="#e7cf7b" d="M 29.5,20.5 C 30.675,20.281 31.675,20.6143 32.5,21.5C 30.9483,22.7979 29.9483,22.4646 29.5,20.5 Z"/></g>
<g><path style="opacity:1" fill="#dba540" d="M 43.5,15.5 C 41.8998,16.6444 40.2331,17.8111 38.5,19C 37.2506,19.7401 36.2506,19.5735 35.5,18.5C 37.9278,16.9565 40.5944,15.9565 43.5,15.5 Z"/></g>
<g><path style="opacity:1" fill="#ce9540" d="M 54.5,17.5 C 61.3134,16.5088 68.3134,16.1755 75.5,16.5C 92.4888,20.822 104.155,31.1554 110.5,47.5C 112.591,55.1042 112.924,62.7709 111.5,70.5C 110.833,70.8333 110.167,71.1667 109.5,71.5C 110.858,57.9307 107.691,45.5974 100,34.5C 98.2962,32.6266 96.4628,30.9599 94.5,29.5C 94.5,28.8333 94.1667,28.5 93.5,28.5C 82.2924,19.1779 69.2924,15.5112 54.5,17.5 Z"/></g>
<g><path style="opacity:1" fill="#eae1ba" d="M 52.5,15.5 C 46.1503,17.8433 40.1503,21.01 34.5,25C 32.8588,26.129 31.8588,27.629 31.5,29.5C 31.5,30.1667 31.1667,30.5 30.5,30.5C 27.8333,31.1667 26.1667,32.8333 25.5,35.5C 25.5,35.8333 25.5,36.1667 25.5,36.5C 24.5041,36.4142 23.6708,36.7476 23,37.5C 20.1885,42.808 17.6885,48.1414 15.5,53.5C 16.7105,47.0765 19.0438,41.0765 22.5,35.5C 30.1049,25.2263 40.1049,18.5597 52.5,15.5 Z"/></g>
<g><path style="opacity:1" fill="#dbd8c8" d="M 61.5,22.5 C 59.1667,22.5 56.8333,22.5 54.5,22.5C 54.5,25.1667 54.5,27.8333 54.5,30.5C 48.8236,30.3339 43.1569,30.5006 37.5,31C 36.5399,34.73 36.2065,38.5633 36.5,42.5C 36.5,42.8333 36.5,43.1667 36.5,43.5C 35.1771,39.0999 35.1771,34.5999 36.5,30C 42.1569,29.5006 47.8236,29.3339 53.5,29.5C 53.5,26.8333 53.5,24.1667 53.5,21.5C 56.3854,21.1936 59.0521,21.5269 61.5,22.5 Z"/></g>
<g><path style="opacity:1" fill="#e5d992" d="M 19.5,32.5 C 20.5964,30.8968 21.9297,29.3968 23.5,28C 24.3317,27.3123 24.9984,27.479 25.5,28.5C 24.3523,30.1487 23.019,31.6487 21.5,33C 20.5632,33.6917 19.8966,33.525 19.5,32.5 Z"/></g>
<g><path style="opacity:1" fill="#f9e27d" d="M 72.5,22.5 C 73.4682,24.6074 73.8016,26.9407 73.5,29.5C 79.1764,29.3339 84.8431,29.5006 90.5,30C 91.056,30.3826 91.3893,30.8826 91.5,31.5C 91.1667,31.5 90.8333,31.5 90.5,31.5C 85.0487,30.779 80.2153,32.1123 76,35.5C 74.187,34.3909 73.3537,35.0576 73.5,37.5C 71.54,38.1383 69.7067,38.1383 68,37.5C 66.513,38.2529 66.3463,39.0862 67.5,40C 66.8333,40.3333 66.1667,40.6667 65.5,41C 67.0581,41.21 68.3915,41.71 69.5,42.5C 68.8333,42.5 68.1667,42.5 67.5,42.5C 62.8333,42.5 58.1667,42.5 53.5,42.5C 52.0484,41.6981 50.3817,41.1981 48.5,41C 50.359,40.3161 52.0257,39.3161 53.5,38C 55.4397,35.342 57.4397,32.6753 59.5,30C 56.0458,29.7071 55.7124,28.3738 58.5,26C 57.6721,25.0853 56.6721,24.4186 55.5,24C 57.4727,23.5045 59.4727,23.3379 61.5,23.5C 61.5,25.5 61.5,27.5 61.5,29.5C 61.8993,30.5211 63.2326,30.8545 65.5,30.5C 63.7618,24.0729 66.0951,21.4062 72.5,22.5 Z"/></g>
<g><path style="opacity:1" fill="#c98438" d="M 101.5,27.5 C 105.314,28.602 106.98,30.9353 106.5,34.5C 104.09,32.6737 102.423,30.3404 101.5,27.5 Z"/></g>
<g><path style="opacity:1" fill="#e4bf56" d="M 30.5,30.5 C 29.1667,32.5 27.5,34.1667 25.5,35.5C 26.1667,32.8333 27.8333,31.1667 30.5,30.5 Z"/></g>
<g><path style="opacity:1" fill="#feef8c" d="M 61.5,22.5 C 61.5,22.8333 61.5,23.1667 61.5,23.5C 59.4727,23.3379 57.4727,23.5045 55.5,24C 56.6721,24.4186 57.6721,25.0853 58.5,26C 55.7124,28.3738 56.0458,29.7071 59.5,30C 57.4397,32.6753 55.4397,35.342 53.5,38C 52.0257,39.3161 50.359,40.3161 48.5,41C 50.3817,41.1981 52.0484,41.6981 53.5,42.5C 47.8333,42.5 42.1667,42.5 36.5,42.5C 36.2065,38.5633 36.5399,34.73 37.5,31C 43.1569,30.5006 48.8236,30.3339 54.5,30.5C 54.5,27.8333 54.5,25.1667 54.5,22.5C 56.8333,22.5 59.1667,22.5 61.5,22.5 Z"/></g>
<g><path style="opacity:1" fill="#df9b40" d="M 107.5,36.5 C 110.548,36.494 111.048,37.494 109,39.5C 107.961,38.7562 107.461,37.7562 107.5,36.5 Z"/></g>
<g><path style="opacity:1" fill="#181112" d="M 92.5,33.5 C 94.5,34.976 96.1666,36.8094 97.5,39C 96.5842,39.2784 95.9175,39.7784 95.5,40.5C 96.9166,43.669 98.5832,46.669 100.5,49.5C 103.902,61.5016 102.568,72.8349 96.5,83.5C 96.2178,82.2223 95.5511,81.2223 94.5,80.5C 97.3276,79.146 98.8276,76.8127 99,73.5C 100.652,66.848 100.818,60.1814 99.5,53.5C 98.5798,50.492 97.2465,47.6587 95.5,45C 94.6683,44.3123 94.0016,44.479 93.5,45.5C 94.6076,48.0591 95.9409,50.3924 97.5,52.5C 99.017,60.2577 98.6837,67.9244 96.5,75.5C 95.2905,75.0679 94.2905,74.4013 93.5,73.5C 90.3623,74.6813 87.3623,74.6813 84.5,73.5C 87.8515,70.9594 89.5182,67.4594 89.5,63C 89.4347,60.4088 88.9347,57.9088 88,55.5C 87.3292,54.7476 86.4959,54.4142 85.5,54.5C 85.5299,53.5028 85.0299,52.8361 84,52.5C 81.6492,54.5186 79.6492,56.8519 78,59.5C 77.6174,58.944 77.1174,58.6107 76.5,58.5C 81.2591,51.9849 86.2591,45.6515 91.5,39.5C 92.4614,37.7354 92.7947,35.7354 92.5,33.5 Z"/></g>
<g><path style="opacity:1" fill="#daca97" d="M 11.5,34.5 C 10.4559,40.3124 8.45587,45.6457 5.5,50.5C 6.13817,44.5769 8.13817,39.2436 11.5,34.5 Z"/></g>
<g><path style="opacity:1" fill="#17191d" d="M 94.5,29.5 C 96.4628,30.9599 98.2962,32.6266 100,34.5C 107.691,45.5974 110.858,57.9307 109.5,71.5C 109.167,71.5 108.833,71.5 108.5,71.5C 108.82,68.1016 108.487,64.7683 107.5,61.5C 106.989,59.1161 105.989,57.1161 104.5,55.5C 103.691,53.9724 103.024,52.3057 102.5,50.5C 101.62,47.7378 100.454,45.0711 99,42.5C 98.1841,41.1772 97.0174,40.5106 95.5,40.5C 95.9175,39.7784 96.5842,39.2784 97.5,39C 96.1666,36.8094 94.5,34.976 92.5,33.5C 92.2291,31.6203 92.8958,30.287 94.5,29.5 Z"/></g>
<g><path style="opacity:1" fill="#322820" d="M 18.5,29.5 C 19.404,30.209 19.7373,31.209 19.5,32.5C 17.7376,33.2623 16.7376,34.5956 16.5,36.5C 17.5,39.1667 18.5,39.1667 19.5,36.5C 19.3893,35.8826 19.056,35.3826 18.5,35C 20.0657,34.235 21.3991,34.4017 22.5,35.5C 19.0438,41.0765 16.7105,47.0765 15.5,53.5C 15.5,54.1667 15.1667,54.5 14.5,54.5C 14.5,53.1667 14.5,51.8333 14.5,50.5C 13.448,50.3505 12.448,50.5172 11.5,51C 13.632,52.6204 13.9653,54.4537 12.5,56.5C 12.5,55.8333 12.5,55.1667 12.5,54.5C 12.6309,53.6236 12.2975,52.9569 11.5,52.5C 10.5052,57.7921 10.1718,63.1254 10.5,68.5C 9.83333,62.8333 9.16667,57.1667 8.5,51.5C 9.71956,43.1619 13.0529,35.8286 18.5,29.5 Z"/></g>
<g><path style="opacity:1" fill="#eec554" d="M 13.5,42.5 C 14.675,42.281 15.675,42.6143 16.5,43.5C 14.9483,44.7979 13.9483,44.4646 13.5,42.5 Z"/></g>
<g><path style="opacity:1" fill="#edcf67" d="M 16.5,36.5 C 17.5,36.5 18.5,36.5 19.5,36.5C 18.5,39.1667 17.5,39.1667 16.5,36.5 Z"/></g>
<g><path style="opacity:1" fill="#823f17" d="M 36.5,42.5 C 42.1667,42.5 47.8333,42.5 53.5,42.5C 58.1667,42.5 62.8333,42.5 67.5,42.5C 67.1667,43.5 66.5,44.1667 65.5,44.5C 55.8333,44.5 46.1667,44.5 36.5,44.5C 36.5,44.1667 36.5,43.8333 36.5,43.5C 36.5,43.1667 36.5,42.8333 36.5,42.5 Z"/></g>
<g><path style="opacity:1" fill="#d19b4d" d="M 113.5,42.5 C 113.672,43.4916 113.338,44.1583 112.5,44.5C 111.503,44.5299 110.836,44.0299 110.5,43C 111.176,41.3167 112.176,41.1501 113.5,42.5 Z"/></g>
<g><path style="opacity:1" fill="#e8bf5f" d="M 25.5,36.5 C 20.699,43.0249 18.0323,50.3582 17.5,58.5C 16.5119,63.6405 16.1786,68.9738 16.5,74.5C 15.71,73.3915 15.21,72.0581 15,70.5C 14.5006,65.1771 14.334,59.8437 14.5,54.5C 15.1667,54.5 15.5,54.1667 15.5,53.5C 17.6885,48.1414 20.1885,42.808 23,37.5C 23.6708,36.7476 24.5041,36.4142 25.5,36.5 Z"/></g>
<g><path style="opacity:1" fill="#a56723" d="M 99.5,53.5 C 98.8333,53.1667 98.1667,52.8333 97.5,52.5C 95.9409,50.3924 94.6076,48.0591 93.5,45.5C 94.0016,44.479 94.6683,44.3123 95.5,45C 97.2465,47.6587 98.5798,50.492 99.5,53.5 Z"/></g>
<g><path style="opacity:1" fill="#b77324" d="M 95.5,40.5 C 97.0174,40.5106 98.1841,41.1772 99,42.5C 100.454,45.0711 101.62,47.7378 102.5,50.5C 101.833,50.1667 101.167,49.8333 100.5,49.5C 98.5832,46.669 96.9166,43.669 95.5,40.5 Z"/></g>
<g><path style="opacity:1" fill="#e0cd87" d="M 30.5,42.5 C 29.1667,45.1667 27.8333,47.8333 26.5,50.5C 25.3995,52.2774 24.5662,54.2774 24,56.5C 23.5008,61.1548 23.3342,65.8215 23.5,70.5C 22.5655,69.4324 22.2322,68.099 22.5,66.5C 21.9642,59.5727 22.9642,52.906 25.5,46.5C 26.6896,44.6455 28.0229,42.8121 29.5,41C 31.6354,40.3947 31.9687,40.8947 30.5,42.5 Z"/></g>
<g><path style="opacity:1" fill="#d3bc79" d="M 27.5,67.5 C 27.5,68.8333 27.5,70.1667 27.5,71.5C 26.5111,66.0247 26.1778,60.358 26.5,54.5C 27.7399,51.976 28.9066,49.3093 30,46.5C 30.8928,45.2888 31.7261,45.2888 32.5,46.5C 28.5852,52.922 26.9185,59.922 27.5,67.5 Z"/></g>
<g><path style="opacity:1" fill="#c18c3d" d="M 111.5,28.5 C 116.208,33.9258 119.208,40.2591 120.5,47.5C 120.666,54.8409 120.5,62.1742 120,69.5C 119.851,73.1325 119.018,76.4659 117.5,79.5C 119.173,70.9032 119.673,62.2365 119,53.5C 118.387,48.8276 116.887,44.4943 114.5,40.5C 113.773,38.0462 112.773,35.7128 111.5,33.5C 112.833,31.8333 112.833,30.1667 111.5,28.5 Z"/></g>
<g><path style="opacity:1" fill="#ede9c0" d="M 67.5,42.5 C 68.1667,42.5 68.8333,42.5 69.5,42.5C 67.2119,46.4558 64.2119,49.7891 60.5,52.5C 62.1667,49.8333 63.8333,47.1667 65.5,44.5C 66.5,44.1667 67.1667,43.5 67.5,42.5 Z"/></g>
<g><path style="opacity:1" fill="#271d18" d="M 30.5,42.5 C 32.4977,42.3382 34.4977,43.0049 36.5,44.5C 37.6253,46.1288 38.9586,47.6288 40.5,49C 43.9194,49.2485 47.2527,49.7485 50.5,50.5C 48.3437,52.841 45.8437,54.841 43,56.5C 41.7475,59.0135 41.2475,61.6802 41.5,64.5C 40.8333,66.1667 40.1667,67.8333 39.5,69.5C 39.5,65.8333 39.5,62.1667 39.5,58.5C 41.0145,54.8202 43.6812,52.3202 47.5,51C 42.5368,50.2666 39.3701,52.4333 38,57.5C 37.5026,60.146 37.3359,62.8127 37.5,65.5C 36.8333,63.5 36.1667,61.5 35.5,59.5C 35.5,59.1667 35.5,58.8333 35.5,58.5C 36.0482,55.9748 37.0482,53.6415 38.5,51.5C 37.8333,50.1667 37.1667,50.1667 36.5,51.5C 33.5826,56.7043 32.916,62.0377 34.5,67.5C 34.0311,70.3933 35.0311,72.3933 37.5,73.5C 37.1667,74.1667 36.8333,74.8333 36.5,75.5C 35.8444,76.2778 35.0111,76.9444 34,77.5C 33.2352,77.4301 32.7352,77.0967 32.5,76.5C 33.3764,76.6309 34.0431,76.2975 34.5,75.5C 33.3655,72.4184 32.3655,69.4184 31.5,66.5C 30.8121,60.3044 32.1454,54.6378 35.5,49.5C 34.7261,48.2888 33.8928,48.2888 33,49.5C 29.1387,56.7674 28.6387,64.1007 31.5,71.5C 31.5,72.5 31.5,73.5 31.5,74.5C 31.1667,74.5 30.8333,74.5 30.5,74.5C 29.1314,72.3085 28.1314,69.9752 27.5,67.5C 26.9185,59.922 28.5852,52.922 32.5,46.5C 31.7261,45.2888 30.8928,45.2888 30,46.5C 28.9066,49.3093 27.7399,51.976 26.5,54.5C 26.5,53.1667 26.5,51.8333 26.5,50.5C 27.8333,47.8333 29.1667,45.1667 30.5,42.5 Z"/></g>
<g><path style="opacity:1" fill="#f9cf61" d="M 90.5,31.5 C 90.7214,34.2788 90.388,36.9455 89.5,39.5C 87.0665,38.6715 84.7332,39.1715 82.5,41C 78.0328,45.3996 73.0328,49.0662 67.5,52C 61.303,57.0314 55.6364,62.5314 50.5,68.5C 49.8333,68.1667 49.1667,67.8333 48.5,67.5C 48.5,67.1667 48.5,66.8333 48.5,66.5C 51.2427,64.7607 53.2427,62.4274 54.5,59.5C 57.2427,57.7607 59.2427,55.4274 60.5,52.5C 64.2119,49.7891 67.2119,46.4558 69.5,42.5C 68.3915,41.71 67.0581,41.21 65.5,41C 66.1667,40.6667 66.8333,40.3333 67.5,40C 66.3463,39.0862 66.513,38.2529 68,37.5C 69.7067,38.1383 71.54,38.1383 73.5,37.5C 73.3537,35.0576 74.187,34.3909 76,35.5C 80.2153,32.1123 85.0487,30.779 90.5,31.5 Z"/></g>
<g><path style="opacity:1" fill="#dcca88" d="M 35.5,58.5 C 34.5233,61.2869 34.19,64.2869 34.5,67.5C 32.916,62.0377 33.5826,56.7043 36.5,51.5C 37.1667,50.1667 37.8333,50.1667 38.5,51.5C 37.0482,53.6415 36.0482,55.9748 35.5,58.5 Z"/></g>
<g><path style="opacity:1" fill="#f3bf53" d="M 89.5,39.5 C 86.8782,43.4572 83.8782,47.1239 80.5,50.5C 78.5316,49.181 76.5316,49.181 74.5,50.5C 72.9733,52.1933 71.6399,54.0266 70.5,56C 64.5832,59.2539 59.2499,63.2539 54.5,68C 53.2068,68.49 51.8734,68.6567 50.5,68.5C 55.6364,62.5314 61.303,57.0314 67.5,52C 73.0328,49.0662 78.0328,45.3996 82.5,41C 84.7332,39.1715 87.0665,38.6715 89.5,39.5 Z"/></g>
<g><path style="opacity:1" fill="#131216" d="M 14.5,54.5 C 14.334,59.8437 14.5006,65.1771 15,70.5C 15.21,72.0581 15.71,73.3915 16.5,74.5C 20.3954,90.7307 30.0621,102.064 45.5,108.5C 44.2223,108.782 43.2223,109.449 42.5,110.5C 42.1959,108.204 41.1959,107.871 39.5,109.5C 37.9731,109.427 36.9731,110.094 36.5,111.5C 35.1667,111.167 33.8333,110.833 32.5,110.5C 26.8333,105.5 21.5,100.167 16.5,94.5C 12.0912,86.6019 9.09116,78.2685 7.5,69.5C 7.5,65.5 7.5,61.5 7.5,57.5C 7.32526,55.3792 7.65859,53.3792 8.5,51.5C 9.16667,57.1667 9.83333,62.8333 10.5,68.5C 10.5,69.8333 10.5,71.1667 10.5,72.5C 10.56,73.0431 10.8933,73.3764 11.5,73.5C 12.4954,67.8722 12.8288,62.2055 12.5,56.5C 13.9653,54.4537 13.632,52.6204 11.5,51C 12.448,50.5172 13.448,50.3505 14.5,50.5C 14.5,51.8333 14.5,53.1667 14.5,54.5 Z"/></g>
<g><path style="opacity:1" fill="#6e270d" d="M 90.5,31.5 C 90.8333,31.5 91.1667,31.5 91.5,31.5C 91.5,34.1667 91.5,36.8333 91.5,39.5C 86.2591,45.6515 81.2591,51.9849 76.5,58.5C 70.2733,65.2735 64.2733,72.2735 58.5,79.5C 57.7611,79.631 57.0944,79.4643 56.5,79C 58.7221,76.0438 61.0554,73.2105 63.5,70.5C 69.1373,63.8584 74.8039,57.1917 80.5,50.5C 83.8782,47.1239 86.8782,43.4572 89.5,39.5C 90.388,36.9455 90.7214,34.2788 90.5,31.5 Z"/></g>
<g><path style="opacity:1" fill="#e1c674" d="M 50.5,50.5 C 51.552,50.3505 52.552,50.5172 53.5,51C 50.7877,54.1024 47.621,56.6024 44,58.5C 43.9977,61.0512 43.1644,63.0512 41.5,64.5C 41.2475,61.6802 41.7475,59.0135 43,56.5C 45.8437,54.841 48.3437,52.841 50.5,50.5 Z"/></g>
<g><path style="opacity:1" fill="#eeebbd" d="M 60.5,52.5 C 59.2427,55.4274 57.2427,57.7607 54.5,59.5C 55.7573,56.5726 57.7573,54.2393 60.5,52.5 Z"/></g>
<g><path style="opacity:1" fill="#f0da8a" d="M 39.5,58.5 C 38.8333,61.1667 38.1667,63.8333 37.5,66.5C 37.5,66.1667 37.5,65.8333 37.5,65.5C 37.3359,62.8127 37.5026,60.146 38,57.5C 39.3701,52.4333 42.5368,50.2666 47.5,51C 43.6812,52.3202 41.0145,54.8202 39.5,58.5 Z"/></g>
<g><path style="opacity:1" fill="#131118" d="M 85.5,54.5 C 88.4033,60.6967 88.0699,66.6967 84.5,72.5C 83.8333,72.5 83.1667,72.5 82.5,72.5C 80.4723,74.3423 77.9723,75.6756 75,76.5C 73.2509,76.2517 72.4176,75.2517 72.5,73.5C 76.5616,73.2759 79.395,71.2759 81,67.5C 81.7975,65.7412 81.6309,64.0745 80.5,62.5C 79.7298,66.3884 77.7298,69.3884 74.5,71.5C 74.0133,70.5266 73.5133,69.5266 73,68.5C 70.0686,71.3878 67.2353,74.3878 64.5,77.5C 73.3241,78.1667 81.9907,78.8334 90.5,79.5C 79.8333,79.5 69.1667,79.5 58.5,79.5C 64.2733,72.2735 70.2733,65.2735 76.5,58.5C 77.1174,58.6107 77.6174,58.944 78,59.5C 79.6492,56.8519 81.6492,54.5186 84,52.5C 85.0299,52.8361 85.5299,53.5028 85.5,54.5 Z"/></g>
<g><path style="opacity:1" fill="#f9d96e" d="M 12.5,54.5 C 11.8333,60.5 11.1667,66.5 10.5,72.5C 10.5,71.1667 10.5,69.8333 10.5,68.5C 10.1718,63.1254 10.5052,57.7921 11.5,52.5C 12.2975,52.9569 12.6309,53.6236 12.5,54.5 Z"/></g>
<g><path style="opacity:1" fill="#c98b39" d="M 35.5,58.5 C 35.5,58.8333 35.5,59.1667 35.5,59.5C 35.3497,64.2999 36.0164,68.9666 37.5,73.5C 35.0311,72.3933 34.0311,70.3933 34.5,67.5C 34.19,64.2869 34.5233,61.2869 35.5,58.5 Z"/></g>
<g><path style="opacity:1" fill="#a56524" d="M 39.5,58.5 C 39.5,62.1667 39.5,65.8333 39.5,69.5C 38.0937,69.0269 37.427,68.0269 37.5,66.5C 38.1667,63.8333 38.8333,61.1667 39.5,58.5 Z"/></g>
<g><path style="opacity:1" fill="#a36520" d="M 84.5,66.5 C 84.8468,63.6591 84.5135,61.6591 83.5,60.5C 82.2241,59.6136 82.2241,58.6136 83.5,57.5C 84.086,57.7093 84.586,58.0426 85,58.5C 85.8007,61.367 85.6341,64.0336 84.5,66.5 Z"/></g>
<g><path style="opacity:1" fill="#ece8b8" d="M 54.5,59.5 C 53.2427,62.4274 51.2427,64.7607 48.5,66.5C 49.7573,63.5726 51.7573,61.2393 54.5,59.5 Z"/></g>
<g><path style="opacity:1" fill="#d8b874" d="M 31.5,66.5 C 31.5,68.1667 31.5,69.8333 31.5,71.5C 28.6387,64.1007 29.1387,56.7674 33,49.5C 33.8928,48.2888 34.7261,48.2888 35.5,49.5C 32.1454,54.6378 30.8121,60.3044 31.5,66.5 Z"/></g>
<g><path style="opacity:1" fill="#d8b45f" d="M 97.5,52.5 C 98.1667,52.8333 98.8333,53.1667 99.5,53.5C 100.818,60.1814 100.652,66.848 99,73.5C 98.8276,76.8127 97.3276,79.146 94.5,80.5C 95.1667,78.8333 95.8333,77.1667 96.5,75.5C 98.6837,67.9244 99.017,60.2577 97.5,52.5 Z"/></g>
<g><path style="opacity:1" fill="#e8ad43" d="M 80.5,50.5 C 74.8039,57.1917 69.1373,63.8584 63.5,70.5C 62.8826,70.3893 62.3826,70.056 62,69.5C 60.0551,70.8633 57.8884,71.6966 55.5,72C 54.1667,74 52.5,75.6667 50.5,77C 46.3806,78.5595 42.3806,80.3928 38.5,82.5C 37.52,85.0865 37.1866,87.7531 37.5,90.5C 37.5,91.8333 36.8333,92.5 35.5,92.5C 35.5,89.8333 35.5,87.1667 35.5,84.5C 36.29,83.3915 36.79,82.0581 37,80.5C 40.8409,76.135 44.6742,71.8017 48.5,67.5C 49.1667,67.8333 49.8333,68.1667 50.5,68.5C 51.8734,68.6567 53.2068,68.49 54.5,68C 59.2499,63.2539 64.5832,59.2539 70.5,56C 71.6399,54.0266 72.9733,52.1933 74.5,50.5C 76.5316,49.181 78.5316,49.181 80.5,50.5 Z"/></g>
<g><path style="opacity:1" fill="#140e13" d="M 114.5,40.5 C 116.887,44.4943 118.387,48.8276 119,53.5C 119.673,62.2365 119.173,70.9032 117.5,79.5C 116.262,81.2143 115.595,83.2143 115.5,85.5C 113.17,89.4921 110.837,93.4921 108.5,97.5C 104.833,100.5 101.5,103.833 98.5,107.5C 96.5887,108.075 94.922,109.075 93.5,110.5C 93.2178,109.222 92.5511,108.222 91.5,107.5C 97.742,104.261 102.742,99.5945 106.5,93.5C 106.167,93.1667 105.833,92.8333 105.5,92.5C 101.082,97.9225 96.0819,102.589 90.5,106.5C 88.8212,106.285 87.8212,106.952 87.5,108.5C 86.209,108.263 85.209,108.596 84.5,109.5C 82.7973,108.34 82.1307,109.007 82.5,111.5C 81.5,111.5 80.5,111.5 79.5,111.5C 79.9175,110.778 80.5842,110.278 81.5,110C 79.8659,109.506 78.1992,109.34 76.5,109.5C 80.2508,108.027 83.9175,106.36 87.5,104.5C 100.882,97.1038 108.882,85.7704 111.5,70.5C 112.924,62.7709 112.591,55.1042 110.5,47.5C 111.167,46.5 111.833,45.5 112.5,44.5C 113.338,44.1583 113.672,43.4916 113.5,42.5C 113.328,41.5084 113.662,40.8417 114.5,40.5 Z"/></g>
<g><path style="opacity:1" fill="#c59c47" d="M 114.5,52.5 C 115.82,55.428 116.486,58.7614 116.5,62.5C 116.333,65.8333 116.167,69.1667 116,72.5C 115.586,72.9574 115.086,73.2907 114.5,73.5C 114.331,66.6016 114.331,59.6016 114.5,52.5 Z"/></g>
<g><path style="opacity:1" fill="#a48332" d="M 112.5,47.5 C 114.337,47.6395 114.67,48.3061 113.5,49.5C 112.702,49.0431 112.369,48.3764 112.5,47.5 Z"/></g>
<g><path style="opacity:1" fill="#cfa24e" d="M 85.5,54.5 C 86.4959,54.4142 87.3292,54.7476 88,55.5C 88.9347,57.9088 89.4347,60.4088 89.5,63C 89.5182,67.4594 87.8515,70.9594 84.5,73.5C 84.5,73.1667 84.5,72.8333 84.5,72.5C 88.0699,66.6967 88.4033,60.6967 85.5,54.5 Z"/></g>
<g><path style="opacity:1" fill="#c9a350" d="M 88.5,50.5 C 90.0222,51.1909 91.0222,52.3576 91.5,54C 93.1993,60.7138 92.6993,67.2138 90,73.5C 91.0574,65.7447 90.5574,58.078 88.5,50.5 Z"/></g>
<g><path style="opacity:1" fill="#d8b66d" d="M 72.5,73.5 C 72.8333,72.5 73.5,71.8333 74.5,71.5C 77.7298,69.3884 79.7298,66.3884 80.5,62.5C 81.6309,64.0745 81.7975,65.7412 81,67.5C 79.395,71.2759 76.5616,73.2759 72.5,73.5 Z"/></g>
<g><path style="opacity:1" fill="#dbb565" d="M 84.5,66.5 C 84.7475,68.8583 84.0808,70.8583 82.5,72.5C 81.6365,73.463 80.9698,73.463 80.5,72.5C 82.7323,68.804 83.7323,64.804 83.5,60.5C 84.5135,61.6591 84.8468,63.6591 84.5,66.5 Z"/></g>
<g><path style="opacity:1" fill="#111119" d="M 36.5,44.5 C 46.1667,44.5 55.8333,44.5 65.5,44.5C 63.8333,47.1667 62.1667,49.8333 60.5,52.5C 57.7573,54.2393 55.7573,56.5726 54.5,59.5C 51.7573,61.2393 49.7573,63.5726 48.5,66.5C 44.8062,69.5271 41.4729,72.8604 38.5,76.5C 38.1583,75.6618 37.4916,75.3284 36.5,75.5C 36.8333,74.8333 37.1667,74.1667 37.5,73.5C 36.0164,68.9666 35.3497,64.2999 35.5,59.5C 36.1667,61.5 36.8333,63.5 37.5,65.5C 37.5,65.8333 37.5,66.1667 37.5,66.5C 37.427,68.0269 38.0937,69.0269 39.5,69.5C 40.1667,67.8333 40.8333,66.1667 41.5,64.5C 43.1644,63.0512 43.9977,61.0512 44,58.5C 47.621,56.6024 50.7877,54.1024 53.5,51C 52.552,50.5172 51.552,50.3505 50.5,50.5C 47.2527,49.7485 43.9194,49.2485 40.5,49C 38.9586,47.6288 37.6253,46.1288 36.5,44.5 Z"/></g>
<g><path style="opacity:1" fill="#d2a850" d="M 93.5,73.5 C 95.3869,65.2428 94.7202,57.2428 91.5,49.5C 91.8333,49.1667 92.1667,48.8333 92.5,48.5C 95.2994,52.5241 96.6327,57.0241 96.5,62C 96.6461,66.2549 95.6461,70.0882 93.5,73.5 Z"/></g>
<g><path style="opacity:1" fill="#a76d26" d="M 12.5,54.5 C 12.5,55.1667 12.5,55.8333 12.5,56.5C 12.8288,62.2055 12.4954,67.8722 11.5,73.5C 10.8933,73.3764 10.56,73.0431 10.5,72.5C 11.1667,66.5 11.8333,60.5 12.5,54.5 Z"/></g>
<g><path style="opacity:1" fill="#312720" d="M 26.5,54.5 C 26.1778,60.358 26.5111,66.0247 27.5,71.5C 27.5056,74.8502 28.5056,77.8502 30.5,80.5C 31.1067,80.3764 31.44,80.0431 31.5,79.5C 32.0431,79.56 32.3764,79.8933 32.5,80.5C 31.675,81.3857 30.675,81.719 29.5,81.5C 25.1341,74.1642 23.6341,66.1642 25,57.5C 25.2321,56.2625 25.7321,55.2625 26.5,54.5 Z"/></g>
<g><path style="opacity:1" fill="#984f22" d="M 120.5,47.5 C 123.815,57.4304 124.149,67.7637 121.5,78.5C 118.8,80.2344 116.8,82.5677 115.5,85.5C 115.595,83.2143 116.262,81.2143 117.5,79.5C 119.018,76.4659 119.851,73.1325 120,69.5C 120.5,62.1742 120.666,54.8409 120.5,47.5 Z"/></g>
<g><path style="opacity:0.988" fill="#e6ac44" d="M 7.5,57.5 C 7.5,61.5 7.5,65.5 7.5,69.5C 7.66212,71.5273 7.49546,73.5273 7,75.5C 6.61742,76.056 6.11742,76.3893 5.5,76.5C 5.33385,70.4908 5.50051,64.4908 6,58.5C 6.38258,57.944 6.88258,57.6107 7.5,57.5 Z"/></g>
<g><path style="opacity:1" fill="#c58431" d="M 27.5,67.5 C 28.1314,69.9752 29.1314,72.3085 30.5,74.5C 30.6287,76.2161 30.962,77.8828 31.5,79.5C 31.44,80.0431 31.1067,80.3764 30.5,80.5C 28.5056,77.8502 27.5056,74.8502 27.5,71.5C 27.5,70.1667 27.5,68.8333 27.5,67.5 Z"/></g>
<g><path style="opacity:1" fill="#b16d2a" d="M 31.5,66.5 C 32.3655,69.4184 33.3655,72.4184 34.5,75.5C 34.0431,76.2975 33.3764,76.6309 32.5,76.5C 32.1667,75.8333 31.8333,75.1667 31.5,74.5C 31.5,73.5 31.5,72.5 31.5,71.5C 31.5,69.8333 31.5,68.1667 31.5,66.5 Z"/></g>
<g><path style="opacity:1" fill="#c69542" d="M 11.5,76.5 C 12.5,76.5 13.5,76.5 14.5,76.5C 13.7542,80.31 12.7542,80.31 11.5,76.5 Z"/></g>
<g><path style="opacity:1" fill="#e8e1ab" d="M 48.5,66.5 C 48.5,66.8333 48.5,67.1667 48.5,67.5C 44.6742,71.8017 40.8409,76.135 37,80.5C 36.79,82.0581 36.29,83.3915 35.5,84.5C 35.0156,81.2118 36.0156,78.5452 38.5,76.5C 41.4729,72.8604 44.8062,69.5271 48.5,66.5 Z"/></g>
<g><path style="opacity:1" fill="#be872d" d="M 112.5,76.5 C 114.465,76.9483 114.798,77.9483 113.5,79.5C 112.614,78.675 112.281,77.675 112.5,76.5 Z"/></g>
<g><path style="opacity:1" fill="#cca44f" d="M 100.5,49.5 C 101.167,49.8333 101.833,50.1667 102.5,50.5C 103.024,52.3057 103.691,53.9724 104.5,55.5C 104.996,66.1799 102.663,76.1799 97.5,85.5C 95.3574,86.3293 95.0241,85.6626 96.5,83.5C 102.568,72.8349 103.902,61.5016 100.5,49.5 Z"/></g>
<g><path style="opacity:1" fill="#bc7525" d="M 26.5,50.5 C 26.5,51.8333 26.5,53.1667 26.5,54.5C 25.7321,55.2625 25.2321,56.2625 25,57.5C 23.6341,66.1642 25.1341,74.1642 29.5,81.5C 29.5569,82.609 29.8902,83.609 30.5,84.5C 30.3605,86.337 29.6939,86.6704 28.5,85.5C 25.4463,80.9476 23.7796,75.9476 23.5,70.5C 23.3342,65.8215 23.5008,61.1548 24,56.5C 24.5662,54.2774 25.3995,52.2774 26.5,50.5 Z"/></g>
<g><path style="opacity:1" fill="#be8733" d="M 109.5,82.5 C 110.675,82.281 111.675,82.6143 112.5,83.5C 110.948,84.7979 109.948,84.4646 109.5,82.5 Z"/></g>
<g><path style="opacity:1" fill="#d48a37" d="M 14.5,82.5 C 16.4646,82.9483 16.7979,83.9483 15.5,85.5C 14.6143,84.675 14.281,83.675 14.5,82.5 Z"/></g>
<g><path style="opacity:1" fill="#12151d" d="M 22.5,66.5 C 22.2322,68.099 22.5655,69.4324 23.5,70.5C 23.7796,75.9476 25.4463,80.9476 28.5,85.5C 29.6939,86.6704 30.3605,86.337 30.5,84.5C 31.404,85.209 31.7373,86.209 31.5,87.5C 27.8284,88.0447 28.1617,88.3781 32.5,88.5C 33.398,91.4662 34.7313,94.2995 36.5,97C 35.5842,97.2784 34.9175,97.7784 34.5,98.5C 28.6247,93.6231 24.2914,87.6231 21.5,80.5C 19.714,72.2569 19.214,63.9236 20,55.5C 20.918,59.2797 21.7513,62.9464 22.5,66.5 Z"/></g>
<g><path style="opacity:1" fill="#b77429" d="M 7.5,69.5 C 9.09116,78.2685 12.0912,86.6019 16.5,94.5C 14.8333,93.8333 13.1667,93.1667 11.5,92.5C 8.13817,87.7564 6.13817,82.4231 5.5,76.5C 6.11742,76.3893 6.61742,76.056 7,75.5C 7.49546,73.5273 7.66212,71.5273 7.5,69.5 Z"/></g>
<g><path style="opacity:1" fill="#d69138" d="M 63.5,70.5 C 61.0554,73.2105 58.7221,76.0438 56.5,79C 57.0944,79.4643 57.7611,79.631 58.5,79.5C 69.1667,79.5 79.8333,79.5 90.5,79.5C 79.2841,80.9884 67.9507,82.6551 56.5,84.5C 55.4461,84.3201 54.4461,83.9867 53.5,83.5C 48.2959,86.2308 42.9625,88.5642 37.5,90.5C 37.1866,87.7531 37.52,85.0865 38.5,82.5C 42.3806,80.3928 46.3806,78.5595 50.5,77C 52.5,75.6667 54.1667,74 55.5,72C 57.8884,71.6966 60.0551,70.8633 62,69.5C 62.3826,70.056 62.8826,70.3893 63.5,70.5 Z"/></g>
<g><path style="opacity:1" fill="#bb6c1e" d="M 90.5,79.5 C 91.3382,79.8417 91.6716,80.5084 91.5,81.5C 90.5,81.5 89.5,81.5 88.5,81.5C 83.7178,83.4808 78.7178,84.9808 73.5,86C 68.943,88.5721 63.943,89.9054 58.5,90C 58.1667,90.3333 57.8333,90.6667 57.5,91C 58.4162,91.3742 59.2496,91.8742 60,92.5C 60.21,94.0581 60.71,95.3915 61.5,96.5C 61.5,98.5 61.5,100.5 61.5,102.5C 58.8333,103.833 56.1667,103.833 53.5,102.5C 55.5273,102.662 57.5273,102.495 59.5,102C 57.8988,101.727 56.3988,101.227 55,100.5C 54.8138,97.9644 54.3138,95.631 53.5,93.5C 47.8333,93.5 42.1667,93.5 36.5,93.5C 35.8333,93.5 35.5,93.1667 35.5,92.5C 36.8333,92.5 37.5,91.8333 37.5,90.5C 42.9625,88.5642 48.2959,86.2308 53.5,83.5C 54.4461,83.9867 55.4461,84.3201 56.5,84.5C 67.9507,82.6551 79.2841,80.9884 90.5,79.5 Z"/></g>
<g><path style="opacity:1" fill="#9b4511" d="M 88.5,81.5 C 89.5,81.5 90.5,81.5 91.5,81.5C 91.5,81.8333 91.5,82.1667 91.5,82.5C 90.5206,85.6248 90.1872,88.9581 90.5,92.5C 88.1667,92.5 85.8333,92.5 83.5,92.5C 79.6877,91.6762 75.6877,91.1762 71.5,91C 78.4148,89.8804 84.0815,86.7137 88.5,81.5 Z"/></g>
<g><path style="opacity:1" fill="#0c0814" d="M 104.5,55.5 C 105.989,57.1161 106.989,59.1161 107.5,61.5C 108.487,64.7683 108.82,68.1016 108.5,71.5C 103.575,92.4264 90.5754,104.76 69.5,108.5C 64.9677,108.818 60.6344,108.485 56.5,107.5C 60.226,107.823 63.8927,107.489 67.5,106.5C 65.8236,104.663 63.8236,103.33 61.5,102.5C 61.5,100.5 61.5,98.5 61.5,96.5C 61.5,95.5 61.5,94.5 61.5,93.5C 62.5,93.5 63.5,93.5 64.5,93.5C 64.19,96.7131 64.5233,99.7131 65.5,102.5C 67.8333,103.833 70.1667,103.833 72.5,102.5C 73.4767,99.7131 73.81,96.7131 73.5,93.5C 79.5,93.5 85.5,93.5 91.5,93.5C 91.5,89.8333 91.5,86.1667 91.5,82.5C 91.5,82.1667 91.5,81.8333 91.5,81.5C 91.6716,80.5084 91.3382,79.8417 90.5,79.5C 81.9907,78.8334 73.3241,78.1667 64.5,77.5C 67.2353,74.3878 70.0686,71.3878 73,68.5C 73.5133,69.5266 74.0133,70.5266 74.5,71.5C 73.5,71.8333 72.8333,72.5 72.5,73.5C 72.4176,75.2517 73.2509,76.2517 75,76.5C 77.9723,75.6756 80.4723,74.3423 82.5,72.5C 83.1667,72.5 83.8333,72.5 84.5,72.5C 84.5,72.8333 84.5,73.1667 84.5,73.5C 87.3623,74.6813 90.3623,74.6813 93.5,73.5C 94.2905,74.4013 95.2905,75.0679 96.5,75.5C 95.8333,77.1667 95.1667,78.8333 94.5,80.5C 95.5511,81.2223 96.2178,82.2223 96.5,83.5C 95.0241,85.6626 95.3574,86.3293 97.5,85.5C 102.663,76.1799 104.996,66.1799 104.5,55.5 Z"/></g>
<g><path style="opacity:1" fill="#c5883f" d="M 111.5,70.5 C 108.882,85.7704 100.882,97.1038 87.5,104.5C 81.633,106.456 75.633,107.79 69.5,108.5C 90.5754,104.76 103.575,92.4264 108.5,71.5C 108.833,71.5 109.167,71.5 109.5,71.5C 110.167,71.1667 110.833,70.8333 111.5,70.5 Z"/></g>
<g><path style="opacity:1" fill="#b1601a" d="M 88.5,81.5 C 84.0815,86.7137 78.4148,89.8804 71.5,91C 75.6877,91.1762 79.6877,91.6762 83.5,92.5C 79.8333,92.5 76.1667,92.5 72.5,92.5C 72.5,95.8333 72.5,99.1667 72.5,102.5C 70.1667,103.833 67.8333,103.833 65.5,102.5C 73.1755,102.544 73.3422,101.877 66,100.5C 65.8138,97.9644 65.3138,95.631 64.5,93.5C 63.5,93.5 62.5,93.5 61.5,93.5C 61.5,94.5 61.5,95.5 61.5,96.5C 60.71,95.3915 60.21,94.0581 60,92.5C 59.2496,91.8742 58.4162,91.3742 57.5,91C 57.8333,90.6667 58.1667,90.3333 58.5,90C 63.943,89.9054 68.943,88.5721 73.5,86C 78.7178,84.9808 83.7178,83.4808 88.5,81.5 Z"/></g>
<g><path style="opacity:1" fill="#917243" d="M 17.5,88.5 C 19.337,88.6395 19.6704,89.3061 18.5,90.5C 17.7025,90.0431 17.3691,89.3764 17.5,88.5 Z"/></g>
<g><path style="opacity:1" fill="#772a12" d="M 91.5,82.5 C 91.5,86.1667 91.5,89.8333 91.5,93.5C 85.5,93.5 79.5,93.5 73.5,93.5C 73.81,96.7131 73.4767,99.7131 72.5,102.5C 72.5,99.1667 72.5,95.8333 72.5,92.5C 76.1667,92.5 79.8333,92.5 83.5,92.5C 85.8333,92.5 88.1667,92.5 90.5,92.5C 90.1872,88.9581 90.5206,85.6248 91.5,82.5 Z"/></g>
<g><path style="opacity:1" fill="#3b160f" d="M 36.5,93.5 C 42.1667,93.5 47.8333,93.5 53.5,93.5C 53.5,96.5 53.5,99.5 53.5,102.5C 52.5269,100.052 52.1936,97.3854 52.5,94.5C 46.9738,94.8214 41.6405,94.4881 36.5,93.5 Z"/></g>
<g><path style="opacity:1" fill="#c37429" d="M 20.5,92.5 C 22.6237,93.0312 24.1237,94.3645 25,96.5C 25.7494,97.635 25.5827,98.635 24.5,99.5C 22.2663,97.6187 20.933,95.2853 20.5,92.5 Z"/></g>
<g><path style="opacity:1" fill="#af6523" d="M 17.5,58.5 C 16.6556,66.3737 17.9889,73.707 21.5,80.5C 24.2914,87.6231 28.6247,93.6231 34.5,98.5C 39.7896,102.31 45.4562,105.31 51.5,107.5C 54.886,108.97 58.5527,109.637 62.5,109.5C 65.0254,109.497 67.3587,109.163 69.5,108.5C 75.633,107.79 81.633,106.456 87.5,104.5C 83.9175,106.36 80.2508,108.027 76.5,109.5C 66.0961,112.188 55.7628,111.855 45.5,108.5C 30.0621,102.064 20.3954,90.7307 16.5,74.5C 16.1786,68.9738 16.5119,63.6405 17.5,58.5 Z"/></g>
<g><path style="opacity:1" fill="#ca8f46" d="M 91.5,107.5 C 90.8333,107.5 90.5,107.167 90.5,106.5C 96.0819,102.589 101.082,97.9225 105.5,92.5C 105.833,92.8333 106.167,93.1667 106.5,93.5C 102.742,99.5945 97.742,104.261 91.5,107.5 Z"/></g>
<g><path style="opacity:1" fill="#9f571e" d="M 11.5,92.5 C 13.1667,93.1667 14.8333,93.8333 16.5,94.5C 21.5,100.167 26.8333,105.5 32.5,110.5C 30.0971,110.552 27.7638,110.219 25.5,109.5C 24.0892,107.086 22.0892,105.419 19.5,104.5C 16.3269,100.815 13.6602,96.8154 11.5,92.5 Z"/></g>
<g><path style="opacity:1" fill="#060a17" d="M 30.5,74.5 C 30.8333,74.5 31.1667,74.5 31.5,74.5C 31.8333,75.1667 32.1667,75.8333 32.5,76.5C 32.7352,77.0967 33.2352,77.4301 34,77.5C 35.0111,76.9444 35.8444,76.2778 36.5,75.5C 37.4916,75.3284 38.1583,75.6618 38.5,76.5C 36.0156,78.5452 35.0156,81.2118 35.5,84.5C 35.5,87.1667 35.5,89.8333 35.5,92.5C 35.5,93.1667 35.8333,93.5 36.5,93.5C 41.6405,94.4881 46.9738,94.8214 52.5,94.5C 52.1936,97.3854 52.5269,100.052 53.5,102.5C 56.1667,103.833 58.8333,103.833 61.5,102.5C 63.8236,103.33 65.8236,104.663 67.5,106.5C 63.8927,107.489 60.226,107.823 56.5,107.5C 54.8333,107.5 53.1667,107.5 51.5,107.5C 45.4562,105.31 39.7896,102.31 34.5,98.5C 34.9175,97.7784 35.5842,97.2784 36.5,97C 34.7313,94.2995 33.398,91.4662 32.5,88.5C 28.1617,88.3781 27.8284,88.0447 31.5,87.5C 31.7373,86.209 31.404,85.209 30.5,84.5C 29.8902,83.609 29.5569,82.609 29.5,81.5C 30.675,81.719 31.675,81.3857 32.5,80.5C 32.3764,79.8933 32.0431,79.56 31.5,79.5C 30.962,77.8828 30.6287,76.2161 30.5,74.5 Z"/></g>
<g><path style="opacity:1" fill="#f6c96a" d="M 53.5,93.5 C 54.3138,95.631 54.8138,97.9644 55,100.5C 56.3988,101.227 57.8988,101.727 59.5,102C 57.5273,102.495 55.5273,102.662 53.5,102.5C 53.5,99.5 53.5,96.5 53.5,93.5 Z"/></g>
<g><path style="opacity:1" fill="#deb964" d="M 64.5,93.5 C 65.3138,95.631 65.8138,97.9644 66,100.5C 73.3422,101.877 73.1755,102.544 65.5,102.5C 64.5233,99.7131 64.19,96.7131 64.5,93.5 Z"/></g>
<g><path style="opacity:1" fill="#d07a2c" d="M 27.5,100.5 C 29.5441,101.031 31.2107,102.198 32.5,104C 29.6318,104.64 27.9651,103.473 27.5,100.5 Z"/></g>
<g><path style="opacity:0.639" fill="#331a10" d="M 19.5,104.5 C 22.0892,105.419 24.0892,107.086 25.5,109.5C 22.9108,108.581 20.9108,106.914 19.5,104.5 Z"/></g>
<g><path style="opacity:1" fill="#b2894a" d="M 108.5,97.5 C 106.167,101.833 102.833,105.167 98.5,107.5C 101.5,103.833 104.833,100.5 108.5,97.5 Z"/></g>
<g><path style="opacity:1" fill="#b98441" d="M 34.5,104.5 C 36.4646,104.948 36.7979,105.948 35.5,107.5C 34.6143,106.675 34.281,105.675 34.5,104.5 Z"/></g>
<g><path style="opacity:1" fill="#d0ac60" d="M 51.5,107.5 C 53.1667,107.5 54.8333,107.5 56.5,107.5C 60.6344,108.485 64.9677,108.818 69.5,108.5C 67.3587,109.163 65.0254,109.497 62.5,109.5C 58.5527,109.637 54.886,108.97 51.5,107.5 Z"/></g>
<g><path style="opacity:1" fill="#6d3314" d="M 121.5,78.5 C 117,97.6651 105.666,110.998 87.5,118.5C 89.3149,117.061 89.9816,115.394 89.5,113.5C 90.4363,112.026 91.7697,111.026 93.5,110.5C 94.922,109.075 96.5887,108.075 98.5,107.5C 102.833,105.167 106.167,101.833 108.5,97.5C 110.837,93.4921 113.17,89.4921 115.5,85.5C 116.8,82.5677 118.8,80.2344 121.5,78.5 Z"/></g>
<g><path style="opacity:1" fill="#c08737" d="M 42.5,110.5 C 41.0527,111.885 40.0527,111.552 39.5,109.5C 41.1959,107.871 42.1959,108.204 42.5,110.5 Z"/></g>
<g><path style="opacity:1" fill="#090710" d="M 90.5,106.5 C 90.5,107.167 90.8333,107.5 91.5,107.5C 92.5511,108.222 93.2178,109.222 93.5,110.5C 91.7697,111.026 90.4363,112.026 89.5,113.5C 85.6052,114.462 81.9385,115.796 78.5,117.5C 68.5,118.833 58.5,118.833 48.5,117.5C 44.1555,115.994 40.1555,113.994 36.5,111.5C 36.9731,110.094 37.9731,109.427 39.5,109.5C 40.0527,111.552 41.0527,111.885 42.5,110.5C 43.2223,109.449 44.2223,108.782 45.5,108.5C 55.7628,111.855 66.0961,112.188 76.5,109.5C 78.1992,109.34 79.8659,109.506 81.5,110C 80.5842,110.278 79.9175,110.778 79.5,111.5C 69.0017,114.108 58.5017,114.108 48,111.5C 44.937,111.935 44.7703,112.768 47.5,114C 57.824,117.279 68.1573,117.279 78.5,114C 80.3197,113.8 81.653,112.966 82.5,111.5C 82.1307,109.007 82.7973,108.34 84.5,109.5C 84.8212,111.048 85.8212,111.715 87.5,111.5C 87.5,110.5 87.5,109.5 87.5,108.5C 87.8212,106.952 88.8212,106.285 90.5,106.5 Z"/></g>
<g><path style="opacity:1" fill="#af7435" d="M 79.5,111.5 C 80.5,111.5 81.5,111.5 82.5,111.5C 81.653,112.966 80.3197,113.8 78.5,114C 68.1573,117.279 57.824,117.279 47.5,114C 44.7703,112.768 44.937,111.935 48,111.5C 58.5017,114.108 69.0017,114.108 79.5,111.5 Z"/></g>
<g><path style="opacity:1" fill="#a1662d" d="M 87.5,108.5 C 87.5,109.5 87.5,110.5 87.5,111.5C 85.8212,111.715 84.8212,111.048 84.5,109.5C 85.209,108.596 86.209,108.263 87.5,108.5 Z"/></g>
<g><path style="opacity:1" fill="#853913" d="M 25.5,109.5 C 27.7638,110.219 30.0971,110.552 32.5,110.5C 33.8333,110.833 35.1667,111.167 36.5,111.5C 40.1555,113.994 44.1555,115.994 48.5,117.5C 58.488,121.391 68.488,121.391 78.5,117.5C 81.9385,115.796 85.6052,114.462 89.5,113.5C 89.9816,115.394 89.3149,117.061 87.5,118.5C 76.3004,121.067 64.9671,121.9 53.5,121C 47.5079,119.39 41.5079,117.89 35.5,116.5C 31.4584,115.149 28.1251,112.815 25.5,109.5 Z"/></g>
<g><path style="opacity:1" fill="#9c7140" d="M 48.5,117.5 C 58.5,118.833 68.5,118.833 78.5,117.5C 68.488,121.391 58.488,121.391 48.5,117.5 Z"/></g>
<g><path style="opacity:1" fill="#5a2a13" d="M 35.5,116.5 C 41.5079,117.89 47.5079,119.39 53.5,121C 64.9671,121.9 76.3004,121.067 87.5,118.5C 80.2366,122.27 72.4032,123.937 64,123.5C 53.6886,124.009 44.1886,121.676 35.5,116.5 Z"/></g>
</svg>
