<?xml version="1.0" encoding="UTF-8"?>
<!DOCTYPE svg PUBLIC "-//W3C//DTD SVG 1.1//EN" "http://www.w3.org/Graphics/SVG/1.1/DTD/svg11.dtd">
<svg xmlns="http://www.w3.org/2000/svg" version="1.1" width="128px" height="128px" style="shape-rendering:geometricPrecision; text-rendering:geometricPrecision; image-rendering:optimizeQuality; fill-rule:evenodd; clip-rule:evenodd" xmlns:xlink="http://www.w3.org/1999/xlink">
<g><path style="opacity:0.996" fill="#eff2f8" d="M 53.5,0.5 C 53.5,0.166667 53.5,-0.166667 53.5,-0.5C 60.1667,-0.5 66.8333,-0.5 73.5,-0.5C 90.549,2.8565 104.216,11.5232 114.5,25.5C 108.341,24.4917 102.008,22.9917 95.5,21C 89.7184,14.2752 82.385,10.4418 73.5,9.5C 72.9313,5.7483 70.9313,2.91496 67.5,1C 62.8452,0.500847 58.1785,0.334181 53.5,0.5 Z"/></g>
<g><path style="opacity:0.997" fill="#dfe1e6" d="M 48.5,1.5 C 54.2076,1.49242 54.5409,1.99242 49.5,3C 50.8586,4.20446 51.8586,5.70446 52.5,7.5C 54.3983,6.26553 56.065,6.59887 57.5,8.5C 61.6475,9.16699 65.6475,9.83365 69.5,10.5C 66.1667,10.5 62.8333,10.5 59.5,10.5C 53.1372,12.6691 46.8038,14.6691 40.5,16.5C 38.8333,17.8333 37.1667,19.1667 35.5,20.5C 33.901,20.2322 32.5676,20.5655 31.5,21.5C 29.4884,22.0138 27.4884,22.1805 25.5,22C 23.8934,20.951 23.2267,19.451 23.5,17.5C 22.448,17.3505 21.448,17.5172 20.5,18C 18.8863,20.1267 16.8863,21.6267 14.5,22.5C 23.3051,11.4296 34.6385,4.42963 48.5,1.5 Z"/></g>
<g><path style="opacity:1" fill="#898f9c" d="M 59.5,10.5 C 62.8333,10.5 66.1667,10.5 69.5,10.5C 74.7764,13.4939 80.4431,15.4939 86.5,16.5C 83.5,17.1667 80.5,17.8333 77.5,18.5C 72.1353,15.9943 66.4686,14.9943 60.5,15.5C 61.5893,13.8829 63.256,13.0496 65.5,13C 62.9488,12.9977 60.9488,12.1644 59.5,10.5 Z"/></g>
<g><path style="opacity:1" fill="#616271" d="M 59.5,10.5 C 60.9488,12.1644 62.9488,12.9977 65.5,13C 63.256,13.0496 61.5893,13.8829 60.5,15.5C 58.1016,15.2594 56.1016,15.9261 54.5,17.5C 49.7584,18.4893 45.0917,18.156 40.5,16.5C 46.8038,14.6691 53.1372,12.6691 59.5,10.5 Z"/></g>
<g><path style="opacity:1" fill="#463f3f" d="M 60.5,15.5 C 66.4686,14.9943 72.1353,15.9943 77.5,18.5C 79.2774,19.6005 81.2774,20.4338 83.5,21C 87.3981,24.7288 91.0648,28.5621 94.5,32.5C 94.5,35.8333 94.5,39.1667 94.5,42.5C 94.5,45.5 94.5,48.5 94.5,51.5C 94.1667,51.5 93.8333,51.5 93.5,51.5C 93.1667,51.5 92.8333,51.5 92.5,51.5C 93.7617,45.7032 93.7617,40.0366 92.5,34.5C 87.9872,24.6644 80.3205,18.9977 69.5,17.5C 64.6446,16.3093 59.6446,16.3093 54.5,17.5C 56.1016,15.9261 58.1016,15.2594 60.5,15.5 Z"/></g>
<g><path style="opacity:0.996" fill="#e9edf4" d="M 48.5,1.5 C 49.9187,0.548855 51.5853,0.215521 53.5,0.5C 58.1785,0.334181 62.8452,0.500847 67.5,1C 70.9313,2.91496 72.9313,5.7483 73.5,9.5C 82.385,10.4418 89.7184,14.2752 95.5,21C 102.008,22.9917 108.341,24.4917 114.5,25.5C 120.55,31.9358 124.216,39.6024 125.5,48.5C 124.844,47.7222 124.011,47.0556 123,46.5C 116.645,48.1232 110.479,47.6232 104.5,45C 102.714,43.8036 101.381,42.3036 100.5,40.5C 100.81,37.2869 100.477,34.2869 99.5,31.5C 95.511,26.1793 91.1777,21.1793 86.5,16.5C 80.4431,15.4939 74.7764,13.4939 69.5,10.5C 65.6475,9.83365 61.6475,9.16699 57.5,8.5C 56.065,6.59887 54.3983,6.26553 52.5,7.5C 51.8586,5.70446 50.8586,4.20446 49.5,3C 54.5409,1.99242 54.2076,1.49242 48.5,1.5 Z"/></g>
<g><path style="opacity:1" fill="#abafb8" d="M 86.5,16.5 C 91.1777,21.1793 95.511,26.1793 99.5,31.5C 97.8828,32.038 96.2161,32.3713 94.5,32.5C 91.0648,28.5621 87.3981,24.7288 83.5,21C 81.2774,20.4338 79.2774,19.6005 77.5,18.5C 80.5,17.8333 83.5,17.1667 86.5,16.5 Z"/></g>
<g><path style="opacity:1" fill="#e1e4e9" d="M 69.5,17.5 C 67.1667,17.5 64.8333,17.5 62.5,17.5C 53.9665,21.9711 52.4665,28.3044 58,36.5C 59.3712,38.0414 60.8712,39.3747 62.5,40.5C 62.5,42.1667 62.5,43.8333 62.5,45.5C 60.8908,45.0941 59.5575,45.0941 58.5,45.5C 60.7155,48.0871 63.0489,50.5871 65.5,53C 66.3223,55.4339 66.6556,57.9339 66.5,60.5C 65.8826,60.6107 65.3826,60.944 65,61.5C 64,56.1667 63,56.1667 62,61.5C 61.7306,58.357 62.0639,55.357 63,52.5C 58.2112,48.2554 53.8779,43.5887 50,38.5C 47.8009,33.7091 47.1342,28.7091 48,23.5C 50.0714,22.8971 51.2381,21.5638 51.5,19.5C 52.7095,19.0679 53.7095,18.4013 54.5,17.5C 59.6446,16.3093 64.6446,16.3093 69.5,17.5 Z"/></g>
<g><path style="opacity:1" fill="#f6f8fb" d="M 62.5,17.5 C 62.281,18.675 62.6143,19.675 63.5,20.5C 65.5989,18.4658 67.9323,18.1324 70.5,19.5C 70.2907,20.086 69.9574,20.586 69.5,21C 72.4887,21.3304 75.322,22.1638 78,23.5C 78.772,23.3552 79.4387,23.0219 80,22.5C 82.4834,26.4761 84.65,30.4761 86.5,34.5C 86.6296,39.3509 85.7962,44.0175 84,48.5C 83.6667,48.1667 83.3333,47.8333 83,47.5C 79.3954,48.2364 75.8954,49.2364 72.5,50.5C 69.4336,50.0869 66.4336,49.4203 63.5,48.5C 64.6256,42.1056 64.6256,35.439 63.5,28.5C 62.5091,32.4454 62.1758,36.4454 62.5,40.5C 60.8712,39.3747 59.3712,38.0414 58,36.5C 52.4665,28.3044 53.9665,21.9711 62.5,17.5 Z"/></g>
<g><path style="opacity:1" fill="#3f3b47" d="M 40.5,16.5 C 45.0917,18.156 49.7584,18.4893 54.5,17.5C 53.7095,18.4013 52.7095,19.0679 51.5,19.5C 49.847,19.6596 48.5137,20.3263 47.5,21.5C 44.0105,22.3128 41.3438,24.3128 39.5,27.5C 38.5,27.8333 37.8333,28.5 37.5,29.5C 37.1667,29.5 36.8333,29.5 36.5,29.5C 34.8267,30.343 33.66,31.6763 33,33.5C 32.6667,39.8333 32.3333,46.1667 32,52.5C 31.3333,51.1667 30.6667,49.8333 30,48.5C 30.1256,42.4121 29.2923,36.7455 27.5,31.5C 30.1667,27.8333 32.8333,24.1667 35.5,20.5C 37.1667,19.1667 38.8333,17.8333 40.5,16.5 Z"/></g>
<g><path style="opacity:0.998" fill="#d4d7dc" d="M 31.5,21.5 C 27.9149,26.9243 23.7482,31.9243 19,36.5C 17.9893,40.7127 15.4893,43.546 11.5,45C 14.0635,45.763 14.0635,46.263 11.5,46.5C 9.94519,44.8542 8.27853,44.5209 6.5,45.5C 4.39991,41.5187 3.39991,41.6854 3.5,46C 3.74831,47.7159 4.41498,49.2159 5.5,50.5C 4.132,51.5937 2.96533,51.2603 2,49.5C 1.76791,50.7375 1.26791,51.7375 0.5,52.5C 1.96996,40.8989 6.63663,30.8989 14.5,22.5C 16.8863,21.6267 18.8863,20.1267 20.5,18C 21.448,17.5172 22.448,17.3505 23.5,17.5C 23.2267,19.451 23.8934,20.951 25.5,22C 27.4884,22.1805 29.4884,22.0138 31.5,21.5 Z"/></g>
<g><path style="opacity:1" fill="#787a8b" d="M 99.5,31.5 C 100.477,34.2869 100.81,37.2869 100.5,40.5C 100.806,43.3854 100.473,46.0521 99.5,48.5C 99.666,43.1563 99.4994,37.8229 99,32.5C 98.6667,36.8333 98.3333,41.1667 98,45.5C 96.6412,44.635 95.4745,43.635 94.5,42.5C 94.5,39.1667 94.5,35.8333 94.5,32.5C 96.2161,32.3713 97.8828,32.038 99.5,31.5 Z"/></g>
<g><path style="opacity:1" fill="#c6c8cd" d="M 35.5,20.5 C 32.8333,24.1667 30.1667,27.8333 27.5,31.5C 26.6618,31.8417 26.3284,32.5084 26.5,33.5C 26.1667,33.5 25.8333,33.5 25.5,33.5C 24.5,33.8333 23.8333,34.5 23.5,35.5C 21.7773,37.78 21.1107,40.4467 21.5,43.5C 19.7418,47.8673 18.5751,52.534 18,57.5C 15.772,62.137 12.9387,66.3036 9.5,70C 6.89807,71.1396 4.2314,71.9729 1.5,72.5C 1.5,74.5 1.5,76.5 1.5,78.5C 0.833333,76.8333 0.166667,75.1667 -0.5,73.5C -0.5,66.8333 -0.5,60.1667 -0.5,53.5C 0.166667,53.5 0.5,53.1667 0.5,52.5C 1.26791,51.7375 1.76791,50.7375 2,49.5C 2.96533,51.2603 4.132,51.5937 5.5,50.5C 4.41498,49.2159 3.74831,47.7159 3.5,46C 3.39991,41.6854 4.39991,41.5187 6.5,45.5C 8.27853,44.5209 9.94519,44.8542 11.5,46.5C 14.0635,46.263 14.0635,45.763 11.5,45C 15.4893,43.546 17.9893,40.7127 19,36.5C 23.7482,31.9243 27.9149,26.9243 31.5,21.5C 32.5676,20.5655 33.901,20.2322 35.5,20.5 Z"/></g>
<g><path style="opacity:1" fill="#bf7f5a" d="M 35.5,34.5 C 36.4959,34.4142 37.3292,34.7476 38,35.5C 38.9179,42.9722 39.7512,50.3055 40.5,57.5C 41.1667,57.5 41.5,57.8333 41.5,58.5C 39.7669,60.3545 38.7669,62.6879 38.5,65.5C 38.5,66.1667 38.1667,66.5 37.5,66.5C 37.7373,65.209 37.404,64.209 36.5,63.5C 36.5,62.5 36.5,61.5 36.5,60.5C 37.0037,56.8153 37.6704,53.1486 38.5,49.5C 38.4889,47.1459 37.6556,45.1459 36,43.5C 35.502,40.5184 35.3354,37.5184 35.5,34.5 Z"/></g>
<g><path style="opacity:1" fill="#bfbec1" d="M 47.5,21.5 C 44.7798,24.6779 43.9464,28.3445 45,32.5C 47.3507,39.8436 51.684,45.8436 58,50.5C 59.4453,53.7264 60.112,57.0598 60,60.5C 59.3333,59.1667 58.6667,57.8333 58,56.5C 57.6121,57.428 56.9454,58.0946 56,58.5C 54.2725,58.101 52.7725,57.4343 51.5,56.5C 53.1546,55.0761 54.488,53.2427 55.5,51C 49.549,44.9215 44.7156,38.0882 41,30.5C 40.6667,30.8333 40.3333,31.1667 40,31.5C 39.51,30.2068 39.3433,28.8734 39.5,27.5C 41.3438,24.3128 44.0105,22.3128 47.5,21.5 Z"/></g>
<g><path style="opacity:1" fill="#d2c6b8" d="M 92.5,34.5 C 93.7617,40.0366 93.7617,45.7032 92.5,51.5C 92.5,53.1667 92.5,54.8333 92.5,56.5C 91.8333,56.1667 91.1667,55.8333 90.5,55.5C 90.5905,52.8478 89.9238,50.5145 88.5,48.5C 89.5855,43.3041 90.4188,43.3041 91,48.5C 92.3092,43.9342 92.8092,39.2675 92.5,34.5 Z"/></g>
<g><path style="opacity:1" fill="#4f4c5d" d="M 99.5,48.5 C 99.5,49.5 99.5,50.5 99.5,51.5C 98.8826,51.6107 98.3826,51.944 98,52.5C 97.6667,56.5 97.3333,60.5 97,64.5C 96.6667,60.1667 96.3333,55.8333 96,51.5C 95.1768,58.1344 94.6768,58.1344 94.5,51.5C 94.5,48.5 94.5,45.5 94.5,42.5C 95.4745,43.635 96.6412,44.635 98,45.5C 98.3333,41.1667 98.6667,36.8333 99,32.5C 99.4994,37.8229 99.666,43.1563 99.5,48.5 Z"/></g>
<g><path style="opacity:1" fill="#a69da0" d="M 39.5,27.5 C 39.3433,28.8734 39.51,30.2068 40,31.5C 40.3333,31.1667 40.6667,30.8333 41,30.5C 44.7156,38.0882 49.549,44.9215 55.5,51C 54.488,53.2427 53.1546,55.0761 51.5,56.5C 51.1667,56.5 50.8333,56.5 50.5,56.5C 49.3036,53.4574 47.4703,50.7907 45,48.5C 42.7562,43.346 41.0895,38.0127 40,32.5C 39.586,32.9574 39.086,33.2907 38.5,33.5C 37.5713,32.3112 37.238,30.9778 37.5,29.5C 37.8333,28.5 38.5,27.8333 39.5,27.5 Z"/></g>
<g><path style="opacity:1" fill="#e0e3ea" d="M 100.5,40.5 C 101.381,42.3036 102.714,43.8036 104.5,45C 110.479,47.6232 116.645,48.1232 123,46.5C 124.011,47.0556 124.844,47.7222 125.5,48.5C 126.167,50.1667 126.833,51.8333 127.5,53.5C 127.5,60.1667 127.5,66.8333 127.5,73.5C 127.167,73.5 126.833,73.5 126.5,73.5C 126.666,68.4889 126.499,63.4889 126,58.5C 124.902,59.9675 123.402,60.8008 121.5,61C 122.167,61.3333 122.833,61.6667 123.5,62C 120.737,62.5497 118.07,63.3831 115.5,64.5C 114.833,64.1667 114.167,63.8333 113.5,63.5C 114.665,62.4164 115.998,61.5831 117.5,61C 111.433,62.391 106.266,60.891 102,56.5C 101.802,58.3817 101.302,60.0484 100.5,61.5C 99.5206,58.3752 99.1872,55.0419 99.5,51.5C 99.5,50.5 99.5,49.5 99.5,48.5C 100.473,46.0521 100.806,43.3854 100.5,40.5 Z"/></g>
<g><path style="opacity:1" fill="#9d7a6e" d="M 36.5,29.5 C 36.8333,29.5 37.1667,29.5 37.5,29.5C 37.238,30.9778 37.5713,32.3112 38.5,33.5C 39.086,33.2907 39.586,32.9574 40,32.5C 41.0895,38.0127 42.7562,43.346 45,48.5C 47.4703,50.7907 49.3036,53.4574 50.5,56.5C 47.4328,54.8785 44.5995,52.8785 42,50.5C 41.338,52.8127 40.838,55.146 40.5,57.5C 39.7512,50.3055 38.9179,42.9722 38,35.5C 37.3292,34.7476 36.4959,34.4142 35.5,34.5C 35.5,33.8333 35.5,33.1667 35.5,32.5C 36.1098,31.609 36.4431,30.609 36.5,29.5 Z"/></g>
<g><path style="opacity:1" fill="#e0dbd7" d="M 86.5,34.5 C 87.442,33.8712 87.7754,35.2046 87.5,38.5C 87.6594,43.1887 86.4928,47.522 84,51.5C 82.871,53.1412 81.371,54.1412 79.5,54.5C 79.6716,53.5084 79.3382,52.8417 78.5,52.5C 76.1768,51.4179 73.8435,51.5846 71.5,53C 69.6859,55.4795 68.0192,57.9795 66.5,60.5C 66.6556,57.9339 66.3223,55.4339 65.5,53C 63.0489,50.5871 60.7155,48.0871 58.5,45.5C 59.5575,45.0941 60.8908,45.0941 62.5,45.5C 62.5,43.8333 62.5,42.1667 62.5,40.5C 62.1758,36.4454 62.5091,32.4454 63.5,28.5C 64.6256,35.439 64.6256,42.1056 63.5,48.5C 66.4336,49.4203 69.4336,50.0869 72.5,50.5C 75.8954,49.2364 79.3954,48.2364 83,47.5C 83.3333,47.8333 83.6667,48.1667 84,48.5C 85.7962,44.0175 86.6296,39.3509 86.5,34.5 Z"/></g>
<g><path style="opacity:1" fill="#ba7938" d="M 88.5,48.5 C 89.9238,50.5145 90.5905,52.8478 90.5,55.5C 90.1667,55.5 89.8333,55.5 89.5,55.5C 88.7814,53.2362 88.448,50.9029 88.5,48.5 Z"/></g>
<g><path style="opacity:1" fill="#8a4e2e" d="M 35.5,32.5 C 35.5,33.1667 35.5,33.8333 35.5,34.5C 35.3354,37.5184 35.502,40.5184 36,43.5C 37.6556,45.1459 38.4889,47.1459 38.5,49.5C 37.6704,53.1486 37.0037,56.8153 36.5,60.5C 35.7784,60.0825 35.2784,59.4158 35,58.5C 33.1036,49.6596 33.2703,40.9929 35.5,32.5 Z"/></g>
<g><path style="opacity:1" fill="#ecedf0" d="M 62.5,17.5 C 64.8333,17.5 67.1667,17.5 69.5,17.5C 80.3205,18.9977 87.9872,24.6644 92.5,34.5C 92.8092,39.2675 92.3092,43.9342 91,48.5C 90.4188,43.3041 89.5855,43.3041 88.5,48.5C 88.448,50.9029 88.7814,53.2362 89.5,55.5C 89.7678,57.099 89.4345,58.4324 88.5,59.5C 85.4089,58.3792 82.4089,58.7125 79.5,60.5C 77.597,60.7959 75.9303,61.4625 74.5,62.5C 71.8333,62.5 69.1667,62.5 66.5,62.5C 66.5,61.8333 66.5,61.1667 66.5,60.5C 68.0192,57.9795 69.6859,55.4795 71.5,53C 73.8435,51.5846 76.1768,51.4179 78.5,52.5C 75.6717,56.1981 76.005,56.8648 79.5,54.5C 81.371,54.1412 82.871,53.1412 84,51.5C 86.4928,47.522 87.6594,43.1887 87.5,38.5C 87.7754,35.2046 87.442,33.8712 86.5,34.5C 84.65,30.4761 82.4834,26.4761 80,22.5C 79.4387,23.0219 78.772,23.3552 78,23.5C 75.322,22.1638 72.4887,21.3304 69.5,21C 69.9574,20.586 70.2907,20.086 70.5,19.5C 67.9323,18.1324 65.5989,18.4658 63.5,20.5C 62.6143,19.675 62.281,18.675 62.5,17.5 Z"/></g>
<g><path style="opacity:1" fill="#d1904f" d="M 78.5,52.5 C 79.3382,52.8417 79.6716,53.5084 79.5,54.5C 76.005,56.8648 75.6717,56.1981 78.5,52.5 Z"/></g>
<g><path style="opacity:1" fill="#927768" d="M 89.5,55.5 C 89.8333,55.5 90.1667,55.5 90.5,55.5C 91.1667,55.8333 91.8333,56.1667 92.5,56.5C 91.9759,58.3057 91.3092,59.9724 90.5,61.5C 89.8333,61.5 89.1667,61.5 88.5,61.5C 88.5,60.8333 88.5,60.1667 88.5,59.5C 89.4345,58.4324 89.7678,57.099 89.5,55.5 Z"/></g>
<g><path style="opacity:1" fill="#d8d9de" d="M 51.5,19.5 C 51.2381,21.5638 50.0714,22.8971 48,23.5C 47.1342,28.7091 47.8009,33.7091 50,38.5C 53.8779,43.5887 58.2112,48.2554 63,52.5C 62.0639,55.357 61.7306,58.357 62,61.5C 63,56.1667 64,56.1667 65,61.5C 65.3826,60.944 65.8826,60.6107 66.5,60.5C 66.5,61.1667 66.5,61.8333 66.5,62.5C 62.4862,62.6655 58.4862,62.4988 54.5,62C 52.0912,60.2932 49.4245,59.4598 46.5,59.5C 44.8828,58.962 43.2161,58.6287 41.5,58.5C 41.5,57.8333 41.1667,57.5 40.5,57.5C 40.838,55.146 41.338,52.8127 42,50.5C 44.5995,52.8785 47.4328,54.8785 50.5,56.5C 50.8333,56.5 51.1667,56.5 51.5,56.5C 52.7725,57.4343 54.2725,58.101 56,58.5C 56.9454,58.0946 57.6121,57.428 58,56.5C 58.6667,57.8333 59.3333,59.1667 60,60.5C 60.112,57.0598 59.4453,53.7264 58,50.5C 51.684,45.8436 47.3507,39.8436 45,32.5C 43.9464,28.3445 44.7798,24.6779 47.5,21.5C 48.5137,20.3263 49.847,19.6596 51.5,19.5 Z"/></g>
<g><path style="opacity:1" fill="#291c1d" d="M 92.5,51.5 C 92.8333,51.5 93.1667,51.5 93.5,51.5C 93.8205,56.6946 93.4872,61.6946 92.5,66.5C 92.5,65.8333 92.1667,65.5 91.5,65.5C 90.7659,64.2921 90.4326,62.9587 90.5,61.5C 91.3092,59.9724 91.9759,58.3057 92.5,56.5C 92.5,54.8333 92.5,53.1667 92.5,51.5 Z"/></g>
<g><path style="opacity:0.999" fill="#d8dde3" d="M 126.5,73.5 C 126.784,75.4147 126.451,77.0813 125.5,78.5C 125.657,77.1266 125.49,75.7932 125,74.5C 120.426,76.1841 115.593,77.1841 110.5,77.5C 108.837,75.1993 107.003,75.1993 105,77.5C 104.206,74.5285 103.539,71.5285 103,68.5C 102.667,71.1667 102.333,73.8333 102,76.5C 101.826,71.6486 101.326,66.9819 100.5,62.5C 100.5,62.1667 100.5,61.8333 100.5,61.5C 101.302,60.0484 101.802,58.3817 102,56.5C 106.266,60.891 111.433,62.391 117.5,61C 115.998,61.5831 114.665,62.4164 113.5,63.5C 114.167,63.8333 114.833,64.1667 115.5,64.5C 118.07,63.3831 120.737,62.5497 123.5,62C 122.833,61.6667 122.167,61.3333 121.5,61C 123.402,60.8008 124.902,59.9675 126,58.5C 126.499,63.4889 126.666,68.4889 126.5,73.5 Z"/></g>
<g><path style="opacity:1" fill="#1e1721" d="M 28.5,51.5 C 28.3881,59.8442 28.0548,68.1775 27.5,76.5C 26.2799,68.1266 26.6132,59.7933 28.5,51.5 Z"/></g>
<g><path style="opacity:1" fill="#2f1d1c" d="M 36.5,29.5 C 36.4431,30.609 36.1098,31.609 35.5,32.5C 33.2703,40.9929 33.1036,49.6596 35,58.5C 35.2784,59.4158 35.7784,60.0825 36.5,60.5C 36.5,61.5 36.5,62.5 36.5,63.5C 34.5826,66.4908 33.5826,69.8242 33.5,73.5C 32.1861,70.723 31.1861,67.723 30.5,64.5C 29.2251,68.8512 29.2251,73.1845 30.5,77.5C 30.3333,77.8333 30.1667,78.1667 30,78.5C 29.2917,77.6195 28.4584,76.9528 27.5,76.5C 28.0548,68.1775 28.3881,59.8442 28.5,51.5C 26.7671,45.6544 26.1004,39.6544 26.5,33.5C 26.3284,32.5084 26.6618,31.8417 27.5,31.5C 29.2923,36.7455 30.1256,42.4121 30,48.5C 30.6667,49.8333 31.3333,51.1667 32,52.5C 32.3333,46.1667 32.6667,39.8333 33,33.5C 33.66,31.6763 34.8267,30.343 36.5,29.5 Z"/></g>
<g><path style="opacity:1" fill="#fcf164" d="M 48.5,61.5 C 51.4262,62.6976 54.4262,63.6976 57.5,64.5C 57.5,65.1667 57.5,65.8333 57.5,66.5C 53.1508,67.4231 49.8175,66.0898 47.5,62.5C 47.6236,61.8933 47.9569,61.56 48.5,61.5 Z"/></g>
<g><path style="opacity:1" fill="#94796f" d="M 46.5,60.5 C 46.5,60.1667 46.5,59.8333 46.5,59.5C 49.4245,59.4598 52.0912,60.2932 54.5,62C 58.4862,62.4988 62.4862,62.6655 66.5,62.5C 69.1667,62.5 71.8333,62.5 74.5,62.5C 72.3384,63.1276 70.6718,64.461 69.5,66.5C 69.5,67.1667 69.5,67.8333 69.5,68.5C 69.5,69.1667 69.5,69.8333 69.5,70.5C 68.1667,69.8333 67.1667,68.8333 66.5,67.5C 67.576,65.6379 66.9094,64.3046 64.5,63.5C 62.484,64.1776 60.484,64.8443 58.5,65.5C 58.5,64.8333 58.1667,64.5 57.5,64.5C 54.4262,63.6976 51.4262,62.6976 48.5,61.5C 48.1583,60.6618 47.4916,60.3284 46.5,60.5 Z"/></g>
<g><path style="opacity:1" fill="#e26311" d="M 88.5,59.5 C 88.5,60.1667 88.5,60.8333 88.5,61.5C 87.6862,63.631 87.1862,65.9644 87,68.5C 86.6174,69.056 86.1174,69.3893 85.5,69.5C 81.5662,70.3597 77.5662,70.693 73.5,70.5C 72.8333,70.5 72.5,70.1667 72.5,69.5C 74.0764,68.8571 75.4097,67.8571 76.5,66.5C 79.5904,67.17 81.257,66.0033 81.5,63C 81.3158,61.6244 80.6491,60.7911 79.5,60.5C 82.4089,58.7125 85.4089,58.3792 88.5,59.5 Z"/></g>
<g><path style="opacity:1" fill="#6a4131" d="M 66.5,67.5 C 65.1214,65.4031 63.4547,65.0698 61.5,66.5C 60.5116,67.795 59.5116,69.1283 58.5,70.5C 57.2976,71.4054 55.9643,71.4054 54.5,70.5C 55.2613,69.6091 56.2613,68.9424 57.5,68.5C 58.3857,67.675 58.719,66.675 58.5,65.5C 60.484,64.8443 62.484,64.1776 64.5,63.5C 66.9094,64.3046 67.576,65.6379 66.5,67.5 Z"/></g>
<g><path style="opacity:1" fill="#fcec5d" d="M 76.5,66.5 C 74.1667,66.5 71.8333,66.5 69.5,66.5C 70.6718,64.461 72.3384,63.1276 74.5,62.5C 76.5753,62.3016 78.5753,62.1349 80.5,62C 79.3012,63.6943 77.9678,65.1943 76.5,66.5 Z"/></g>
<g><path style="opacity:1" fill="#f3a827" d="M 79.5,60.5 C 80.6491,60.7911 81.3158,61.6244 81.5,63C 81.257,66.0033 79.5904,67.17 76.5,66.5C 77.9678,65.1943 79.3012,63.6943 80.5,62C 78.5753,62.1349 76.5753,62.3016 74.5,62.5C 75.9303,61.4625 77.597,60.7959 79.5,60.5 Z"/></g>
<g><path style="opacity:1" fill="#fbc62b" d="M 46.5,60.5 C 47.4916,60.3284 48.1583,60.6618 48.5,61.5C 47.9569,61.56 47.6236,61.8933 47.5,62.5C 49.8175,66.0898 53.1508,67.4231 57.5,66.5C 52.9929,68.3116 49.1595,67.3116 46,63.5C 45.2599,62.2506 45.4265,61.2506 46.5,60.5 Z"/></g>
<g><path style="opacity:1" fill="#ed8212" d="M 41.5,58.5 C 43.2161,58.6287 44.8828,58.962 46.5,59.5C 46.5,59.8333 46.5,60.1667 46.5,60.5C 45.4265,61.2506 45.2599,62.2506 46,63.5C 49.1595,67.3116 52.9929,68.3116 57.5,66.5C 57.5,65.8333 57.5,65.1667 57.5,64.5C 58.1667,64.5 58.5,64.8333 58.5,65.5C 58.719,66.675 58.3857,67.675 57.5,68.5C 56.2613,68.9424 55.2613,69.6091 54.5,70.5C 53.8333,70.5 53.1667,70.5 52.5,70.5C 52.1667,70.5 51.8333,70.5 51.5,70.5C 49.5739,68.7073 47.2406,67.7073 44.5,67.5C 43.799,65.0916 42.799,62.7582 41.5,60.5C 40.2588,63.537 40.2588,66.537 41.5,69.5C 40.0221,68.5525 39.0221,67.2191 38.5,65.5C 38.7669,62.6879 39.7669,60.3545 41.5,58.5 Z"/></g>
<g><path style="opacity:1" fill="#f8b125" d="M 69.5,66.5 C 71.8333,66.5 74.1667,66.5 76.5,66.5C 75.4097,67.8571 74.0764,68.8571 72.5,69.5C 71.391,69.4431 70.391,69.1098 69.5,68.5C 69.5,67.8333 69.5,67.1667 69.5,66.5 Z"/></g>
<g><path style="opacity:1" fill="#d8d7db" d="M 91.5,65.5 C 92.1667,65.5 92.5,65.8333 92.5,66.5C 92.8271,68.4878 93.1604,70.4878 93.5,72.5C 93.6598,74.3545 92.9931,75.6879 91.5,76.5C 89.5,76.5 87.5,76.5 85.5,76.5C 86.5981,75.603 86.5981,74.7697 85.5,74C 86.5,73.1667 87.5,72.3333 88.5,71.5C 89.1359,69.22 90.1359,67.22 91.5,65.5 Z"/></g>
<g><path style="opacity:1" fill="#e24a01" d="M 51.5,70.5 C 48.0977,70.6576 44.7644,70.3242 41.5,69.5C 40.2588,66.537 40.2588,63.537 41.5,60.5C 42.799,62.7582 43.799,65.0916 44.5,67.5C 47.2406,67.7073 49.5739,68.7073 51.5,70.5 Z"/></g>
<g><path style="opacity:1" fill="#e7b061" d="M 41.5,69.5 C 44.7644,70.3242 48.0977,70.6576 51.5,70.5C 51.8333,70.5 52.1667,70.5 52.5,70.5C 49.3601,71.6408 46.0267,71.8075 42.5,71C 41.944,70.6174 41.6107,70.1174 41.5,69.5 Z"/></g>
<g><path style="opacity:1" fill="#c2bebe" d="M 88.5,61.5 C 89.1667,61.5 89.8333,61.5 90.5,61.5C 90.4326,62.9587 90.7659,64.2921 91.5,65.5C 90.1359,67.22 89.1359,69.22 88.5,71.5C 87.5,72.3333 86.5,73.1667 85.5,74C 86.5981,74.7697 86.5981,75.603 85.5,76.5C 82.1667,76.5 78.8333,76.5 75.5,76.5C 75.5,77.8333 75.5,79.1667 75.5,80.5C 74.7784,80.0825 74.2784,79.4158 74,78.5C 73.6012,78.7284 73.4346,79.0618 73.5,79.5C 71.7868,78.3646 71.1201,76.698 71.5,74.5C 73.8568,74.6633 76.1902,74.4966 78.5,74C 75.2102,73.2751 72.2102,72.1084 69.5,70.5C 69.5,69.8333 69.5,69.1667 69.5,68.5C 70.391,69.1098 71.391,69.4431 72.5,69.5C 72.5,70.1667 72.8333,70.5 73.5,70.5C 76.9758,71.6433 80.6425,71.8099 84.5,71C 85.056,70.6174 85.3893,70.1174 85.5,69.5C 86.1174,69.3893 86.6174,69.056 87,68.5C 87.1862,65.9644 87.6862,63.631 88.5,61.5 Z"/></g>
<g><path style="opacity:1" fill="#eed18c" d="M 85.5,69.5 C 85.3893,70.1174 85.056,70.6174 84.5,71C 80.6425,71.8099 76.9758,71.6433 73.5,70.5C 77.5662,70.693 81.5662,70.3597 85.5,69.5 Z"/></g>
<g><path style="opacity:1" fill="#352f3b" d="M 93.5,51.5 C 93.8333,51.5 94.1667,51.5 94.5,51.5C 94.6768,58.1344 95.1768,58.1344 96,51.5C 96.3333,55.8333 96.6667,60.1667 97,64.5C 97.3333,60.5 97.6667,56.5 98,52.5C 98.3826,51.944 98.8826,51.6107 99.5,51.5C 99.1872,55.0419 99.5206,58.3752 100.5,61.5C 100.5,61.8333 100.5,62.1667 100.5,62.5C 100.74,68.227 100.407,73.8936 99.5,79.5C 94.1222,85.2319 89.4556,91.5652 85.5,98.5C 84.5344,100.396 84.2011,102.396 84.5,104.5C 82.2459,105.415 80.2459,106.748 78.5,108.5C 78.3874,105.951 79.0541,103.618 80.5,101.5C 80.3764,100.893 80.0431,100.56 79.5,100.5C 79.5,98.5 79.5,96.5 79.5,94.5C 79.8333,94.5 80.1667,94.5 80.5,94.5C 82.7715,89.7292 86.4382,86.5625 91.5,85C 89.3162,83.1024 88.9829,80.9358 90.5,78.5C 90.8333,77.8333 91.1667,77.1667 91.5,76.5C 92.9931,75.6879 93.6598,74.3545 93.5,72.5C 93.1604,70.4878 92.8271,68.4878 92.5,66.5C 93.4872,61.6946 93.8205,56.6946 93.5,51.5 Z"/></g>
<g><path style="opacity:1" fill="#dd924b" d="M 36.5,63.5 C 37.404,64.209 37.7373,65.209 37.5,66.5C 36.3622,69.3035 36.1955,72.3035 37,75.5C 37.3826,76.056 37.8826,76.3893 38.5,76.5C 38.1583,77.3382 37.4916,77.6716 36.5,77.5C 34.7376,76.7377 33.7376,75.4044 33.5,73.5C 33.5826,69.8242 34.5826,66.4908 36.5,63.5 Z"/></g>
<g><path style="opacity:1" fill="#af7e64" d="M 61.5,66.5 C 61.5,67.5 61.5,68.5 61.5,69.5C 60.8153,71.4144 60.3153,73.4144 60,75.5C 59.2917,76.3805 58.4584,77.0472 57.5,77.5C 58.2186,75.2362 58.552,72.9029 58.5,70.5C 59.5116,69.1283 60.5116,67.795 61.5,66.5 Z"/></g>
<g><path style="opacity:1" fill="#988a89" d="M 38.5,65.5 C 39.0221,67.2191 40.0221,68.5525 41.5,69.5C 41.6107,70.1174 41.944,70.6174 42.5,71C 46.0267,71.8075 49.3601,71.6408 52.5,70.5C 53.1667,70.5 53.8333,70.5 54.5,70.5C 55.9643,71.4054 57.2976,71.4054 58.5,70.5C 58.552,72.9029 58.2186,75.2362 57.5,77.5C 57.5,79.1667 57.5,80.8333 57.5,82.5C 58.9587,82.4326 60.2921,82.7659 61.5,83.5C 59.7411,83.9539 57.7411,83.9539 55.5,83.5C 55.5,85.5 55.5,87.5 55.5,89.5C 54.8045,85.7685 54.1378,81.9352 53.5,78C 48.9805,77.8247 44.6472,77.3247 40.5,76.5C 45.6708,76.1242 50.6708,74.9575 55.5,73C 52.3624,72.92 49.1957,73.0867 46,73.5C 43.3291,73.7258 40.9958,73.0591 39,71.5C 38.5065,73.1341 38.3398,74.8008 38.5,76.5C 37.8826,76.3893 37.3826,76.056 37,75.5C 36.1955,72.3035 36.3622,69.3035 37.5,66.5C 38.1667,66.5 38.5,66.1667 38.5,65.5 Z"/></g>
<g><path style="opacity:1" fill="#b5b3b8" d="M 40.5,76.5 C 39.8333,76.5 39.1667,76.5 38.5,76.5C 38.3398,74.8008 38.5065,73.1341 39,71.5C 40.9958,73.0591 43.3291,73.7258 46,73.5C 49.1957,73.0867 52.3624,72.92 55.5,73C 50.6708,74.9575 45.6708,76.1242 40.5,76.5 Z"/></g>
<g><path style="opacity:1" fill="#231310" d="M 61.5,69.5 C 63.1439,69.2865 64.6439,69.6198 66,70.5C 66.6377,73.7643 67.8043,76.7643 69.5,79.5C 69.5,80.8333 69.5,82.1667 69.5,83.5C 67.8333,83.5 66.1667,83.5 64.5,83.5C 64.2949,78.6406 63.2949,78.6406 61.5,83.5C 60.2921,82.7659 58.9587,82.4326 57.5,82.5C 57.5,80.8333 57.5,79.1667 57.5,77.5C 58.4584,77.0472 59.2917,76.3805 60,75.5C 60.3153,73.4144 60.8153,71.4144 61.5,69.5 Z"/></g>
<g><path style="opacity:1" fill="#726666" d="M 85.5,76.5 C 87.5,76.5 89.5,76.5 91.5,76.5C 91.1667,77.1667 90.8333,77.8333 90.5,78.5C 87.18,79.8269 83.8467,79.8269 80.5,78.5C 78.4861,78.4365 76.8194,79.1032 75.5,80.5C 75.5,79.1667 75.5,77.8333 75.5,76.5C 78.8333,76.5 82.1667,76.5 85.5,76.5 Z"/></g>
<g><path style="opacity:0.999" fill="#ced2d8" d="M 100.5,62.5 C 101.326,66.9819 101.826,71.6486 102,76.5C 102.333,73.8333 102.667,71.1667 103,68.5C 103.539,71.5285 104.206,74.5285 105,77.5C 107.003,75.1993 108.837,75.1993 110.5,77.5C 115.593,77.1841 120.426,76.1841 125,74.5C 125.49,75.7932 125.657,77.1266 125.5,78.5C 124.272,86.8768 120.938,94.2101 115.5,100.5C 114.426,98.7845 112.759,97.7845 110.5,97.5C 107.6,97.3935 104.6,97.7268 101.5,98.5C 101.321,96.3944 100.321,94.7277 98.5,93.5C 97.8076,94.0253 97.3076,94.6919 97,95.5C 96.3658,92.4453 96.5325,89.4453 97.5,86.5C 98.4067,84.3432 99.0733,82.0098 99.5,79.5C 100.407,73.8936 100.74,68.227 100.5,62.5 Z"/></g>
<g><path style="opacity:1" fill="#221519" d="M 33.5,73.5 C 33.7376,75.4044 34.7376,76.7377 36.5,77.5C 39.3134,79.7185 42.48,80.0519 46,78.5C 48.1782,78.3948 50.0115,79.0615 51.5,80.5C 51.2895,83.9704 50.1229,83.9704 48,80.5C 47.5357,81.0944 47.369,81.7611 47.5,82.5C 47.2786,85.2788 47.612,87.9455 48.5,90.5C 47.9492,93.8067 47.6159,97.1401 47.5,100.5C 46.6981,99.0484 46.1981,97.3817 46,95.5C 44.908,98.0444 44.2414,100.711 44,103.5C 43.8019,101.618 43.3019,99.9516 42.5,98.5C 40.4998,96.329 38.6665,93.9957 37,91.5C 36.2797,89.8876 36.4464,88.3876 37.5,87C 32.6166,84.9505 29.2832,81.4505 27.5,76.5C 28.4584,76.9528 29.2917,77.6195 30,78.5C 30.1667,78.1667 30.3333,77.8333 30.5,77.5C 29.2251,73.1845 29.2251,68.8512 30.5,64.5C 31.1861,67.723 32.1861,70.723 33.5,73.5 Z"/></g>
<g><path style="opacity:1" fill="#8f6b5e" d="M 38.5,76.5 C 39.1667,76.5 39.8333,76.5 40.5,76.5C 44.6472,77.3247 48.9805,77.8247 53.5,78C 54.1378,81.9352 54.8045,85.7685 55.5,89.5C 55.8333,89.5 56.1667,89.5 56.5,89.5C 56.5,91.1667 56.5,92.8333 56.5,94.5C 51.6269,94.627 49.6269,92.2936 50.5,87.5C 51.4959,87.4142 52.3292,87.7476 53,88.5C 53.1667,87.1667 53.3333,85.8333 53.5,84.5C 53.4146,82.6672 52.7479,81.3339 51.5,80.5C 50.0115,79.0615 48.1782,78.3948 46,78.5C 42.48,80.0519 39.3134,79.7185 36.5,77.5C 37.4916,77.6716 38.1583,77.3382 38.5,76.5 Z"/></g>
<g><path style="opacity:1" fill="#582d16" d="M 47.5,82.5 C 48.7368,83.9649 49.7368,85.6316 50.5,87.5C 49.596,88.209 49.2627,89.209 49.5,90.5C 49.1667,90.5 48.8333,90.5 48.5,90.5C 47.612,87.9455 47.2786,85.2788 47.5,82.5 Z"/></g>
<g><path style="opacity:1" fill="#a26944" d="M 51.5,80.5 C 52.7479,81.3339 53.4146,82.6672 53.5,84.5C 53.3333,85.8333 53.1667,87.1667 53,88.5C 52.3292,87.7476 51.4959,87.4142 50.5,87.5C 49.7368,85.6316 48.7368,83.9649 47.5,82.5C 47.369,81.7611 47.5357,81.0944 48,80.5C 50.1229,83.9704 51.2895,83.9704 51.5,80.5 Z"/></g>
<g><path style="opacity:1" fill="#c4bcbb" d="M 69.5,79.5 C 70.4511,80.9187 70.7845,82.5853 70.5,84.5C 68.5,84.5 66.5,84.5 64.5,84.5C 64.2155,86.4147 64.5489,88.0813 65.5,89.5C 67.2798,90.9899 67.9465,92.9899 67.5,95.5C 66.5,95.5 65.5,95.5 64.5,95.5C 63.8333,91.5 63.1667,91.5 62.5,95.5C 61.5,95.5 60.5,95.5 59.5,95.5C 59.1043,92.9556 59.771,90.7889 61.5,89C 59.7191,89.2522 58.0524,89.4189 56.5,89.5C 56.1667,89.5 55.8333,89.5 55.5,89.5C 55.5,87.5 55.5,85.5 55.5,83.5C 57.7411,83.9539 59.7411,83.9539 61.5,83.5C 63.2949,78.6406 64.2949,78.6406 64.5,83.5C 66.1667,83.5 67.8333,83.5 69.5,83.5C 69.5,82.1667 69.5,80.8333 69.5,79.5 Z"/></g>
<g><path style="opacity:1" fill="#dcdce1" d="M 66.5,67.5 C 67.1667,68.8333 68.1667,69.8333 69.5,70.5C 72.2102,72.1084 75.2102,73.2751 78.5,74C 76.1902,74.4966 73.8568,74.6633 71.5,74.5C 71.1201,76.698 71.7868,78.3646 73.5,79.5C 74.6435,82.5023 74.6435,85.5023 73.5,88.5C 70.5641,88.3776 67.8974,88.711 65.5,89.5C 64.5489,88.0813 64.2155,86.4147 64.5,84.5C 66.5,84.5 68.5,84.5 70.5,84.5C 70.7845,82.5853 70.4511,80.9187 69.5,79.5C 67.8043,76.7643 66.6377,73.7643 66,70.5C 64.6439,69.6198 63.1439,69.2865 61.5,69.5C 61.5,68.5 61.5,67.5 61.5,66.5C 63.4547,65.0698 65.1214,65.4031 66.5,67.5 Z"/></g>
<g><path style="opacity:1" fill="#a89890" d="M 75.5,80.5 C 75.3691,81.3764 75.7025,82.0431 76.5,82.5C 78.8857,81.0116 79.5524,81.3449 78.5,83.5C 77.1332,86.268 76.1332,89.268 75.5,92.5C 73.2546,94.6227 70.5879,95.6227 67.5,95.5C 67.9465,92.9899 67.2798,90.9899 65.5,89.5C 67.8974,88.711 70.5641,88.3776 73.5,88.5C 74.6435,85.5023 74.6435,82.5023 73.5,79.5C 73.4346,79.0618 73.6012,78.7284 74,78.5C 74.2784,79.4158 74.7784,80.0825 75.5,80.5 Z"/></g>
<g><path style="opacity:1" fill="#1e1415" d="M 90.5,78.5 C 88.9829,80.9358 89.3162,83.1024 91.5,85C 86.4382,86.5625 82.7715,89.7292 80.5,94.5C 79.8333,90.8333 79.1667,87.1667 78.5,83.5C 79.5524,81.3449 78.8857,81.0116 76.5,82.5C 75.7025,82.0431 75.3691,81.3764 75.5,80.5C 76.8194,79.1032 78.4861,78.4365 80.5,78.5C 83.8467,79.8269 87.18,79.8269 90.5,78.5 Z"/></g>
<g><path style="opacity:1" fill="#7f685f" d="M 56.5,89.5 C 58.0524,89.4189 59.7191,89.2522 61.5,89C 59.771,90.7889 59.1043,92.9556 59.5,95.5C 58.209,95.7373 57.209,95.404 56.5,94.5C 58.8507,93.0839 58.8507,91.4172 56.5,89.5 Z"/></g>
<g><path style="opacity:1" fill="#544147" d="M 25.5,33.5 C 25.8333,33.5 26.1667,33.5 26.5,33.5C 26.1004,39.6544 26.7671,45.6544 28.5,51.5C 26.6132,59.7933 26.2799,68.1266 27.5,76.5C 29.2832,81.4505 32.6166,84.9505 37.5,87C 36.4464,88.3876 36.2797,89.8876 37,91.5C 38.6665,93.9957 40.4998,96.329 42.5,98.5C 42.5,100.5 42.5,102.5 42.5,104.5C 41.8333,103.5 41.1667,102.5 40.5,101.5C 39.8333,101.167 39.1667,100.833 38.5,100.5C 35.7657,98.0792 33.7657,95.0792 32.5,91.5C 31.2638,90.7542 29.9305,90.4208 28.5,90.5C 28.046,87.8602 26.8793,85.5268 25,83.5C 24.5005,77.1754 24.3338,70.8421 24.5,64.5C 24.5792,54.2979 24.9125,43.9645 25.5,33.5 Z"/></g>
<g><path style="opacity:1" fill="#c6cbd1" d="M 97.5,86.5 C 96.5325,89.4453 96.3658,92.4453 97,95.5C 97.3076,94.6919 97.8076,94.0253 98.5,93.5C 100.321,94.7277 101.321,96.3944 101.5,98.5C 104.6,97.7268 107.6,97.3935 110.5,97.5C 112.759,97.7845 114.426,98.7845 115.5,100.5C 110.833,107.167 105.167,112.833 98.5,117.5C 98.5858,116.504 98.2524,115.671 97.5,115C 93.5889,114.695 90.2556,113.195 87.5,110.5C 89.3186,104.575 91.1519,98.5752 93,92.5C 94.2775,90.2528 95.7775,88.2528 97.5,86.5 Z"/></g>
<g><path style="opacity:1" fill="#706976" d="M 24.5,64.5 C 24.3338,70.8421 24.5005,77.1754 25,83.5C 26.8793,85.5268 28.046,87.8602 28.5,90.5C 29.9305,90.4208 31.2638,90.7542 32.5,91.5C 33.7657,95.0792 35.7657,98.0792 38.5,100.5C 36.8333,99.8333 35.1667,99.1667 33.5,98.5C 33.4894,96.9826 32.8228,95.8159 31.5,95C 29.1218,94.4888 26.7885,93.8221 24.5,93C 23.8742,92.2496 23.3742,91.4162 23,90.5C 22.6912,81.6501 23.1912,72.9835 24.5,64.5 Z"/></g>
<g><path style="opacity:1" fill="#bbbabe" d="M 56.5,89.5 C 58.8507,91.4172 58.8507,93.0839 56.5,94.5C 56.5,92.8333 56.5,91.1667 56.5,89.5 Z"/></g>
<g><path style="opacity:1" fill="#837d8a" d="M 25.5,33.5 C 24.9125,43.9645 24.5792,54.2979 24.5,64.5C 23.1912,72.9835 22.6912,81.6501 23,90.5C 23.3742,91.4162 23.8742,92.2496 24.5,93C 26.7885,93.8221 29.1218,94.4888 31.5,95C 32.8228,95.8159 33.4894,96.9826 33.5,98.5C 25.9021,98.7146 21.5688,95.2146 20.5,88C 21.8577,80.899 22.5243,73.7324 22.5,66.5C 23.4,56.1985 23.7333,45.8652 23.5,35.5C 23.8333,34.5 24.5,33.8333 25.5,33.5 Z"/></g>
<g><path style="opacity:1" fill="#47322b" d="M 78.5,83.5 C 79.1667,87.1667 79.8333,90.8333 80.5,94.5C 80.1667,94.5 79.8333,94.5 79.5,94.5C 78.6981,93.0484 78.1981,91.3817 78,89.5C 77.5065,91.1341 77.3398,92.8008 77.5,94.5C 74.1156,96.0624 71.9489,98.7291 71,102.5C 69.5057,98.6959 68.6724,99.0293 68.5,103.5C 67.8333,103.833 67.1667,104.167 66.5,104.5C 67.038,102.883 67.3713,101.216 67.5,99.5C 67.5,98.5 67.5,97.5 67.5,96.5C 64.6146,96.8064 61.9479,96.4731 59.5,95.5C 60.5,95.5 61.5,95.5 62.5,95.5C 63.1667,91.5 63.8333,91.5 64.5,95.5C 65.5,95.5 66.5,95.5 67.5,95.5C 70.5879,95.6227 73.2546,94.6227 75.5,92.5C 76.1332,89.268 77.1332,86.268 78.5,83.5 Z"/></g>
<g><path style="opacity:1" fill="#2c1714" d="M 50.5,87.5 C 49.6269,92.2936 51.6269,94.627 56.5,94.5C 57.209,95.404 58.209,95.7373 59.5,95.5C 61.9479,96.4731 64.6146,96.8064 67.5,96.5C 67.5,97.5 67.5,98.5 67.5,99.5C 65.8333,99.5 64.1667,99.5 62.5,99.5C 61.8333,99.5 61.1667,99.5 60.5,99.5C 54.537,99.1866 50.8703,96.1866 49.5,90.5C 49.2627,89.209 49.596,88.209 50.5,87.5 Z"/></g>
<g><path style="opacity:1" fill="#a7978e" d="M 77.5,94.5 C 76.7288,99.2787 74.0622,102.612 69.5,104.5C 68.8933,104.376 68.56,104.043 68.5,103.5C 68.6724,99.0293 69.5057,98.6959 71,102.5C 71.9489,98.7291 74.1156,96.0624 77.5,94.5 Z"/></g>
<g><path style="opacity:1" fill="#b5b6bb" d="M 60.5,99.5 C 61.1667,99.5 61.8333,99.5 62.5,99.5C 62.5,101.167 62.5,102.833 62.5,104.5C 61.0687,103.22 60.4021,101.553 60.5,99.5 Z"/></g>
<g><path style="opacity:1" fill="#7d645e" d="M 48.5,90.5 C 48.8333,90.5 49.1667,90.5 49.5,90.5C 50.8703,96.1866 54.537,99.1866 60.5,99.5C 60.4021,101.553 61.0687,103.22 62.5,104.5C 61.2073,105.645 60.0407,105.311 59,103.5C 58.5,104 58,104.5 57.5,105C 61.3955,106.694 61.0622,107.86 56.5,108.5C 56.8627,109.183 57.1961,109.85 57.5,110.5C 52.5222,108.856 49.1889,105.522 47.5,100.5C 47.6159,97.1401 47.9492,93.8067 48.5,90.5 Z"/></g>
<g><path style="opacity:1" fill="#bcc0c6" d="M 99.5,79.5 C 99.0733,82.0098 98.4067,84.3432 97.5,86.5C 95.7775,88.2528 94.2775,90.2528 93,92.5C 91.1519,98.5752 89.3186,104.575 87.5,110.5C 90.2556,113.195 93.5889,114.695 97.5,115C 98.2524,115.671 98.5858,116.504 98.5,117.5C 90.6624,122.258 82.3291,125.592 73.5,127.5C 66.8333,127.5 60.1667,127.5 53.5,127.5C 53.5,127.167 53.5,126.833 53.5,126.5C 56.8984,126.82 60.2317,126.487 63.5,125.5C 68.9053,122.27 73.9053,118.436 78.5,114C 80.4641,112.549 81.7974,110.716 82.5,108.5C 83.1667,107.167 83.8333,105.833 84.5,104.5C 84.2011,102.396 84.5344,100.396 85.5,98.5C 89.4556,91.5652 94.1222,85.2319 99.5,79.5 Z"/></g>
<g><path style="opacity:1" fill="#92929d" d="M 22.5,66.5 C 22.5243,73.7324 21.8577,80.899 20.5,88C 21.5688,95.2146 25.9021,98.7146 33.5,98.5C 35.1667,99.1667 36.8333,99.8333 38.5,100.5C 38.5041,105.157 40.0041,109.157 43,112.5C 44.15,116.112 44.9834,119.778 45.5,123.5C 44.5,123.5 43.5,123.5 42.5,123.5C 41.4049,117.477 39.2382,111.81 36,106.5C 32.0831,102.291 27.2498,99.7911 21.5,99C 20.2125,97.5905 19.0458,96.0905 18,94.5C 17.1725,90.1287 17.3391,85.7953 18.5,81.5C 19.086,81.2907 19.586,80.9574 20,80.5C 20.222,75.5878 21.0554,70.9211 22.5,66.5 Z"/></g>
<g><path style="opacity:0.998" fill="#b4b8be" d="M 21.5,43.5 C 20.2133,60.8837 16.88,77.8837 11.5,94.5C 12.373,96.4134 13.373,98.2467 14.5,100C 20.1293,105.057 26.296,109.224 33,112.5C 34.0641,114.269 35.2308,115.936 36.5,117.5C 35.5676,118.98 35.5676,120.313 36.5,121.5C 17.8371,112.839 6.17047,98.506 1.5,78.5C 1.5,76.5 1.5,74.5 1.5,72.5C 4.2314,71.9729 6.89807,71.1396 9.5,70C 12.9387,66.3036 15.772,62.137 18,57.5C 18.5751,52.534 19.7418,47.8673 21.5,43.5 Z"/></g>
<g><path style="opacity:1" fill="#a19997" d="M 62.5,99.5 C 64.1667,99.5 65.8333,99.5 67.5,99.5C 67.3713,101.216 67.038,102.883 66.5,104.5C 65.4498,107.492 64.1165,110.326 62.5,113C 63.448,113.483 64.448,113.649 65.5,113.5C 62.241,114.669 59.5744,113.669 57.5,110.5C 57.1961,109.85 56.8627,109.183 56.5,108.5C 61.0622,107.86 61.3955,106.694 57.5,105C 58,104.5 58.5,104 59,103.5C 60.0407,105.311 61.2073,105.645 62.5,104.5C 62.5,102.833 62.5,101.167 62.5,99.5 Z"/></g>
<g><path style="opacity:1" fill="#a4a6ae" d="M 23.5,35.5 C 23.7333,45.8652 23.4,56.1985 22.5,66.5C 21.0554,70.9211 20.222,75.5878 20,80.5C 19.586,80.9574 19.086,81.2907 18.5,81.5C 17.3391,85.7953 17.1725,90.1287 18,94.5C 19.0458,96.0905 20.2125,97.5905 21.5,99C 27.2498,99.7911 32.0831,102.291 36,106.5C 39.2382,111.81 41.4049,117.477 42.5,123.5C 43.5,123.5 44.5,123.5 45.5,123.5C 46.5,124.167 47.5,124.833 48.5,125.5C 44.0845,125.139 40.0845,123.806 36.5,121.5C 35.5676,120.313 35.5676,118.98 36.5,117.5C 35.2308,115.936 34.0641,114.269 33,112.5C 26.296,109.224 20.1293,105.057 14.5,100C 13.373,98.2467 12.373,96.4134 11.5,94.5C 16.88,77.8837 20.2133,60.8837 21.5,43.5C 21.1107,40.4467 21.7773,37.78 23.5,35.5 Z"/></g>
<g><path style="opacity:1" fill="#c1c2c5" d="M 79.5,94.5 C 79.5,96.5 79.5,98.5 79.5,100.5C 76.7445,106.923 72.0778,111.257 65.5,113.5C 64.448,113.649 63.448,113.483 62.5,113C 64.1165,110.326 65.4498,107.492 66.5,104.5C 67.1667,104.167 67.8333,103.833 68.5,103.5C 68.56,104.043 68.8933,104.376 69.5,104.5C 74.0622,102.612 76.7288,99.2787 77.5,94.5C 77.3398,92.8008 77.5065,91.1341 78,89.5C 78.1981,91.3817 78.6981,93.0484 79.5,94.5 Z"/></g>
<g><path style="opacity:1" fill="#272127" d="M 47.5,100.5 C 49.1889,105.522 52.5222,108.856 57.5,110.5C 59.5744,113.669 62.241,114.669 65.5,113.5C 72.0778,111.257 76.7445,106.923 79.5,100.5C 80.0431,100.56 80.3764,100.893 80.5,101.5C 79.0541,103.618 78.3874,105.951 78.5,108.5C 76.0365,110.461 73.7032,112.628 71.5,115C 66.1667,115.667 60.8333,115.667 55.5,115C 50.6604,111.941 46.3271,108.441 42.5,104.5C 42.5,102.5 42.5,100.5 42.5,98.5C 43.3019,99.9516 43.8019,101.618 44,103.5C 44.2414,100.711 44.908,98.0444 46,95.5C 46.1981,97.3817 46.6981,99.0484 47.5,100.5 Z"/></g>
<g><path style="opacity:1" fill="#504c57" d="M 40.5,101.5 C 41.1667,102.5 41.8333,103.5 42.5,104.5C 46.3271,108.441 50.6604,111.941 55.5,115C 60.8333,115.667 66.1667,115.667 71.5,115C 73.7032,112.628 76.0365,110.461 78.5,108.5C 80.2459,106.748 82.2459,105.415 84.5,104.5C 83.8333,105.833 83.1667,107.167 82.5,108.5C 79.4552,111.547 76.1219,114.213 72.5,116.5C 65.7846,120.071 59.1179,120.071 52.5,116.5C 51.7717,114.807 50.7717,113.307 49.5,112C 44.0926,110.435 41.0926,106.935 40.5,101.5 Z"/></g>
<g><path style="opacity:1" fill="#605e6c" d="M 38.5,100.5 C 39.1667,100.833 39.8333,101.167 40.5,101.5C 41.0926,106.935 44.0926,110.435 49.5,112C 50.7717,113.307 51.7717,114.807 52.5,116.5C 59.1179,120.071 65.7846,120.071 72.5,116.5C 71.7101,117.794 70.7101,118.961 69.5,120C 62.8231,123.172 55.8231,125.005 48.5,125.5C 47.5,124.833 46.5,124.167 45.5,123.5C 44.9834,119.778 44.15,116.112 43,112.5C 40.0041,109.157 38.5041,105.157 38.5,100.5 Z"/></g>
<g><path style="opacity:1" fill="#7c7d8b" d="M 82.5,108.5 C 81.7974,110.716 80.4641,112.549 78.5,114C 73.9053,118.436 68.9053,122.27 63.5,125.5C 60.2317,126.487 56.8984,126.82 53.5,126.5C 51.5853,126.784 49.9187,126.451 48.5,125.5C 55.8231,125.005 62.8231,123.172 69.5,120C 70.7101,118.961 71.7101,117.794 72.5,116.5C 76.1219,114.213 79.4552,111.547 82.5,108.5 Z"/></g>
</svg>
