<?xml version="1.0" encoding="UTF-8"?>
<!DOCTYPE svg PUBLIC "-//W3C//DTD SVG 1.1//EN" "http://www.w3.org/Graphics/SVG/1.1/DTD/svg11.dtd">
<svg xmlns="http://www.w3.org/2000/svg" version="1.1" width="96px" height="96px" style="shape-rendering:geometricPrecision; text-rendering:geometricPrecision; image-rendering:optimizeQuality; fill-rule:evenodd; clip-rule:evenodd" xmlns:xlink="http://www.w3.org/1999/xlink">
<g><path style="opacity:1" fill="#feebd1" d="M 75.5,11.5 C 72.6697,10.6492 70.003,11.3159 67.5,13.5C 66.3279,13.0814 65.3279,12.4147 64.5,11.5C 63.7492,12.376 63.2492,13.376 63,14.5C 60.4291,13.7547 57.9291,13.4213 55.5,13.5C 50.7285,14.9245 45.8952,15.9245 41,16.5C 39.2015,16.2795 37.3682,15.9461 35.5,15.5C 29.7633,16.7262 24.0966,17.7262 18.5,18.5C 16.0789,18.024 13.7456,17.6907 11.5,17.5C 28.7263,-0.612433 48.7263,-3.7791 71.5,8C 73.0931,8.94873 74.4264,10.1154 75.5,11.5 Z"/></g>
<g><path style="opacity:1" fill="#ffe4cb" d="M 75.5,11.5 C 77.9113,12.517 79.578,14.1837 80.5,16.5C 74.1112,19.4891 67.6112,20.1557 61,18.5C 57.9494,19.812 54.7827,20.812 51.5,21.5C 49.1595,20.7849 46.6595,20.4516 44,20.5C 37.7132,21.8291 31.3798,22.8291 25,23.5C 21.2074,23.0772 17.3741,22.7439 13.5,22.5C 11.3967,24.0743 9.06333,25.0743 6.5,25.5C 7.66933,22.4887 9.336,19.822 11.5,17.5C 13.7456,17.6907 16.0789,18.024 18.5,18.5C 24.0966,17.7262 29.7633,16.7262 35.5,15.5C 37.3682,15.9461 39.2015,16.2795 41,16.5C 45.8952,15.9245 50.7285,14.9245 55.5,13.5C 57.9291,13.4213 60.4291,13.7547 63,14.5C 63.2492,13.376 63.7492,12.376 64.5,11.5C 65.3279,12.4147 66.3279,13.0814 67.5,13.5C 70.003,11.3159 72.6697,10.6492 75.5,11.5 Z"/></g>
<g><path style="opacity:1" fill="#ffddc5" d="M 80.5,16.5 C 82.914,17.9108 84.5806,19.9108 85.5,22.5C 84.2106,24.248 82.7106,24.5814 81,23.5C 79,24.1667 77,24.8333 75,25.5C 73.0932,25.5795 71.0932,25.2461 69,24.5C 68.5,25 68,25.5 67.5,26C 54.3409,26.4548 41.3409,27.4548 28.5,29C 28,29.5 27.5,30 27,30.5C 25.5998,29.8841 24.0998,29.5507 22.5,29.5C 16.1751,30.3139 9.84172,30.9806 3.5,31.5C 3.46095,28.911 4.46095,26.911 6.5,25.5C 9.06333,25.0743 11.3967,24.0743 13.5,22.5C 17.3741,22.7439 21.2074,23.0772 25,23.5C 31.3798,22.8291 37.7132,21.8291 44,20.5C 46.6595,20.4516 49.1595,20.7849 51.5,21.5C 54.7827,20.812 57.9494,19.812 61,18.5C 67.6112,20.1557 74.1112,19.4891 80.5,16.5 Z"/></g>
<g><path style="opacity:1" fill="#fed7bf" d="M 85.5,22.5 C 87.9236,25.0078 89.5903,28.0078 90.5,31.5C 89.2101,30.9423 88.3768,29.9423 88,28.5C 82.7619,31.0242 77.5952,31.6909 72.5,30.5C 58.7003,31.9128 45.2003,33.5795 32,35.5C 30.0539,35.4121 28.0539,35.0788 26,34.5C 20.3737,35.8484 14.8737,37.1817 9.5,38.5C 6.12678,39.0659 3.12678,40.3993 0.5,42.5C 0.431766,38.4296 1.43177,34.763 3.5,31.5C 9.84172,30.9806 16.1751,30.3139 22.5,29.5C 24.0998,29.5507 25.5998,29.8841 27,30.5C 27.5,30 28,29.5 28.5,29C 41.3409,27.4548 54.3409,26.4548 67.5,26C 68,25.5 68.5,25 69,24.5C 71.0932,25.2461 73.0932,25.5795 75,25.5C 77,24.8333 79,24.1667 81,23.5C 82.7106,24.5814 84.2106,24.248 85.5,22.5 Z"/></g>
<g><path style="opacity:1" fill="#fccfb8" d="M 90.5,31.5 C 91.1098,32.391 91.4431,33.391 91.5,34.5C 89.0628,34.7563 86.7294,35.4229 84.5,36.5C 77.5352,36.6149 70.8685,36.6149 64.5,36.5C 60.1815,38.3547 55.8482,38.6881 51.5,37.5C 50.8076,38.0253 50.3076,38.6919 50,39.5C 46.1284,38.678 42.4617,38.678 39,39.5C 36.5324,38.4968 34.0324,37.9968 31.5,38C 33.8418,39.3919 33.8418,40.2252 31.5,40.5C 24.4229,37.41 17.0896,36.7433 9.5,38.5C 14.8737,37.1817 20.3737,35.8484 26,34.5C 28.0539,35.0788 30.0539,35.4121 32,35.5C 45.2003,33.5795 58.7003,31.9128 72.5,30.5C 77.5952,31.6909 82.7619,31.0242 88,28.5C 88.3768,29.9423 89.2101,30.9423 90.5,31.5 Z"/></g>
<g><path style="opacity:1" fill="#fdc8b1" d="M 91.5,34.5 C 93.2728,38.883 94.2728,43.2164 94.5,47.5C 86.9124,43.8356 78.9124,42.669 70.5,44C 67.3793,45.3063 64.7126,47.1397 62.5,49.5C 61.7611,49.631 61.0944,49.4643 60.5,49C 61.5,48 62.5,47 63.5,46C 56.1272,47.0713 48.7939,47.738 41.5,48C 43.5402,50.1851 44.8736,52.6851 45.5,55.5C 44.5,55.1667 43.8333,54.5 43.5,53.5C 42.8333,52.1667 41.8333,51.1667 40.5,50.5C 39.5569,47.8908 37.8903,45.8908 35.5,44.5C 34.1667,43.1667 32.8333,41.8333 31.5,40.5C 33.8418,40.2252 33.8418,39.3919 31.5,38C 34.0324,37.9968 36.5324,38.4968 39,39.5C 42.4617,38.678 46.1284,38.678 50,39.5C 50.3076,38.6919 50.8076,38.0253 51.5,37.5C 55.8482,38.6881 60.1815,38.3547 64.5,36.5C 70.8685,36.6149 77.5352,36.6149 84.5,36.5C 86.7294,35.4229 89.0628,34.7563 91.5,34.5 Z"/></g>
<g><path style="opacity:1" fill="#c47074" d="M 31.5,40.5 C 32.8333,41.8333 34.1667,43.1667 35.5,44.5C 23.9996,45.1566 12.4996,45.8232 1,46.5C 0.517215,45.552 0.350549,44.552 0.5,43.5C 0.5,43.1667 0.5,42.8333 0.5,42.5C 3.12678,40.3993 6.12678,39.0659 9.5,38.5C 17.0896,36.7433 24.4229,37.41 31.5,40.5 Z"/></g>
<g><path style="opacity:1" fill="#e76b6a" d="M 94.5,47.5 C 94.8064,50.3854 94.4731,53.0521 93.5,55.5C 93.5,54.5 93.5,53.5 93.5,52.5C 90.9134,51.1836 87.9134,50.517 84.5,50.5C 77.066,50.9655 69.7326,50.9655 62.5,50.5C 62.5,50.1667 62.5,49.8333 62.5,49.5C 64.7126,47.1397 67.3793,45.3063 70.5,44C 78.9124,42.669 86.9124,43.8356 94.5,47.5 Z"/></g>
<g><path style="opacity:1" fill="#aa6271" d="M -0.5,43.5 C -0.166667,43.5 0.166667,43.5 0.5,43.5C 0.350549,44.552 0.517215,45.552 1,46.5C 12.4996,45.8232 23.9996,45.1566 35.5,44.5C 37.8903,45.8908 39.5569,47.8908 40.5,50.5C 26.8693,50.8118 13.5359,51.8118 0.5,53.5C 0.166667,53.5 -0.166667,53.5 -0.5,53.5C -0.5,50.1667 -0.5,46.8333 -0.5,43.5 Z"/></g>
<g><path style="opacity:1" fill="#fbb9a5" d="M 62.5,49.5 C 62.5,49.8333 62.5,50.1667 62.5,50.5C 60.5956,50.7376 59.2623,51.7376 58.5,53.5C 55.4669,55.016 52.8003,57.016 50.5,59.5C 49.609,58.8902 48.609,58.5569 47.5,58.5C 46.8333,57.5 46.1667,56.5 45.5,55.5C 44.8736,52.6851 43.5402,50.1851 41.5,48C 48.7939,47.738 56.1272,47.0713 63.5,46C 62.5,47 61.5,48 60.5,49C 61.0944,49.4643 61.7611,49.631 62.5,49.5 Z"/></g>
<g><path style="opacity:1" fill="#e55d68" d="M 62.5,50.5 C 69.7326,50.9655 77.066,50.9655 84.5,50.5C 87.9134,50.517 90.9134,51.1836 93.5,52.5C 92.7326,53.172 92.0659,54.0053 91.5,55C 87.4452,55.2315 83.4452,55.7315 79.5,56.5C 73.7589,56.2851 67.9256,56.2851 62,56.5C 60.8333,56.3333 59.6667,56.1667 58.5,56C 59.7736,55.0228 59.7736,54.1894 58.5,53.5C 59.2623,51.7376 60.5956,50.7376 62.5,50.5 Z"/></g>
<g><path style="opacity:1" fill="#985b6d" d="M 40.5,50.5 C 41.8333,51.1667 42.8333,52.1667 43.5,53.5C 29.3337,54.342 15.0004,54.6754 0.5,54.5C 0.5,54.1667 0.5,53.8333 0.5,53.5C 13.5359,51.8118 26.8693,50.8118 40.5,50.5 Z"/></g>
<g><path style="opacity:1" fill="#e55266" d="M 93.5,52.5 C 93.5,53.5 93.5,54.5 93.5,55.5C 93.5,56.1667 93.5,56.8333 93.5,57.5C 88.5007,60.0446 83.5007,62.3779 78.5,64.5C 72.1667,64.5 65.8333,64.5 59.5,64.5C 57.3206,63.3228 54.9872,62.3228 52.5,61.5C 51.8333,60.8333 51.1667,60.1667 50.5,59.5C 52.8003,57.016 55.4669,55.016 58.5,53.5C 59.7736,54.1894 59.7736,55.0228 58.5,56C 59.6667,56.1667 60.8333,56.3333 62,56.5C 67.9256,56.2851 73.7589,56.2851 79.5,56.5C 83.4452,55.7315 87.4452,55.2315 91.5,55C 92.0659,54.0053 92.7326,53.172 93.5,52.5 Z"/></g>
<g><path style="opacity:1" fill="#7d5469" d="M 43.5,53.5 C 43.8333,54.5 44.5,55.1667 45.5,55.5C 46.1667,56.5 46.8333,57.5 47.5,58.5C 40.6334,59.1118 33.8001,59.7785 27,60.5C 18.7596,59.2111 10.2596,59.2111 1.5,60.5C 0.850485,58.5648 0.517151,56.5648 0.5,54.5C 15.0004,54.6754 29.3337,54.342 43.5,53.5 Z"/></g>
<g><path style="opacity:1" fill="#655266" d="M 47.5,58.5 C 48.609,58.5569 49.609,58.8902 50.5,59.5C 51.1667,60.1667 51.8333,60.8333 52.5,61.5C 51.1879,61.8243 50.3546,62.4909 50,63.5C 48.48,62.4933 46.8133,61.8266 45,61.5C 30.7631,62.3977 16.5964,62.731 2.5,62.5C 1.66175,62.1583 1.32842,61.4916 1.5,60.5C 10.2596,59.2111 18.7596,59.2111 27,60.5C 33.8001,59.7785 40.6334,59.1118 47.5,58.5 Z"/></g>
<g><path style="opacity:1" fill="#4f445b" d="M 93.5,57.5 C 92.871,60.3973 91.871,63.064 90.5,65.5C 90.5654,65.0618 90.3988,64.7284 90,64.5C 88.874,65.9436 87.374,66.6102 85.5,66.5C 83.223,65.5217 80.8897,64.8551 78.5,64.5C 83.5007,62.3779 88.5007,60.0446 93.5,57.5 Z"/></g>
<g><path style="opacity:1" fill="#575066" d="M 52.5,61.5 C 54.9872,62.3228 57.3206,63.3228 59.5,64.5C 58.9522,65.7753 57.6188,66.442 55.5,66.5C 45.9095,64.9614 36.2428,64.2947 26.5,64.5C 18.3837,64.5336 10.7171,64.867 3.5,65.5C 2.59603,64.791 2.26269,63.791 2.5,62.5C 16.5964,62.731 30.7631,62.3977 45,61.5C 46.8133,61.8266 48.48,62.4933 50,63.5C 50.3546,62.4909 51.1879,61.8243 52.5,61.5 Z"/></g>
<g><path style="opacity:1" fill="#454f67" d="M 59.5,64.5 C 65.8333,64.5 72.1667,64.5 78.5,64.5C 80.8897,64.8551 83.223,65.5217 85.5,66.5C 87.374,66.6102 88.874,65.9436 90,64.5C 90.3988,64.7284 90.5654,65.0618 90.5,65.5C 90.072,69.244 88.4053,72.244 85.5,74.5C 83.3451,73.0677 81.0118,71.9011 78.5,71C 67.2539,70.2094 55.9206,68.7094 44.5,66.5C 31.2648,67.0406 17.9314,67.7072 4.5,68.5C 3.59603,67.791 3.26269,66.791 3.5,65.5C 10.7171,64.867 18.3837,64.5336 26.5,64.5C 36.2428,64.2947 45.9095,64.9614 55.5,66.5C 57.6188,66.442 58.9522,65.7753 59.5,64.5 Z"/></g>
<g><path style="opacity:1" fill="#3d5871" d="M 85.5,74.5 C 83.9059,77.7642 81.5725,80.4309 78.5,82.5C 80.0594,79.5122 79.0594,77.6789 75.5,77C 67.9163,75.3081 60.2496,74.1415 52.5,73.5C 37.9746,72.9716 23.3079,73.6383 8.5,75.5C 6.90189,73.3021 5.56855,70.9687 4.5,68.5C 17.9314,67.7072 31.2648,67.0406 44.5,66.5C 55.9206,68.7094 67.2539,70.2094 78.5,71C 81.0118,71.9011 83.3451,73.0677 85.5,74.5 Z"/></g>
<g><path style="opacity:1" fill="#3c5f77" d="M 78.5,82.5 C 78.5,83.1667 78.1667,83.5 77.5,83.5C 74.2847,80.2322 70.2847,78.7322 65.5,79C 54.8657,77.5956 44.199,77.2623 33.5,78C 35.4053,79.87 37.5719,81.37 40,82.5C 40.5908,83.4835 40.2575,84.1501 39,84.5C 36.3624,84.3555 33.6958,84.0221 31,83.5C 27.1895,83.8237 23.6895,84.8237 20.5,86.5C 15.8744,83.5422 11.8744,79.8755 8.5,75.5C 23.3079,73.6383 37.9746,72.9716 52.5,73.5C 60.2496,74.1415 67.9163,75.3081 75.5,77C 79.0594,77.6789 80.0594,79.5122 78.5,82.5 Z"/></g>
<g><path style="opacity:1" fill="#436a80" d="M 77.5,83.5 C 73.2597,87.4554 68.2597,90.122 62.5,91.5C 61.6236,91.6309 60.9569,91.2975 60.5,90.5C 62.6241,89.8506 64.6241,89.0173 66.5,88C 63.9966,85.0646 60.9966,83.8979 57.5,84.5C 52.4294,82.9807 47.2628,81.9807 42,81.5C 41.3333,82.1667 41.3333,82.8333 42,83.5C 43.7713,84.3041 45.2713,85.4708 46.5,87C 40.5,87.6667 34.5,88.3333 28.5,89C 29.7383,89.69 29.7383,90.19 28.5,90.5C 25.5152,89.6743 22.8485,88.341 20.5,86.5C 23.6895,84.8237 27.1895,83.8237 31,83.5C 33.6958,84.0221 36.3624,84.3555 39,84.5C 40.2575,84.1501 40.5908,83.4835 40,82.5C 37.5719,81.37 35.4053,79.87 33.5,78C 44.199,77.2623 54.8657,77.5956 65.5,79C 70.2847,78.7322 74.2847,80.2322 77.5,83.5 Z"/></g>
<g><path style="opacity:1" fill="#4b7689" d="M 62.5,91.5 C 51.0421,95.6703 39.7088,95.3369 28.5,90.5C 29.7383,90.19 29.7383,89.69 28.5,89C 34.5,88.3333 40.5,87.6667 46.5,87C 45.2713,85.4708 43.7713,84.3041 42,83.5C 41.3333,82.8333 41.3333,82.1667 42,81.5C 47.2628,81.9807 52.4294,82.9807 57.5,84.5C 60.9966,83.8979 63.9966,85.0646 66.5,88C 64.6241,89.0173 62.6241,89.8506 60.5,90.5C 60.9569,91.2975 61.6236,91.6309 62.5,91.5 Z"/></g>
</svg>
