<?xml version="1.0" encoding="UTF-8"?>
<!DOCTYPE svg PUBLIC "-//W3C//DTD SVG 1.1//EN" "http://www.w3.org/Graphics/SVG/1.1/DTD/svg11.dtd">
<svg xmlns="http://www.w3.org/2000/svg" version="1.1" width="96px" height="96px" style="shape-rendering:geometricPrecision; text-rendering:geometricPrecision; image-rendering:optimizeQuality; fill-rule:evenodd; clip-rule:evenodd" xmlns:xlink="http://www.w3.org/1999/xlink">
<g><path style="opacity:0.938" fill="#f3b929" d="M 66.5,90.5 C 66.5,90.1667 66.5,89.8333 66.5,89.5C 66.3359,86.8127 66.5026,84.146 67,81.5C 69.0714,80.8971 70.2381,79.5638 70.5,77.5C 70.8333,77.5 71.1667,77.5 71.5,77.5C 72.8333,76.5 74.1667,75.5 75.5,74.5C 78.2313,72.9286 80.0646,70.5952 81,67.5C 81.6667,57.5 81.6667,47.5 81,37.5C 76.7757,15.776 63.609,5.44265 41.5,6.5C 26.3779,9.95501 17.3779,19.2883 14.5,34.5C 13.5054,45.3206 13.1721,56.3206 13.5,67.5C 13.0246,70.3126 14.0246,72.3126 16.5,73.5C 19.6876,76.4661 23.0209,79.4661 26.5,82.5C 27.48,85.0865 27.8134,87.7531 27.5,90.5C 4.9892,78.4729 -3.84413,59.8063 1,34.5C 12.2529,6.4543 32.7529,-4.37903 62.5,2C 90.949,15.6695 100.116,37.5029 90,67.5C 84.9498,78.0506 77.1165,85.7172 66.5,90.5 Z"/></g>
<g><path style="opacity:0.993" fill="#f4ba29" d="M 66.5,20.5 C 67.0798,22.7488 68.4131,24.4154 70.5,25.5C 71.793,26.842 72.6264,28.5087 73,30.5C 73.4996,37.1583 73.6663,43.825 73.5,50.5C 72.391,50.4431 71.391,50.1098 70.5,49.5C 66.1127,45.2314 62.1127,45.5647 58.5,50.5C 57.342,59.9911 57.1754,69.6578 58,79.5C 61.8467,82.4938 63.3467,86.4938 62.5,91.5C 57.6931,93.6941 52.5264,94.6941 47,94.5C 41.7455,94.4149 36.5788,93.7482 31.5,92.5C 31.5,90.1667 31.5,87.8333 31.5,85.5C 31.238,84.0222 31.5713,82.6888 32.5,81.5C 33.8139,80.6872 34.9805,79.6872 36,78.5C 36.6667,69.1667 36.6667,59.8333 36,50.5C 31.755,45.2018 27.5883,45.2018 23.5,50.5C 22.8333,50.5 22.1667,50.5 21.5,50.5C 16.865,33.6154 22.1983,21.1154 37.5,13C 46.1264,11.7255 54.4598,12.7255 62.5,16C 64.1918,17.3073 65.5251,18.8073 66.5,20.5 Z"/></g>
<g><path style="opacity:1" fill="#6a6461" d="M 41.5,6.5 C 44.6414,7.32129 47.9748,7.82129 51.5,8C 33.5541,7.2135 22.0541,15.3802 17,32.5C 16.0241,40.1384 15.3574,47.8051 15,55.5C 14.5004,48.5079 14.3337,41.5079 14.5,34.5C 17.3779,19.2883 26.3779,9.95501 41.5,6.5 Z"/></g>
<g><path style="opacity:1" fill="#140f0f" d="M 31.5,85.5 C 30.6981,86.9516 30.1981,88.6183 30,90.5C 28.9239,87.6405 28.0905,84.6405 27.5,81.5C 25.812,80.4787 24.4787,79.1454 23.5,77.5C 23.5,76.1667 23.5,74.8333 23.5,73.5C 23.5,65.8333 23.5,58.1667 23.5,50.5C 27.5883,45.2018 31.755,45.2018 36,50.5C 36.6667,59.8333 36.6667,69.1667 36,78.5C 34.9805,79.6872 33.8139,80.6872 32.5,81.5C 31.5713,82.6888 31.238,84.0222 31.5,85.5 Z"/></g>
<g><path style="opacity:1" fill="#6f510f" d="M 58.5,50.5 C 58.3335,59.8393 58.5002,69.1726 59,78.5C 62.7563,81.1467 64.2563,84.8134 63.5,89.5C 64.5,89.5 65.5,89.5 66.5,89.5C 66.5,89.8333 66.5,90.1667 66.5,90.5C 65.2921,91.2341 63.9587,91.5674 62.5,91.5C 63.3467,86.4938 61.8467,82.4938 58,79.5C 57.1754,69.6578 57.342,59.9911 58.5,50.5 Z"/></g>
<g><path style="opacity:1" fill="#191410" d="M 41.5,6.5 C 63.609,5.44265 76.7757,15.776 81,37.5C 81.6667,47.5 81.6667,57.5 81,67.5C 80.0646,70.5952 78.2313,72.9286 75.5,74.5C 75.5,73.5 75.5,72.5 75.5,71.5C 75.5,65.1667 75.5,58.8333 75.5,52.5C 76.1499,52.8039 76.8165,53.1373 77.5,53.5C 80.3992,38.3808 76.7325,25.2141 66.5,14C 65.8333,13.3333 65.1667,13.3333 64.5,14C 68.877,18.043 72.0436,22.8763 74,28.5C 75.3561,36.0952 75.8561,43.7618 75.5,51.5C 74.8333,51.1667 74.1667,50.8333 73.5,50.5C 73.6663,43.825 73.4996,37.1583 73,30.5C 72.6264,28.5087 71.793,26.842 70.5,25.5C 69.9202,23.2512 68.5869,21.5846 66.5,20.5C 65.5251,18.8073 64.1918,17.3073 62.5,16C 54.4598,12.7255 46.1264,11.7255 37.5,13C 22.1983,21.1154 16.865,33.6154 21.5,50.5C 20.5,50.8333 19.8333,51.5 19.5,52.5C 18.6712,59.6552 18.1712,66.9885 18,74.5C 17.6174,73.944 17.1174,73.6107 16.5,73.5C 15.4918,71.4561 14.4918,69.4561 13.5,67.5C 13.1721,56.3206 13.5054,45.3206 14.5,34.5C 14.3337,41.5079 14.5004,48.5079 15,55.5C 15.3574,47.8051 16.0241,40.1384 17,32.5C 22.0541,15.3802 33.5541,7.2135 51.5,8C 47.9748,7.82129 44.6414,7.32129 41.5,6.5 Z"/></g>
<g><path style="opacity:1" fill="#464444" d="M 27.5,51.5 C 27.56,50.9569 27.8933,50.6236 28.5,50.5C 29.6599,54.4589 29.8265,58.4589 29,62.5C 25.6926,66.1678 24.1926,65.1678 24.5,59.5C 25.4405,62.1251 26.6072,62.1251 28,59.5C 28.8007,56.633 28.6341,53.9664 27.5,51.5 Z"/></g>
<g><path style="opacity:1" fill="#383534" d="M 75.5,52.5 C 75.5,52.1667 75.5,51.8333 75.5,51.5C 75.8561,43.7618 75.3561,36.0952 74,28.5C 72.0436,22.8763 68.877,18.043 64.5,14C 65.1667,13.3333 65.8333,13.3333 66.5,14C 76.7325,25.2141 80.3992,38.3808 77.5,53.5C 76.8165,53.1373 76.1499,52.8039 75.5,52.5 Z"/></g>
<g><path style="opacity:1" fill="#a1791b" d="M 66.5,20.5 C 68.5869,21.5846 69.9202,23.2512 70.5,25.5C 68.4131,24.4154 67.0798,22.7488 66.5,20.5 Z"/></g>
<g><path style="opacity:1" fill="#6d6c6c" d="M 27.5,51.5 C 28.6341,53.9664 28.8007,56.633 28,59.5C 26.6072,62.1251 25.4405,62.1251 24.5,59.5C 23.8283,56.0581 24.8283,53.3914 27.5,51.5 Z"/></g>
<g><path style="opacity:1" fill="#141010" d="M 70.5,49.5 C 70.5,58.8333 70.5,68.1667 70.5,77.5C 70.2381,79.5638 69.0714,80.8971 67,81.5C 66.5026,84.146 66.3359,86.8127 66.5,89.5C 65.5,89.5 64.5,89.5 63.5,89.5C 64.2563,84.8134 62.7563,81.1467 59,78.5C 58.5002,69.1726 58.3335,59.8393 58.5,50.5C 62.1127,45.5647 66.1127,45.2314 70.5,49.5 Z"/></g>
<g><path style="opacity:1" fill="#555351" d="M 62.5,50.5 C 63.7943,52.0478 64.4609,54.0478 64.5,56.5C 64.7586,60.6635 63.2586,63.9969 60,66.5C 59.3333,62.1667 59.3333,57.8333 60,53.5C 61.045,52.6266 61.8783,51.6266 62.5,50.5 Z"/></g>
<g><path style="opacity:1" fill="#de8916" d="M 70.5,49.5 C 71.391,50.1098 72.391,50.4431 73.5,50.5C 74.1667,50.8333 74.8333,51.1667 75.5,51.5C 75.5,51.8333 75.5,52.1667 75.5,52.5C 75.5,58.8333 75.5,65.1667 75.5,71.5C 72.2244,72.1216 70.8911,74.1216 71.5,77.5C 71.1667,77.5 70.8333,77.5 70.5,77.5C 70.5,68.1667 70.5,58.8333 70.5,49.5 Z"/></g>
<g><path style="opacity:1" fill="#fed36f" d="M 19.5,64.5 C 19.5,61.8333 19.5,59.1667 19.5,56.5C 20.1174,56.3893 20.6174,56.056 21,55.5C 21.1667,57 21.3333,58.5 21.5,60C 21.4313,61.9855 20.7647,63.4855 19.5,64.5 Z"/></g>
<g><path style="opacity:1" fill="#f99f1c" d="M 21.5,50.5 C 22.1667,50.5 22.8333,50.5 23.5,50.5C 23.5,58.1667 23.5,65.8333 23.5,73.5C 21.9382,73.2671 20.6049,72.6005 19.5,71.5C 19.5,69.1667 19.5,66.8333 19.5,64.5C 20.7647,63.4855 21.4313,61.9855 21.5,60C 21.3333,58.5 21.1667,57 21,55.5C 20.6174,56.056 20.1174,56.3893 19.5,56.5C 19.5,55.1667 19.5,53.8333 19.5,52.5C 19.8333,51.5 20.5,50.8333 21.5,50.5 Z"/></g>
<g><path style="opacity:1" fill="#8b6918" d="M 13.5,67.5 C 14.4918,69.4561 15.4918,71.4561 16.5,73.5C 14.0246,72.3126 13.0246,70.3126 13.5,67.5 Z"/></g>
<g><path style="opacity:1" fill="#f76202" d="M 75.5,71.5 C 75.5,72.5 75.5,73.5 75.5,74.5C 74.1667,75.5 72.8333,76.5 71.5,77.5C 70.8911,74.1216 72.2244,72.1216 75.5,71.5 Z"/></g>
<g><path style="opacity:1" fill="#f86704" d="M 19.5,71.5 C 20.6049,72.6005 21.9382,73.2671 23.5,73.5C 23.5,74.8333 23.5,76.1667 23.5,77.5C 20.1956,76.8559 18.8622,74.8559 19.5,71.5 Z"/></g>
<g><path style="opacity:1" fill="#835f19" d="M 19.5,52.5 C 19.5,53.8333 19.5,55.1667 19.5,56.5C 19.5,59.1667 19.5,61.8333 19.5,64.5C 19.5,66.8333 19.5,69.1667 19.5,71.5C 18.8622,74.8559 20.1956,76.8559 23.5,77.5C 24.4787,79.1454 25.812,80.4787 27.5,81.5C 28.0905,84.6405 28.9239,87.6405 30,90.5C 30.1981,88.6183 30.6981,86.9516 31.5,85.5C 31.5,87.8333 31.5,90.1667 31.5,92.5C 30.1667,91.8333 28.8333,91.1667 27.5,90.5C 27.8134,87.7531 27.48,85.0865 26.5,82.5C 23.0209,79.4661 19.6876,76.4661 16.5,73.5C 17.1174,73.6107 17.6174,73.944 18,74.5C 18.1712,66.9885 18.6712,59.6552 19.5,52.5 Z"/></g>
</svg>
