<?xml version="1.0" encoding="UTF-8"?>
<!DOCTYPE svg PUBLIC "-//W3C//DTD SVG 1.1//EN" "http://www.w3.org/Graphics/SVG/1.1/DTD/svg11.dtd">
<svg xmlns="http://www.w3.org/2000/svg" version="1.1" width="128px" height="128px" style="shape-rendering:geometricPrecision; text-rendering:geometricPrecision; image-rendering:optimizeQuality; fill-rule:evenodd; clip-rule:evenodd" xmlns:xlink="http://www.w3.org/1999/xlink">
<g><path style="opacity:1" fill="#a5d1a8" d="M 57.5,-0.5 C 61.5,-0.5 65.5,-0.5 69.5,-0.5C 102.96,5.29346 122.294,24.9601 127.5,58.5C 127.5,61.8333 127.5,65.1667 127.5,68.5C 122.167,102.5 102.5,122.167 68.5,127.5C 65.1667,127.5 61.8333,127.5 58.5,127.5C 24.9601,122.294 5.29346,102.96 -0.5,69.5C -0.5,65.5 -0.5,61.5 -0.5,57.5C 5.16667,24.5 24.5,5.16667 57.5,-0.5 Z"/></g>
<g><path style="opacity:1" fill="#221c3e" d="M 55.5,18.5 C 62.998,17.9178 68.998,20.5845 73.5,26.5C 77.4428,23.9135 81.4428,23.9135 85.5,26.5C 85.0233,27.4776 84.3567,28.3109 83.5,29C 88.118,28.0622 91.2847,25.2289 93,20.5C 95.0611,25.2418 94.8944,29.9085 92.5,34.5C 92.8333,34.8333 93.1667,35.1667 93.5,35.5C 100.42,32.9065 104.42,27.9065 105.5,20.5C 113.055,27.9531 115.555,36.9531 113,47.5C 111.444,51.8757 108.944,55.5424 105.5,58.5C 106.806,59.9122 107.64,61.5789 108,63.5C 108.376,70.5095 108.876,77.5095 109.5,84.5C 109.458,87.2586 108.958,89.9253 108,92.5C 107.581,91.3279 106.915,90.3279 106,89.5C 104.489,95.2121 102.822,100.879 101,106.5C 100.333,107.167 99.6667,107.833 99,108.5C 97.8004,104.754 95.6338,101.754 92.5,99.5C 90.8411,103.487 88.6745,107.154 86,110.5C 85.3946,108.519 84.3946,108.185 83,109.5C 81.1622,113.176 79.3289,116.842 77.5,120.5C 76.1667,118.833 74.8333,117.167 73.5,115.5C 72.6922,117.423 72.1922,119.423 72,121.5C 69.2888,118.958 66.7888,116.291 64.5,113.5C 61.9763,115.19 59.9763,117.357 58.5,120C 58.1667,120.167 57.8333,120.333 57.5,120.5C 56.8133,118.726 55.9799,117.059 55,115.5C 53.907,117.349 52.5737,119.016 51,120.5C 49.6104,116.053 47.4438,112.053 44.5,108.5C 43.7492,109.376 43.2492,110.376 43,111.5C 40.052,107.938 37.8854,103.938 36.5,99.5C 33.0879,101.745 30.5879,104.745 29,108.5C 26.2614,102.411 24.2614,96.0777 23,89.5C 22.1667,90.5 21.3333,91.5 20.5,92.5C 20.1667,90.5 19.8333,88.5 19.5,86.5C 20.1107,78.5073 20.6107,70.5073 21,62.5C 21.6377,61.3914 22.1377,60.2247 22.5,59C 11.3466,45.3841 11.8466,32.2175 24,19.5C 23.7554,27.3556 27.2554,32.6889 34.5,35.5C 34.0702,30.4927 34.5702,25.4927 36,20.5C 38.1218,25.9729 41.9551,29.1396 47.5,30C 45.3843,28.8293 44.7176,27.3293 45.5,25.5C 49.1111,24.7382 52.7778,24.2382 56.5,24C 54.9991,22.7485 53.3325,21.7485 51.5,21C 52.8584,20.0656 54.1917,19.2323 55.5,18.5 Z"/></g>
<g><path style="opacity:1" fill="#4a6565" d="M 102.5,84.5 C 103.147,85.2739 103.48,86.2739 103.5,87.5C 102.57,90.3193 101.57,92.986 100.5,95.5C 100.151,90.8885 100.817,87.2218 102.5,84.5 Z"/></g>
<g><path style="opacity:1" fill="#e5e0c7" d="M 39.5,55.5 C 42.7601,56.2264 45.4268,58.0597 47.5,61C 46.101,64.064 43.7676,66.064 40.5,67C 45.0916,67.9463 48.9249,70.1129 52,73.5C 53.5427,70.5809 55.0427,70.2476 56.5,72.5C 57.9041,75.3769 60.2374,77.0435 63.5,77.5C 64.1667,77.5 64.8333,77.5 65.5,77.5C 69.4287,76.5692 72.0953,74.2359 73.5,70.5C 74.4584,70.9528 75.2917,71.6195 76,72.5C 79.8594,70.62 83.6928,68.7867 87.5,67C 84.7172,65.6348 82.7172,63.4682 81.5,60.5C 83.1619,58.3483 85.1619,56.6817 87.5,55.5C 89.4352,56.1495 91.4352,56.4828 93.5,56.5C 93.8333,56.5 94.1667,56.5 94.5,56.5C 94.6716,57.4916 94.3382,58.1583 93.5,58.5C 93.44,57.9569 93.1067,57.6236 92.5,57.5C 91.376,58.914 90.376,60.414 89.5,62C 90.2438,63.0386 91.2438,63.5386 92.5,63.5C 91.6457,65.035 91.6457,66.3684 92.5,67.5C 95.0777,74.7885 95.0777,82.1218 92.5,89.5C 90.9081,90.6016 90.0748,89.935 90,87.5C 88.3343,90.3312 86.1676,92.6645 83.5,94.5C 85.5291,90.5785 86.8625,86.4118 87.5,82C 87.4959,78.6465 86.3292,75.8132 84,73.5C 82.7494,76.3807 80.5827,78.214 77.5,79C 69.2446,80.5721 60.9113,80.9054 52.5,80C 48.7227,78.7098 46.2227,76.2098 45,72.5C 42.7187,75.0632 41.5521,78.0632 41.5,81.5C 42.0355,86.1048 43.3689,90.4381 45.5,94.5C 43.2496,92.756 41.0829,90.756 39,88.5C 38.6798,93.0952 37.8465,93.4286 36.5,89.5C 33.9369,81.9424 33.9369,74.4424 36.5,67C 35.8333,66.6667 35.1667,66.3333 34.5,66C 35.8333,64.6667 37.1667,63.3333 38.5,62C 37.5939,60.3005 37.2606,58.4672 37.5,56.5C 38.1667,56.1667 38.8333,55.8333 39.5,55.5 Z"/></g>
<g><path style="opacity:1" fill="#37384f" d="M 92.5,89.5 C 95.0777,82.1218 95.0777,74.7885 92.5,67.5C 95.1085,64.5333 95.7752,64.8666 94.5,68.5C 96.5468,73.2449 97.0468,78.2449 96,83.5C 95.059,85.7274 93.8923,87.7274 92.5,89.5 Z"/></g>
<g><path style="opacity:1" fill="#20193c" d="M 83.5,94.5 C 81.6614,96.1968 79.828,97.8635 78,99.5C 73.4388,98.1289 68.7722,97.4622 64,97.5C 58.8256,98.0445 53.6589,98.2111 48.5,98C 47.8366,96.4815 46.8366,95.3149 45.5,94.5C 43.3689,90.4381 42.0355,86.1048 41.5,81.5C 41.5521,78.0632 42.7187,75.0632 45,72.5C 46.2227,76.2098 48.7227,78.7098 52.5,80C 60.9113,80.9054 69.2446,80.5721 77.5,79C 80.5827,78.214 82.7494,76.3807 84,73.5C 86.3292,75.8132 87.4959,78.6465 87.5,82C 86.8625,86.4118 85.5291,90.5785 83.5,94.5 Z"/></g>
<g><path style="opacity:1" fill="#aedfb4" d="M 99.5,67.5 C 104.121,72.1909 106.287,77.8576 106,84.5C 104.824,82.8043 103.657,81.1376 102.5,79.5C 101.315,78.1434 100.315,76.6434 99.5,75C 99.3399,72.5066 99.3399,70.0066 99.5,67.5 Z"/></g>
<g><path style="opacity:1" fill="#8cc69e" d="M 73.5,70.5 C 72.0953,74.2359 69.4287,76.5692 65.5,77.5C 66.0553,75.2712 67.3886,73.6046 69.5,72.5C 68.8333,72.1667 68.1667,71.8333 67.5,71.5C 64.8333,71.8333 62.1667,72.1667 59.5,72.5C 61.2065,73.8726 62.5398,75.5393 63.5,77.5C 60.2374,77.0435 57.9041,75.3769 56.5,72.5C 56.4142,71.5041 56.7476,70.6708 57.5,70C 62.8851,69.2665 68.2185,69.4332 73.5,70.5 Z"/></g>
<g><path style="opacity:1" fill="#35354d" d="M 34.5,56.5 C 35.3478,57.625 36.3478,57.625 37.5,56.5C 37.2606,58.4672 37.5939,60.3005 38.5,62C 37.1667,63.3333 35.8333,64.6667 34.5,66C 35.1667,66.3333 35.8333,66.6667 36.5,67C 33.9369,74.4424 33.9369,81.9424 36.5,89.5C 34.2705,86.8104 32.6038,83.8104 31.5,80.5C 30.9231,75.9186 31.9231,71.7519 34.5,68C 33.8333,67.6667 33.1667,67.3333 32.5,67C 33.8485,64.9896 35.1818,62.9896 36.5,61C 35.7464,57.9122 34.5797,57.7455 33,60.5C 32.6522,58.8602 33.1522,57.5268 34.5,56.5 Z"/></g>
<g><path style="opacity:1" fill="#201c3e" d="M 65.5,77.5 C 64.8333,77.5 64.1667,77.5 63.5,77.5C 62.5398,75.5393 61.2065,73.8726 59.5,72.5C 62.1667,72.1667 64.8333,71.8333 67.5,71.5C 68.1667,71.8333 68.8333,72.1667 69.5,72.5C 67.3886,73.6046 66.0553,75.2712 65.5,77.5 Z"/></g>
<g><path style="opacity:1" fill="#b7ebbb" d="M 95.5,51.5 C 97.4799,52.4839 99.1466,53.8173 100.5,55.5C 100.328,56.4916 100.662,57.1583 101.5,57.5C 105.165,61.0812 106.332,65.4145 105,70.5C 103.629,68.9586 102.129,67.6253 100.5,66.5C 99.6016,65.8423 98.6016,65.1757 97.5,64.5C 98.7161,63.9041 100.049,63.7374 101.5,64C 100.167,62 98.5,60.3333 96.5,59C 97.0585,58.2753 97.3918,57.4419 97.5,56.5C 96.8131,54.8228 96.1465,53.1561 95.5,51.5 Z"/></g>
<g><path style="opacity:1" fill="#8bcda0" d="M 46.5,39.5 C 46.6633,41.8568 46.4966,44.1902 46,46.5C 40.5825,48.1092 36.7492,51.4425 34.5,56.5C 33.1522,57.5268 32.6522,58.8602 33,60.5C 34.5797,57.7455 35.7464,57.9122 36.5,61C 35.1818,62.9896 33.8485,64.9896 32.5,67C 33.1667,67.3333 33.8333,67.6667 34.5,68C 31.9231,71.7519 30.9231,75.9186 31.5,80.5C 30.6909,78.7078 30.1909,76.7078 30,74.5C 28.8236,76.1957 27.657,77.8624 26.5,79.5C 22.1431,85.3521 21.3098,84.0188 24,75.5C 25.755,71.9901 27.4216,68.6567 29,65.5C 27,67.5 25,69.5 23,71.5C 22.2369,66.6261 23.4035,62.2928 26.5,58.5C 27.803,56.8577 29.1363,55.1911 30.5,53.5C 33.799,52.0985 34.1323,50.2652 31.5,48C 32.8333,47.6667 34.1667,47.3333 35.5,47C 33.3619,45.5784 32.1953,43.745 32,41.5C 34.3167,44.0965 37.15,44.9299 40.5,44C 39.5842,43.7216 38.9175,43.2216 38.5,42.5C 38.811,41.5222 39.4777,40.8555 40.5,40.5C 41.451,41.3256 42.451,41.4922 43.5,41C 41.9861,39.561 41.6527,38.061 42.5,36.5C 43.2826,38.2882 44.6159,39.2882 46.5,39.5 Z"/></g>
<g><path style="opacity:1" fill="#3f3a53" d="M 93.5,58.5 C 92.5489,59.9187 92.2155,61.5853 92.5,63.5C 91.2438,63.5386 90.2438,63.0386 89.5,62C 90.376,60.414 91.376,58.914 92.5,57.5C 93.1067,57.6236 93.44,57.9569 93.5,58.5 Z"/></g>
<g><path style="opacity:1" fill="#2e2743" d="M 39.5,55.5 C 41.5273,55.3379 43.5273,55.5045 45.5,56C 49.1317,58.6298 52.465,61.6298 55.5,65C 57.0344,65.923 58.701,66.423 60.5,66.5C 64.0923,66.0854 67.759,65.9187 71.5,66C 75.1317,63.3702 78.465,60.3702 81.5,57C 83.3453,55.872 85.3453,55.372 87.5,55.5C 85.1619,56.6817 83.1619,58.3483 81.5,60.5C 82.7172,63.4682 84.7172,65.6348 87.5,67C 83.6928,68.7867 79.8594,70.62 76,72.5C 75.2917,71.6195 74.4584,70.9528 73.5,70.5C 68.2185,69.4332 62.8851,69.2665 57.5,70C 56.7476,70.6708 56.4142,71.5041 56.5,72.5C 55.0427,70.2476 53.5427,70.5809 52,73.5C 48.9249,70.1129 45.0916,67.9463 40.5,67C 43.7676,66.064 46.101,64.064 47.5,61C 45.4268,58.0597 42.7601,56.2264 39.5,55.5 Z"/></g>
<g><path style="opacity:1" fill="#d7cf29" d="M 79.5,62.5 C 81.7188,64.0654 82.0521,66.0654 80.5,68.5C 78.1667,71.1667 75.8333,71.1667 73.5,68.5C 75.1667,67.8333 76.8333,67.1667 78.5,66.5C 77.2113,64.7807 77.5446,63.4474 79.5,62.5 Z"/></g>
<g><path style="opacity:1" fill="#e0d827" d="M 48.5,62.5 C 50.7279,63.3218 51.3946,64.6552 50.5,66.5C 51.8333,67.1667 53.1667,67.8333 54.5,68.5C 48.1294,70.7962 46.1294,68.7962 48.5,62.5 Z"/></g>
<g><path style="opacity:1" fill="#302d48" d="M 48.5,40.5 C 52.2798,46.9468 57.6132,51.6135 64.5,54.5C 70.0625,51.5569 75.0625,47.8902 79.5,43.5C 77.2601,48.9028 73.5934,52.7361 68.5,55C 69.6956,54.3457 69.6956,53.8457 68.5,53.5C 67.1667,54.5 65.8333,55.5 64.5,56.5C 63.1667,55.5 61.8333,54.5 60.5,53.5C 59.8076,54.0253 59.3076,54.6919 59,55.5C 54.5823,51.7533 50.9156,47.4199 48,42.5C 47.3131,44.5675 47.4798,46.5675 48.5,48.5C 46.2338,49.3142 43.9005,49.8142 41.5,50C 38.8334,51.8617 36.5001,54.0284 34.5,56.5C 36.7492,51.4425 40.5825,48.1092 46,46.5C 46.4966,44.1902 46.6633,41.8568 46.5,39.5C 46.3691,38.6236 46.7025,37.9569 47.5,37.5C 48.3857,38.325 48.719,39.325 48.5,40.5 Z"/></g>
<g><path style="opacity:1" fill="#79c296" d="M 48.5,40.5 C 50.371,40.8588 51.871,41.8588 53,43.5C 53.3333,43.1667 53.6667,42.8333 54,42.5C 56.8118,46.1545 60.3118,48.8212 64.5,50.5C 69.6024,46.7176 74.9357,43.3842 80.5,40.5C 79.8902,41.391 79.5569,42.391 79.5,43.5C 75.0625,47.8902 70.0625,51.5569 64.5,54.5C 57.6132,51.6135 52.2798,46.9468 48.5,40.5 Z"/></g>
<g><path style="opacity:1" fill="#f7f3dc" d="M 79.5,43.5 C 80.6499,42.1498 81.3166,42.3164 81.5,44C 80.7665,45.7659 80.4332,47.5992 80.5,49.5C 86.4018,48.9505 90.7352,51.2839 93.5,56.5C 91.4352,56.4828 89.4352,56.1495 87.5,55.5C 85.3453,55.372 83.3453,55.872 81.5,57C 78.465,60.3702 75.1317,63.3702 71.5,66C 67.759,65.9187 64.0923,66.0854 60.5,66.5C 58.701,66.423 57.0344,65.923 55.5,65C 52.465,61.6298 49.1317,58.6298 45.5,56C 43.5273,55.5045 41.5273,55.3379 39.5,55.5C 38.8333,55.8333 38.1667,56.1667 37.5,56.5C 36.3478,57.625 35.3478,57.625 34.5,56.5C 36.5001,54.0284 38.8334,51.8617 41.5,50C 43.9005,49.8142 46.2338,49.3142 48.5,48.5C 47.4798,46.5675 47.3131,44.5675 48,42.5C 50.9156,47.4199 54.5823,51.7533 59,55.5C 59.3076,54.6919 59.8076,54.0253 60.5,53.5C 61.8333,54.5 63.1667,55.5 64.5,56.5C 65.8333,55.5 67.1667,54.5 68.5,53.5C 69.6956,53.8457 69.6956,54.3457 68.5,55C 73.5934,52.7361 77.2601,48.9028 79.5,43.5 Z"/></g>
<g><path style="opacity:1" fill="#302d48" d="M 82.5,39.5 C 82.5,42.1667 82.5,44.8333 82.5,47.5C 88.2057,48.2033 92.2057,51.2033 94.5,56.5C 94.1667,56.5 93.8333,56.5 93.5,56.5C 90.7352,51.2839 86.4018,48.9505 80.5,49.5C 80.4332,47.5992 80.7665,45.7659 81.5,44C 81.3166,42.3164 80.6499,42.1498 79.5,43.5C 79.5569,42.391 79.8902,41.391 80.5,40.5C 80.3668,37.075 81.0335,36.7417 82.5,39.5 Z"/></g>
<g><path style="opacity:1" fill="#c7c1a6" d="M 18.5,35.5 C 18.3359,38.1873 18.5026,40.854 19,43.5C 19.3333,42.5 19.6667,41.5 20,40.5C 22.2574,45.9154 25.7574,50.2487 30.5,53.5C 29.1363,55.1911 27.803,56.8577 26.5,58.5C 19.4087,52.2219 16.742,44.5552 18.5,35.5 Z"/></g>
<g><path style="opacity:1" fill="#a8a391" d="M 110.5,36.5 C 111.997,45.3209 108.997,52.3209 101.5,57.5C 100.662,57.1583 100.328,56.4916 100.5,55.5C 104.214,51.9504 107.381,47.9504 110,43.5C 110.497,41.1902 110.663,38.8568 110.5,36.5 Z"/></g>
<g><path style="opacity:1" fill="#f5f2d9" d="M 35.5,38.5 C 35.7376,40.4044 36.7376,41.7377 38.5,42.5C 38.9175,43.2216 39.5842,43.7216 40.5,44C 37.15,44.9299 34.3167,44.0965 32,41.5C 32.1953,43.745 33.3619,45.5784 35.5,47C 34.1667,47.3333 32.8333,47.6667 31.5,48C 34.1323,50.2652 33.799,52.0985 30.5,53.5C 25.7574,50.2487 22.2574,45.9154 20,40.5C 19.6667,41.5 19.3333,42.5 19,43.5C 18.5026,40.854 18.3359,38.1873 18.5,35.5C 18.3505,34.448 18.5172,33.448 19,32.5C 19.4186,33.6721 20.0853,34.6721 21,35.5C 21.3333,32.8333 21.6667,30.1667 22,27.5C 24.8428,33.175 29.3428,36.8416 35.5,38.5 Z"/></g>
<g><path style="opacity:1" fill="#edead1" d="M 110.5,36.5 C 110.663,38.8568 110.497,41.1902 110,43.5C 107.381,47.9504 104.214,51.9504 100.5,55.5C 99.1466,53.8173 97.4799,52.4839 95.5,51.5C 95.5106,49.9826 96.1772,48.8159 97.5,48C 93.1688,48.1409 92.5022,46.8075 95.5,44C 93.2313,44.3744 90.898,44.3744 88.5,44C 90.7372,42.6004 92.4038,40.767 93.5,38.5C 99.3124,36.6956 103.646,33.029 106.5,27.5C 107.314,29.7662 107.814,32.0995 108,34.5C 108.333,33.5 108.667,32.5 109,31.5C 110.269,32.9047 110.769,34.5714 110.5,36.5 Z"/></g>
<g><path style="opacity:1" fill="#b8e9bc" d="M 88.5,38.5 C 87.8423,39.3984 87.1757,40.3984 86.5,41.5C 86.1667,41.3333 85.8333,41.1667 85.5,41C 88.0996,35.6272 87.0996,35.1272 82.5,39.5C 81.0335,36.7417 80.3668,37.075 80.5,40.5C 74.9357,43.3842 69.6024,46.7176 64.5,50.5C 60.3118,48.8212 56.8118,46.1545 54,42.5C 53.6667,42.8333 53.3333,43.1667 53,43.5C 51.871,41.8588 50.371,40.8588 48.5,40.5C 48.719,39.325 48.3857,38.325 47.5,37.5C 46.7025,37.9569 46.3691,38.6236 46.5,39.5C 44.6159,39.2882 43.2826,38.2882 42.5,36.5C 41.6527,38.061 41.9861,39.561 43.5,41C 42.451,41.4922 41.451,41.3256 40.5,40.5C 39.4777,40.8555 38.811,41.5222 38.5,42.5C 36.7376,41.7377 35.7376,40.4044 35.5,38.5C 37.4458,38.8072 39.1125,38.8072 40.5,38.5C 35.1103,28.2651 36.777,26.4318 45.5,33C 48.7675,34.2127 52.1008,34.546 55.5,34C 46.7996,27.2293 47.7996,25.2293 58.5,28C 60,29.5 61.5,31 63,32.5C 63.3182,28.2949 61.8182,24.7949 58.5,22C 65.6977,21.3478 70.1977,24.5145 72,31.5C 73.9066,27.9904 76.7399,26.8238 80.5,28C 79.2101,30.292 77.5435,32.292 75.5,34C 81.0082,33.6628 86.0082,31.8295 90.5,28.5C 90.9341,31.9158 90.2675,35.2492 88.5,38.5 Z"/></g>
<g><path style="opacity:1" fill="#77c094" d="M 88.5,38.5 C 90.1667,38.5 91.8333,38.5 93.5,38.5C 92.4038,40.767 90.7372,42.6004 88.5,44C 90.898,44.3744 93.2313,44.3744 95.5,44C 92.5022,46.8075 93.1688,48.1409 97.5,48C 96.1772,48.8159 95.5106,49.9826 95.5,51.5C 96.1465,53.1561 96.8131,54.8228 97.5,56.5C 97.3918,57.4419 97.0585,58.2753 96.5,59C 98.5,60.3333 100.167,62 101.5,64C 100.049,63.7374 98.7161,63.9041 97.5,64.5C 98.6016,65.1757 99.6016,65.8423 100.5,66.5C 99.8333,66.5 99.5,66.8333 99.5,67.5C 99.3399,70.0066 99.3399,72.5066 99.5,75C 100.315,76.6434 101.315,78.1434 102.5,79.5C 101.904,80.9354 101.904,82.602 102.5,84.5C 100.817,87.2218 100.151,90.8885 100.5,95.5C 100.819,97.7505 100.319,99.7505 99,101.5C 96.3619,98.6833 93.3619,96.35 90,94.5C 89.3989,97.6366 88.3989,100.637 87,103.5C 86.3946,101.519 85.3946,101.185 84,102.5C 81.6667,106.5 79.3333,110.5 77,114.5C 75.6924,112.359 74.1924,110.359 72.5,108.5C 71.5,110.5 70.5,112.5 69.5,114.5C 67.8333,112.5 66.1667,110.5 64.5,108.5C 62.443,110.269 60.6097,112.269 59,114.5C 58.5272,112.221 57.5272,110.221 56,108.5C 54.6667,110.5 53.3333,112.5 52,114.5C 49.7503,110.332 47.2503,106.332 44.5,102.5C 43.2361,102.36 42.0695,102.36 41,102.5C 40.2291,99.8103 39.3958,97.1436 38.5,94.5C 35.2139,96.4512 32.2139,98.7846 29.5,101.5C 28.7169,95.9446 27.3836,91.278 25.5,87.5C 25.7611,85.0502 26.4277,82.7169 27.5,80.5C 27.3764,79.8933 27.0431,79.56 26.5,79.5C 27.657,77.8624 28.8236,76.1957 30,74.5C 30.1909,76.7078 30.6909,78.7078 31.5,80.5C 32.6038,83.8104 34.2705,86.8104 36.5,89.5C 37.8465,93.4286 38.6798,93.0952 39,88.5C 41.0829,90.756 43.2496,92.756 45.5,94.5C 46.8366,95.3149 47.8366,96.4815 48.5,98C 53.6589,98.2111 58.8256,98.0445 64,97.5C 68.7722,97.4622 73.4388,98.1289 78,99.5C 79.828,97.8635 81.6614,96.1968 83.5,94.5C 86.1676,92.6645 88.3343,90.3312 90,87.5C 90.0748,89.935 90.9081,90.6016 92.5,89.5C 93.8923,87.7274 95.059,85.7274 96,83.5C 97.0468,78.2449 96.5468,73.2449 94.5,68.5C 95.7752,64.8666 95.1085,64.5333 92.5,67.5C 91.6457,66.3684 91.6457,65.035 92.5,63.5C 92.2155,61.5853 92.5489,59.9187 93.5,58.5C 94.3382,58.1583 94.6716,57.4916 94.5,56.5C 92.2057,51.2033 88.2057,48.2033 82.5,47.5C 82.5,44.8333 82.5,42.1667 82.5,39.5C 87.0996,35.1272 88.0996,35.6272 85.5,41C 85.8333,41.1667 86.1667,41.3333 86.5,41.5C 87.1757,40.3984 87.8423,39.3984 88.5,38.5 Z"/></g>
<g><path style="opacity:1" fill="#d0cfd4" d="M 49.5,90.5 C 50.9758,91.7335 52.6425,92.7335 54.5,93.5C 60.6622,92.1898 66.8289,92.1898 73,93.5C 74.8122,93.5066 76.3122,92.84 77.5,91.5C 78.9039,93.5471 78.5706,95.2138 76.5,96.5C 67.8812,95.6947 59.2146,95.1947 50.5,95C 49.6198,93.6439 49.2865,92.1439 49.5,90.5 Z"/></g>
<g><path style="opacity:1" fill="#cccbd0" d="M 48.5,80.5 C 49.4734,80.9867 50.4734,81.4867 51.5,82C 60.1667,82.6667 68.8333,82.6667 77.5,82C 79.2324,79.7741 80.2324,80.1075 80.5,83C 80.3266,85.0208 79.6599,86.8541 78.5,88.5C 77.3333,86.8333 76.1667,85.1667 75,83.5C 74.5,85.3333 73.3333,86.5 71.5,87C 66.5,87.6667 61.5,87.6667 56.5,87C 55.354,86.3551 54.354,85.5217 53.5,84.5C 52.1076,85.6053 50.941,86.9386 50,88.5C 48.9207,85.9373 48.4207,83.2706 48.5,80.5 Z"/></g>
</svg>
